<svg width="30" height="30" viewBox="0 0 30 30" fill="none" xmlns="http://www.w3.org/2000/svg">
<path d="M4 5.46667C4 5.46667 7.6077 5.43751 9.95878 4.6C12.0032 3.87174 15 2 15 2C15 2 18.2863 3.90229 20.5004 4.6C22.7143 5.29762 26 5.46667 26 5.46667C26 5.46667 26 12.4 26 17.6C26 24.1 15 28 15 28C15 28 4 23.6667 4 17.6C4 9.8 4 5.46667 4 5.46667Z" stroke="#573FEB" stroke-linejoin="round"/>
<path d="M8 9.13333C8 9.13333 10.2958 9.11539 11.792 8.6C13.0929 8.15184 15 7 15 7C15 7 17.0913 8.17064 18.5003 8.6C19.9091 9.0293 22 9.13333 22 9.13333C22 9.13333 22 13.4 22 16.6C22 20.6 15 23 15 23C15 23 8 20.3333 8 16.6C8 11.8 8 9.13333 8 9.13333Z" stroke="#573FEB" stroke-linejoin="round"/>
</svg>
