<svg width="30" height="30" viewBox="0 0 30 30" fill="none" xmlns="http://www.w3.org/2000/svg">
<path d="M8.5328 21.2814C4.92483 21.2814 2 18.3566 2 14.7486C2 11.1407 4.92483 8.21582 8.5328 8.21582C12.1408 8.21582 15.0656 11.1407 15.0656 14.7486" stroke="#573FEB" stroke-miterlimit="10"/>
<path d="M21.5985 8.21582C25.2064 8.21582 28.1313 11.1407 28.1313 14.7486C28.1313 18.3566 25.2064 21.2814 21.5985 21.2814C17.9957 21.2814 15.074 18.3649 15.0657 14.7641C15.0657 14.7589 15.0657 14.7538 15.0657 14.7486" stroke="#573FEB" stroke-miterlimit="10"/>
<path d="M21.7453 6.03086L19.0437 7.92601C18.9854 7.96687 18.9854 8.03313 19.0437 8.07399L21.7453 9.96914C21.8393 10.0351 22 9.98837 22 9.89515V6.10485C22 6.01163 21.8393 5.96494 21.7453 6.03086Z" fill="#573FEB"/>
<path d="M8.25466 22.9691L10.9563 21.074C11.0146 21.0331 11.0146 20.9669 10.9563 20.926L8.25466 19.0309C8.16068 18.9649 8 19.0116 8 19.1049L8 22.8951C8 22.9884 8.16068 23.0351 8.25466 22.9691Z" fill="#573FEB"/>
</svg>
