<svg width="30" height="30" viewBox="0 0 30 30" fill="none" xmlns="http://www.w3.org/2000/svg">
<path d="M21 9.51919L21 12.1849C21 12.4153 20.8499 12.6446 20.5509 12.8643C20.2529 13.0831 19.8174 13.2825 19.2718 13.4518C18.1826 13.7896 16.6716 13.9997 15 13.9997C13.3284 13.9997 11.8185 13.7896 10.7282 13.4518C10.1826 13.2825 9.74713 13.0831 9.44913 12.8643C9.15007 12.6456 9.00002 12.4153 9.00002 12.1849L9 9.48145" stroke="#573FEB" stroke-linecap="round"/>
<path d="M21 9.59739C21 9.833 20.8499 10.0676 20.5509 10.2923C20.2529 10.5161 19.8174 10.72 19.2718 10.8933C18.1826 11.2388 16.6716 11.4536 15 11.4536C13.3284 11.4536 11.8185 11.2388 10.7282 10.8933C10.1826 10.72 9.74711 10.5161 9.44911 10.2923C9.15005 10.0686 9 9.833 9 9.59739C9 9.36177 9.15005 9.12715 9.44911 8.90342C9.74711 8.67969 10.1826 8.47575 10.7282 8.30251C11.8174 7.95701 13.3284 7.74219 15 7.74219C16.6716 7.74219 18.1815 7.95701 19.2718 8.30251C19.8174 8.47575 20.2529 8.67969 20.5509 8.90342C20.8499 9.12715 21 9.36276 21 9.59739Z" stroke="#573FEB" stroke-linecap="round"/>
<path d="M21 6.56067C21 6.78604 20.8499 7.01046 20.5509 7.22541C20.2529 7.43942 19.8174 7.63448 19.2718 7.80019C18.1826 8.13067 16.6716 8.33615 15 8.33615C13.3284 8.33615 11.8185 8.13067 10.7282 7.80019C10.1826 7.63448 9.74711 7.43942 9.44911 7.22541C9.15005 7.01141 9 6.78604 9 6.56067C9 6.3353 9.15005 6.11088 9.44911 5.89688C9.74711 5.68287 10.1826 5.4878 10.7282 5.32209C11.8174 4.99162 13.3284 4.78613 15 4.78613C16.6716 4.78613 18.1815 4.99162 19.2718 5.32209C19.8174 5.4878 20.2529 5.68287 20.5509 5.89688C20.8499 6.11088 21 6.33625 21 6.56067Z" stroke="#573FEB" stroke-linecap="round"/>
<path d="M21 3.77454C21 3.99991 20.8499 4.22433 20.5509 4.43928C20.2529 4.65329 19.8174 4.84835 19.2718 5.01406C18.1826 5.34454 16.6716 5.55002 15 5.55002C13.3284 5.55002 11.8185 5.34454 10.7282 5.01406C10.1826 4.84835 9.74711 4.65329 9.44911 4.43928C9.15005 4.22528 9 3.99991 9 3.77454C9 3.54917 9.15005 3.32475 9.44911 3.11074C9.74711 2.89674 10.1826 2.70167 10.7282 2.53596C11.8174 2.20548 13.3284 2 15 2C16.6716 2 18.1815 2.20548 19.2718 2.53596C19.8174 2.70167 20.2529 2.89674 20.5509 3.11074C20.8499 3.32475 21 3.55012 21 3.77454Z" stroke="#573FEB" stroke-linecap="round"/>
<path d="M14 23.5192L14 26.1849C14 26.4153 13.8499 26.6446 13.5509 26.8643C13.2529 27.0831 12.8174 27.2825 12.2718 27.4518C11.1826 27.7896 9.67157 27.9997 8.00001 27.9997C6.32845 27.9997 4.81848 27.7896 3.72824 27.4518C3.1826 27.2825 2.74713 27.0831 2.44913 26.8643C2.15007 26.6456 2.00002 26.4153 2.00002 26.1849L2 23.4814" stroke="#573FEB" stroke-linecap="round"/>
<path d="M14 23.5974C14 23.833 13.8499 24.0676 13.5509 24.2923C13.2529 24.5161 12.8174 24.72 12.2718 24.8933C11.1826 25.2388 9.67156 25.4536 8 25.4536C6.32844 25.4536 4.81847 25.2388 3.72823 24.8933C3.18258 24.72 2.74711 24.5161 2.44911 24.2923C2.15005 24.0686 2 23.833 2 23.5974C2 23.3618 2.15005 23.1272 2.44911 22.9034C2.74711 22.6797 3.18258 22.4758 3.72823 22.3025C4.81742 21.957 6.32844 21.7422 8 21.7422C9.67156 21.7422 11.1815 21.957 12.2718 22.3025C12.8174 22.4758 13.2529 22.6797 13.5509 22.9034C13.8499 23.1272 14 23.3628 14 23.5974Z" stroke="#573FEB" stroke-linecap="round"/>
<path d="M14 20.5607C14 20.786 13.8499 21.0105 13.5509 21.2254C13.2529 21.4394 12.8174 21.6345 12.2718 21.8002C11.1826 22.1307 9.67156 22.3362 8 22.3362C6.32844 22.3362 4.81847 22.1307 3.72823 21.8002C3.18258 21.6345 2.74711 21.4394 2.44911 21.2254C2.15005 21.0114 2 20.786 2 20.5607C2 20.3353 2.15005 20.1109 2.44911 19.8969C2.74711 19.6829 3.18258 19.4878 3.72823 19.3221C4.81742 18.9916 6.32844 18.7861 8 18.7861C9.67156 18.7861 11.1815 18.9916 12.2718 19.3221C12.8174 19.4878 13.2529 19.6829 13.5509 19.8969C13.8499 20.1109 14 20.3362 14 20.5607Z" stroke="#573FEB" stroke-linecap="round"/>
<path d="M14 17.7745C14 17.9999 13.8499 18.2243 13.5509 18.4393C13.2529 18.6533 12.8174 18.8483 12.2718 19.0141C11.1826 19.3445 9.67156 19.55 8 19.55C6.32844 19.55 4.81847 19.3445 3.72823 19.0141C3.18258 18.8483 2.74711 18.6533 2.44911 18.4393C2.15005 18.2253 2 17.9999 2 17.7745C2 17.5492 2.15005 17.3247 2.44911 17.1107C2.74711 16.8967 3.18258 16.7017 3.72823 16.536C4.81742 16.2055 6.32844 16 8 16C9.67156 16 11.1815 16.2055 12.2718 16.536C12.8174 16.7017 13.2529 16.8967 13.5509 17.1107C13.8499 17.3247 14 17.5501 14 17.7745Z" stroke="#573FEB" stroke-linecap="round"/>
<path d="M28 23.5192L28 26.1849C28 26.4153 27.8499 26.6446 27.5509 26.8643C27.2529 27.0831 26.8174 27.2825 26.2718 27.4518C25.1826 27.7896 23.6716 27.9997 22 27.9997C20.3284 27.9997 18.8185 27.7896 17.7282 27.4518C17.1826 27.2825 16.7471 27.0831 16.4491 26.8643C16.1501 26.6456 16 26.4153 16 26.1849L16 23.4814" stroke="#573FEB" stroke-linecap="round"/>
<path d="M28 23.5974C28 23.833 27.8499 24.0676 27.5509 24.2923C27.2529 24.5161 26.8174 24.72 26.2718 24.8933C25.1826 25.2388 23.6716 25.4536 22 25.4536C20.3284 25.4536 18.8185 25.2388 17.7282 24.8933C17.1826 24.72 16.7471 24.5161 16.4491 24.2923C16.1501 24.0686 16 23.833 16 23.5974C16 23.3618 16.1501 23.1272 16.4491 22.9034C16.7471 22.6797 17.1826 22.4758 17.7282 22.3025C18.8174 21.957 20.3284 21.7422 22 21.7422C23.6716 21.7422 25.1815 21.957 26.2718 22.3025C26.8174 22.4758 27.2529 22.6797 27.5509 22.9034C27.8499 23.1272 28 23.3628 28 23.5974Z" stroke="#573FEB" stroke-linecap="round"/>
<path d="M28 20.5607C28 20.786 27.8499 21.0105 27.5509 21.2254C27.2529 21.4394 26.8174 21.6345 26.2718 21.8002C25.1826 22.1307 23.6716 22.3362 22 22.3362C20.3284 22.3362 18.8185 22.1307 17.7282 21.8002C17.1826 21.6345 16.7471 21.4394 16.4491 21.2254C16.1501 21.0114 16 20.786 16 20.5607C16 20.3353 16.1501 20.1109 16.4491 19.8969C16.7471 19.6829 17.1826 19.4878 17.7282 19.3221C18.8174 18.9916 20.3284 18.7861 22 18.7861C23.6716 18.7861 25.1815 18.9916 26.2718 19.3221C26.8174 19.4878 27.2529 19.6829 27.5509 19.8969C27.8499 20.1109 28 20.3362 28 20.5607Z" stroke="#573FEB" stroke-linecap="round"/>
<path d="M28 17.7745C28 17.9999 27.8499 18.2243 27.5509 18.4393C27.2529 18.6533 26.8174 18.8483 26.2718 19.0141C25.1826 19.3445 23.6716 19.55 22 19.55C20.3284 19.55 18.8185 19.3445 17.7282 19.0141C17.1826 18.8483 16.7471 18.6533 16.4491 18.4393C16.1501 18.2253 16 17.9999 16 17.7745C16 17.5492 16.1501 17.3247 16.4491 17.1107C16.7471 16.8967 17.1826 16.7017 17.7282 16.536C18.8174 16.2055 20.3284 16 22 16C23.6716 16 25.1815 16.2055 26.2718 16.536C26.8174 16.7017 27.2529 16.8967 27.5509 17.1107C27.8499 17.3247 28 17.5501 28 17.7745Z" stroke="#573FEB" stroke-linecap="round"/>
</svg>
