<svg xmlns="http://www.w3.org/2000/svg" xmlns:xlink="http://www.w3.org/1999/xlink" viewBox="0 0 2000 2000"><defs><style>.cls-1,.cls-23{fill:none;}.cls-2{isolation:isolate;}.cls-3{opacity:0.3;fill:url(#radial-gradient);}.cls-3,.cls-4{mix-blend-mode:multiply;}.cls-4{opacity:0.5;fill:url(#radial-gradient-2);}.cls-5{clip-path:url(#clip-path);}.cls-6{fill:#f5f5f5;}.cls-7{fill:#010203;}.cls-8{fill:url(#linear-gradient);}.cls-9{fill:#afdbf9;}.cls-10{fill:#6ba8d9;}.cls-11{fill:#ceef7d;}.cls-12{fill:#8ed106;}.cls-13{fill:#8cca0e;}.cls-14{fill:#5f86a1;}.cls-15{fill:#000302;}.cls-16{fill:#020705;}.cls-17{fill:#020706;}.cls-18{fill:#8dce0a;}.cls-19{fill:#040d0a;}.cls-20{fill:#8bc711;}.cls-21{fill:#86b81f;}.cls-22{fill:#87bd1a;}.cls-23{stroke:#060000;}.cls-23,.cls-31{stroke-miterlimit:10;}.cls-24{fill:#66d0de;}.cls-25{opacity:0.25;fill:url(#linear-gradient-2);}.cls-26{fill:url(#linear-gradient-3);}.cls-27{fill:url(#linear-gradient-4);}.cls-28{fill:#080100;}.cls-29{fill:#f6d2a2;}.cls-30{fill:#b9f9f9;}.cls-31,.cls-32{fill:#f8f8f8;}.cls-31{stroke:#000;stroke-width:0.25px;}.cls-33{fill:#bbc4c1;}.cls-34{fill:#52b3ba;}</style><radialGradient id="radial-gradient" cx="858.22" cy="8597.76" r="507.48" gradientTransform="translate(-257.14 885.31) scale(1.28 0.08)" gradientUnits="userSpaceOnUse"><stop offset="0"/><stop offset="0.06" stop-color="#1d1d1d"/><stop offset="0.19" stop-color="#585858"/><stop offset="0.33" stop-color="#8b8b8b"/><stop offset="0.46" stop-color="#b5b5b5"/><stop offset="0.59" stop-color="#d5d5d5"/><stop offset="0.71" stop-color="#ececec"/><stop offset="0.82" stop-color="#fafafa"/><stop offset="0.92" stop-color="#fff"/></radialGradient><radialGradient id="radial-gradient-2" cx="1132.41" cy="6450.94" r="195.92" gradientTransform="translate(-257.14 774.19) scale(1.28 0.13)" xlink:href="#radial-gradient"/><clipPath id="clip-path"><circle class="cls-1" cx="1382.93" cy="788.97" r="426.37"/></clipPath><linearGradient id="linear-gradient" x1="1275.72" y1="916.55" x2="1814.64" y2="916.55" gradientUnits="userSpaceOnUse"><stop offset="0" stop-color="#6ba8d9"/><stop offset="1" stop-color="#afdbf9"/></linearGradient><linearGradient id="linear-gradient-2" x1="1154.05" y1="1256.85" x2="1369.87" y2="783.88" gradientUnits="userSpaceOnUse"><stop offset="0.36" stop-color="#080100"/><stop offset="0.94" stop-color="#080100" stop-opacity="0"/></linearGradient><linearGradient id="linear-gradient-3" x1="1456.83" y1="1196.33" x2="1553.24" y2="1152.18" gradientUnits="userSpaceOnUse"><stop offset="0" stop-color="#66d0de"/><stop offset="0.08" stop-color="#82d0d2"/><stop offset="0.22" stop-color="#acd1c1"/><stop offset="0.35" stop-color="#ccd1b3"/><stop offset="0.48" stop-color="#e3d2aa"/><stop offset="0.6" stop-color="#f1d2a4"/><stop offset="0.71" stop-color="#f6d2a2"/></linearGradient><linearGradient id="linear-gradient-4" x1="1334.78" y1="1539.52" x2="1345.69" y2="1600.51" xlink:href="#linear-gradient-3"/></defs><g class="cls-2"><g id="Layer_1" data-name="Layer 1"><path class="cls-3" d="M1487.43,1595.45c0,23.22-290.3,41.94-648.38,41.94s-648.35-18.72-648.35-41.94,290.3-41.87,648.35-41.87S1487.43,1572.31,1487.43,1595.45Z"/><path class="cls-4" d="M1439.59,1596.65c0,13.84-112.06,25-250.3,25s-250.3-11.17-250.3-25,112.06-25,250.3-25S1439.59,1582.87,1439.59,1596.65Z"/><g class="cls-5"><path class="cls-6" d="M1824.1,845c-.41,36.6-3.55,73.38-17.61,107.54-12.84,31.22-24.3,63-40.24,93.07-17.07,32.15-38.63,59.79-68.43,81-12.88,9.18-22.09,22.43-34.59,32.24-19.59,15.38-40.87,28.1-63.79,37.07a578.75,578.75,0,0,1-93.91,28.06c-30.47,6.29-61.41,7.08-92.37,7-3,0-5.94,0-8.92,0-31.2-.47-62.64,2.9-93.39-4.88a243.43,243.43,0,0,1-28.53-9.51c-24.89-9.77-51.88-14-75.55-26.66-25.16-13.45-53.07-22.83-75.1-40.87-35.57-29.14-76.76-52.13-104.48-90.15-25-34.3-51.38-68.14-63.77-109.66-8.23-27.63-15.22-55.66-22.38-83.62a437.52,437.52,0,0,1-11.84-70.31c-3.49-39.27.92-77.85,9.4-116.22s24.66-73.74,40.91-109.16c21.64-47.16,51.68-87.64,92.71-119.93,13.9-10.92,24.89-25.34,40.38-34.56,31.73-18.88,64.06-36.51,97.34-52.58,45.34-21.89,93.09-33.19,142.89-39.29a408.46,408.46,0,0,1,94.4-1,75.08,75.08,0,0,1,11.37,2.38c45.37,12.59,90.2,26.7,132.07,48.74,4.39,2.32,8.23,5.81,12,9.15,13.86,12.25,29.1,22.61,43.88,33.66,21.77,16.3,39.06,37.33,56.62,57.92,6.74,7.89,13,16.28,20.24,23.6,20.89,21,32.78,47.06,43.67,73.95,8.23,20.34,19.69,39.33,25.61,60.67,9.61,34.63,18.72,69.19,24,105A672.47,672.47,0,0,1,1824.1,845Z"/><path class="cls-7" d="M1824.1,845c-.41,36.6-3.55,73.38-17.61,107.54-12.84,31.22-24.3,63-40.24,93.07-17.07,32.15-38.63,59.79-68.43,81-12.88,9.18-22.09,22.43-34.59,32.24-19.59,15.38-40.87,28.1-63.79,37.07a578.75,578.75,0,0,1-93.91,28.06c-30.47,6.29-61.41,7.08-92.37,7-3,0-5.94,0-8.92,0-31.2-.47-62.64,2.9-93.39-4.88a243.43,243.43,0,0,1-28.53-9.51c-24.89-9.77-51.88-14-75.55-26.66-25.16-13.45-53.07-22.83-75.1-40.87-35.57-29.14-76.76-52.13-104.48-90.15-25-34.3-51.38-68.14-63.77-109.66-8.23-27.63-15.22-55.66-22.38-83.62a437.52,437.52,0,0,1-11.84-70.31c-3.49-39.27.92-77.85,9.4-116.22s24.66-73.74,40.91-109.16c21.64-47.16,51.68-87.64,92.71-119.93,13.9-10.92,24.89-25.34,40.38-34.56,31.73-18.88,64.06-36.51,97.34-52.58,45.34-21.89,93.09-33.19,142.89-39.29a408.46,408.46,0,0,1,94.4-1,75.08,75.08,0,0,1,11.37,2.38c45.37,12.59,90.2,26.7,132.07,48.74,4.39,2.32,8.23,5.81,12,9.15,13.86,12.25,29.1,22.61,43.88,33.66,21.77,16.3,39.06,37.33,56.62,57.92,6.74,7.89,13,16.28,20.24,23.6,20.89,21,32.78,47.06,43.67,73.95,8.23,20.34,19.69,39.33,25.61,60.67,9.61,34.63,18.72,69.19,24,105A672.47,672.47,0,0,1,1824.1,845Z"/><path class="cls-8" d="M1814,858.22c-1.64,30.48-7.5,60.35-16.23,89.47-5.12,17-13,33.22-20,49.65-12.83,30.21-27.63,59.34-47.06,85.93-10.44,14.33-25.92,22.65-38.26,34.65-21.21,20.53-42.49,40.71-68.88,54.76-16.51,8.73-33.35,16.85-51,23.12-36,12.89-72.9,22.51-111.23,25.17-27.62,1.91-55.24.68-82.86,1.09-25.1.34-50.26,0-74.34-7.3,2.25,0,4.5,0,6.68-.07,27.49-.34,55,.82,82.46-1,38.12-2.52,74.81-11.53,110.68-23.67,17.53-5.86,34.31-13.5,50.75-21.82,26.25-13.16,47.46-32.19,68.47-51.49,12.27-11.25,27.75-19.16,38.12-32.6,19.37-25.1,34-52.51,46.85-80.88,7-15.48,14.73-30.76,19.85-46.72,8.73-27.42,14.53-55.51,16.09-84.29,1-17.53,1.3-35-1.63-54.9-1.78,5.93-2.39,9.61-4,12.89-3.13,6.61-7,14-15.07,15.07s-14.12-4.84-19.16-10.51c-1.37-1.5-2.19-3.41-3.41-4.91a13.07,13.07,0,0,0-3.69-3.54,166.7,166.7,0,0,0-54.62-18.07c-19.17-2.73-34.92-18.21-29-37.72,4.16-13.91-1.77-23.6-8.73-33.89-1-1.44-2.32-2.6-3.2-4-5.46-8.32-17.39-12.82-27.15-10.09-8.52,2.39-11.59,8-7,14.18,4.36,5.94,3.13,11.26-.41,16.44-4.09,6-10.78,6.62-17.39,5.18-21.76-4.77-30.69-14.39-33.56-35.87-1.57-11.18-3-22.5-10.36-31.78-14.19-18.07-31.72-34.71-56.27-27.62-32.26,9.34-62.81.68-92.07-11.94-10.91-4.63-20.25-5.25-30.07,1-2.46,1.57-5.12,2.79-7.57,4.29-12.21,7.37-24.28,4.5-36.22-.61a12.76,12.76,0,0,1-7.09-7.23c-2.86-7.71,2.52-25.23,9.48-30.07,9.48-6.62,19.71-9,31.78-6.69,8.46,1.64,17.26,3.07,25.44,1.43a20.41,20.41,0,0,0,.75,7.37,13.1,13.1,0,0,0,7.16,7.71c12,5.38,24.07,8.45,36.35.68,2.52-1.64,5.18-3,7.64-4.64,9.89-6.61,19.3-6,30.21-1,29.4,13.36,60.08,22.5,92.55,12.61,24.69-7.5,42.28,10.17,56.6,29.33,7.37,9.89,8.8,21.89,10.37,33.83,2.86,22.78,11.87,33,33.69,38,6.68,1.57,13.37.89,17.53-5.52,3.61-5.46,4.77-11.12.41-17.39-4.64-6.62-1.57-12.55,7-15.08,9.82-2.93,21.83,1.85,27.28,10.71,1,1.5,2.32,2.73,3.28,4.23,7,11,13,21.28,8.73,36.08-5.94,20.66,10,37.17,29.12,40,19.71,3,37.78,9.69,55,19.23a14.5,14.5,0,0,1,3.68,3.69c1.23,1.7,2.11,3.68,3.41,5.25,5.11,6.07,11.18,12.2,19.3,11.11s12-8.93,15.14-16c1.57-3.47,2.18-7.36,4-13.7C1815.21,821,1814.93,839.6,1814,858.22Z"/><path class="cls-9" d="M1635.57,420.79c-25.17.54-45.28,13.57-67.52,19.64-8.8,2.38-17.18,3.75-25.71,3.47-22.5-20-49.38-33.75-77.47-45.14-16.51-6.69-34.58-10-51.36-16-25.3-9.07-51.49-9.82-77.74-11.19-15.76-.81-31.17,2.25-46.58,4.85-.82-1.71-1.78-3.41-2.66-5a37,37,0,0,1-4.78-19.64c.14-5,2-6.82,6.34-7.91,15.28-3.89,30.63-8.12,46.31-9.28,23.19-1.77,45.76-9.41,69.16-8.18,26.32,1.43,52.71,2.25,78.15,11.86,16.85,6.35,35,9.82,51.56,16.92,29,12.41,56.61,27.62,79.66,49.65C1619.41,411,1628.14,413.76,1635.57,420.79Z"/><path class="cls-10" d="M1744.07,872.2c-1.56,28.78-7.36,56.87-16.09,84.29-5.12,16-12.89,31.24-19.85,46.72-12.82,28.37-27.48,55.78-46.85,80.88-10.37,13.44-25.85,21.35-38.12,32.6-21,19.3-42.22,38.33-68.47,51.49-16.44,8.32-33.22,16-50.75,21.82-35.87,12.14-72.56,21.15-110.68,23.67-27.42,1.84-55,.68-82.46,1-2.18.07-4.43.07-6.68.07-1.16-.41-2.39-.75-3.54-1.16-34.1-11.39-69.5-19.16-101.49-36.48-2.38-1.3-4.91-2.39-6.88-4.16-3.07-2.73-9.76-2.53-9.55-7,.34-6.55.88-13.71,6.07-19.17,4.43-4.7,8-10.23,12.75-14.86,12.28-11.94,14-26.46,8-41.88-1.71-4.63-1.09-7,2.8-9.61,7.91-5.32,11.79-13,12.88-22.44,1.23-10.16,6.35-19.23,9.55-28.78,6-17.73,2.19-33.49-8.66-48-5.73-7.57-11.46-15.21-17.8-22.3-17.87-20.05-42-30.42-66.56-38.4-20-6.41-35.19-18-48.56-33-9.68-10.84-20-18.34-35.74-13.5-5.59,1.7-8.86,4.57-10.29,9.82a32.47,32.47,0,0,0,3.61,26.8,84.81,84.81,0,0,1,6.55,12.75c8.8,22.17,4.43,43.72-9.21,65.27-8,12.55-13.16,25.58-6.61,41.26,3.54,8.53-1.78,18.82,2.18,28,1.16,2.46,2.45,4.91-2.05,5.19-6.89-5.26-10-13.17-14.52-20.12a588.07,588.07,0,0,1-36.42-63.56,505.2,505.2,0,0,1-29.46-73.59c-2.46-7.64-4.64-15.41-6.69-23.19-2.25-8.73-5-17.39-7.5-26.12-4.23-14.73-7.77-29.67-7.5-45.56a53.7,53.7,0,0,1,20.73,22.58c5,10.3,14,15.89,22.51,22.09a147.32,147.32,0,0,0,13.7,8.46c10,5.73,18,13.16,22.1,24.48,1.77,4.85,6.34,6.28,11.19,4.91,5-1.43,2.79-5.79,2.86-9.07.41-23.87-13.37-39.35-31.3-52-9.55-6.82-14.33-16.44-18.14-26.87-1.91-5.12.13-8.66,3.2-11.46a25.58,25.58,0,0,1,3.27-2.73c3.89-2.93,8-5.66,12.08-8.32,2.66-1.7,5.32-3.34,8-5,9.55-5.79,15.28-14.73,20.81-24,1.09-2,1.63-5,4.7-4.57,2.73.41,2.73,3.07,3.55,5.32,3.2,8.66,5.18,18.34,16.23,21.34,8.25,2.25,12,.48,12.55-8.11a191,191,0,0,0-1.37-34.78c-.61-4.71-1-9.48-1.22-14.19-.48-7.36,3.41-11.8,9.82-14.32,7-2.73,12.89-7.37,19.5-10.64s10-8.59,8.12-15.14c-5.25-19,5.11-30.89,17.39-42.49,17-16.09,17.66-29,2.59-47.06-4.36-5.25-8.66-10.7-13.71-15.2-10.5-9.35-23.87-7.92-32.39,3.34-4.3,5.66-8.73,11.59-11.39,18.07a59.69,59.69,0,0,1-12.76,19.1c-3.88,4.16-8.18,8-12.41,11.79-2.79,2.53-5.93,4.37-9.75,2.6-4.3-2.12-2.8-6.35-2.18-9.55.82-4,2.66-7.84,4.29-11.66a53.51,53.51,0,0,0,2.66-7.51c1.3-5.11,1.37-10.36-1.36-15.75-2.11-4.3-.48-7.64,3.41-9.82,7.09-4.09,12.28-10.37,18.28-15.69,10.3-9.2,9.2-19.57-.89-29-8.66-8-18.89-11.53-29.87-14.12a118.75,118.75,0,0,1,9.62-13.57,256,256,0,0,1,20.52-21.69c1.57-1.5,3.14-3,4.71-4.57,3.68-3.41,7.43-7,11.32-10.5,3.68-3.48,7.5-7,11.39-10.57,4.71,8.93,13.23,10.5,21.82,10.3,9.21-.21,17.26-4.91,24.28-10.44,4.57-3.61,5-9.27.62-14.32-4.64-5.39-10-9.27-18.35-8.93,5.12-8.87,12.69-10,20.8-8.26,7.84,1.71,10.37,8.26,11.32,15.42,2.25,16.78.68,34,4.91,50.6,0,.14.07.21.14.34a79,79,0,0,0,7.71,19.51c5.38,9.82,14,13.77,24.68,12.21,9.14-1.37,13-9.28,15.55-16.71a191.64,191.64,0,0,0,7.37-30.42,41.91,41.91,0,0,1,5.25-14.73c4-6.75,10-11.8,17.53-15.62a61.47,61.47,0,0,1,5.93-2.66c18.55-7.3,37-15,52.45-28.1,11.11-9.34,13-15.68,8.38-29.73a52.27,52.27,0,0,0-3.06-7.09c15.41-2.6,30.82-5.66,46.58-4.85,26.25,1.37,52.44,2.12,77.74,11.19,16.78,6,34.85,9.27,51.36,16,28.09,11.39,55,25.16,77.47,45.14a59.81,59.81,0,0,1-12-1.43,90.19,90.19,0,0,0-26.74-1.29c-10.91.88-25.16,13.57-27.41,24.07a21.36,21.36,0,0,0,3.54,16.91,24.16,24.16,0,0,0,7.78,7.3,61.61,61.61,0,0,0,28,8.46c6.82.54,16.23.34,18.14,6.68S1526,513,1520.93,516c-14.87,8.66-30.76,14-48.08,14.6-5.66.13-11.12,1.43-16.64,2.72a9,9,0,0,0-1.3.35c-6.55,1.84-10.37,6.27-11.73,12.68a42.42,42.42,0,0,1-3.48,9.89c-3.41,7.09-8.46,13.09-14,18.69-11.53,11.79-26.32,9.54-40.31,6.68a40,40,0,0,0-10.84-.89,38.47,38.47,0,0,0-21.07,7.91c-5.39,4-9.76,15.62-10.3,24.62-8.18,1.64-17,.21-25.44-1.43-12.07-2.32-22.3.07-31.78,6.69-7,4.84-12.34,22.36-9.48,30.07a12.76,12.76,0,0,0,7.09,7.23c11.94,5.11,24,8,36.22.61,2.45-1.5,5.11-2.72,7.57-4.29,9.82-6.28,19.16-5.66,30.07-1,29.26,12.62,59.81,21.28,92.07,11.94,24.55-7.09,42.08,9.55,56.27,27.62,7.36,9.28,8.79,20.6,10.36,31.78,2.87,21.48,11.8,31.1,33.56,35.87,6.61,1.44,13.3.82,17.39-5.18,3.54-5.18,4.77-10.5.41-16.44-4.64-6.2-1.57-11.79,7-14.18,9.76-2.73,21.69,1.77,27.15,10.09.88,1.43,2.25,2.59,3.2,4,7,10.29,12.89,20,8.73,33.89-5.93,19.51,9.82,35,29,37.72a166.7,166.7,0,0,1,54.62,18.07,13.07,13.07,0,0,1,3.69,3.54c1.22,1.5,2,3.41,3.41,4.91,5,5.67,11,11.46,19.16,10.51s11.94-8.46,15.07-15.07c1.57-3.28,2.18-7,4-12.89C1745.37,837.21,1745.1,854.67,1744.07,872.2Z"/><path class="cls-11" d="M1803.54,794.72c-2,6.75-1.77,14.32-6.34,20.26-2.93,3.82-5.59,5.59-8.18,4.84.68-3.34,1.16-6.75,2.11-10,3.14-10.43,7.71-21.55,6.55-31.85a674.14,674.14,0,0,0-25.37-123.1c-7.64-25-20.53-47.46-30.08-71.47-8.25-20.8-17.66-41.19-32.66-58-19.85-22.23-39.22-44.87-58.93-67.17-13.84-15.69-29.46-17.87-46.44-11.8-16.78,6.07-33.69,11.8-50.33,18.14a58.88,58.88,0,0,1-33.22,2.93c-9.27-1.7-18.82-3.68-28.37-1.84a20.61,20.61,0,0,0-5.18,1.77c1.16-7.29,8.87-15.07,17.66-16.84,9.48-1.91,19,.07,28.31,1.77a58.8,58.8,0,0,0,33.21-2.93c16.71-6.34,33.62-12.07,50.4-18.07,17-6.14,32.6-3.89,46.44,11.73,19.71,22.3,39.08,44.94,58.86,67.17,15.07,16.92,24.41,37.24,32.67,58.11,9.54,24,22.43,46.44,30.14,71.4a675.18,675.18,0,0,1,25.37,123.1C1811.32,773.17,1806.68,784.36,1803.54,794.72Z"/><path class="cls-11" d="M1791.13,809.86c-1,3.21-1.43,6.62-2.11,10-1.71-.48-3.34-2.05-5-4.71-5.39-8.93-12.69-14.59-20.94-18.68a31.36,31.36,0,0,0-.13-5,674,674,0,0,0-25.37-123.1c-7.64-25-20.53-47.47-30.08-71.47-8.25-20.8-17.66-41.19-32.67-58-19.84-22.23-39.21-44.88-58.92-67.18-13.85-15.68-29.46-17.86-46.45-11.79-16.77,6.07-33.69,11.79-50.33,18.14a58.42,58.42,0,0,1-25.09,3.95c-4.71-3-7.16-7.3-7.1-12.61a16.45,16.45,0,0,1,.14-1.85,20.61,20.61,0,0,1,5.18-1.77c9.55-1.84,19.1.14,28.37,1.84a58.88,58.88,0,0,0,33.22-2.93c16.64-6.34,33.55-12.07,50.33-18.14,17-6.07,32.6-3.89,46.44,11.8,19.71,22.3,39.08,44.94,58.93,67.17,15,16.85,24.41,37.24,32.66,58,9.55,24,22.44,46.51,30.08,71.47A674.14,674.14,0,0,1,1797.68,778C1798.84,788.31,1794.27,799.43,1791.13,809.86Z"/><path class="cls-12" d="M1763.1,796.43c-6.27-3.21-13.09-5.46-20.18-7.78-11.39-3.61-23.19-5.18-34.51-8.59-15.69-4.64-21.55-18.21-15.21-33,3.89-9.27-1.3-17.59-4.43-25.44s-8.39-15-13.64-21.75c-10.92-14.12-38.74-12.35-47.88,2.72a9.68,9.68,0,0,0-1,2,9.05,9.05,0,0,0-.54,3.75,14.37,14.37,0,0,0,2.66,7.64c2.45,3.68,4.64,7.57,1.64,11.53-3.21,4.29-7.57,1.22-11.53.81a22.57,22.57,0,0,1-4.43-.88c-7.71-2.32-13.44-8.46-16.64-17.05a51.19,51.19,0,0,1-2.94-15.07c-1.43-31.44-20.59-50.54-45.08-66.23a25.16,25.16,0,0,0-17.66-4c-11.8-.41-22.44,5.11-33.76,5.18a167.27,167.27,0,0,1-70.93-15.62c-11.66-5.32-22.3-5.66-33.07,1.23-3.28,2.12-6.89,3.68-10,5.94a17.77,17.77,0,0,1-4.36,2.45h-.07a19.25,19.25,0,0,1-11.53,1,64.77,64.77,0,0,1-12.48-4.29,5,5,0,0,1-2.72-3.21,41.86,41.86,0,0,1,.68-12.14,9.61,9.61,0,0,1,.41-1.43,20,20,0,0,1,5.18-9c5.18-5,12.89-8.19,20.53-6.14a78.59,78.59,0,0,0,19.78,2.59,103.56,103.56,0,0,0,13.77-.89c6.41-.81,11.8-3.81,16.51-8.11,1.09-1,2.25-2.12,3.27-3.21,7.09-6.89,13.16-14.52,16.78-23.66a40.66,40.66,0,0,0,1.91-5.46c.27-.75.47-1.57.68-2.38,1.09-4.91,4.64-6.55,9.07-7.17,11-1.56,22.1-2.86,32.87-5.52a108.34,108.34,0,0,0,15.82-4.91c8.05-3.21,16.1-6.27,23.26-11.05a52.59,52.59,0,0,0,7.57-6.07c7-6.82,6.41-13-1.71-18.34a42,42,0,0,0-17.52-6.48c-5.87-.75-11.8-1.5-17.67-2.73a29.71,29.71,0,0,1-10-3.89,58.42,58.42,0,0,0,25.09-3.95c16.64-6.35,33.56-12.07,50.33-18.14,17-6.07,32.6-3.89,46.45,11.79,19.71,22.3,39.08,44.95,58.92,67.18,15,16.85,24.42,37.24,32.67,58,9.55,24,22.44,46.51,30.08,71.47A674,674,0,0,1,1763,791.38,31.36,31.36,0,0,1,1763.1,796.43Z"/><path class="cls-11" d="M1222.42,1038.53c-1.77,4.37-4,8.87-4.57,13.44-1.43,10.3-5.25,18.55-13.91,24.89a8.32,8.32,0,0,0-1.44,1.23,42.34,42.34,0,0,0,2.87-11c.68-4.64,2.79-9.07,4.64-13.5,6.61-15.83,9-31.65-1.5-46.72a270,270,0,0,0-21.15-26.46c-16-17.87-37.51-27.83-59.33-35.19-22.85-7.64-40.71-20.26-55.92-38.26-5-5.94-10.91-11.26-19-12.14a21.65,21.65,0,0,1-.55-7.91c.62-5.39,2.32-6.62,7.51-7.23,11.18-1.3,18.41,4.91,24.55,12.14,15.14,18,33.07,30.69,55.85,38.33,21.89,7.29,43.31,17.25,59.4,35.12A290.77,290.77,0,0,1,1221,991.75C1231.49,1006.82,1229.1,1022.64,1222.42,1038.53Z"/><path class="cls-12" d="M1210,1053.61c-1.85,4.43-4,8.86-4.64,13.5a42.34,42.34,0,0,1-2.87,11,11.41,11.41,0,0,0-4,6.89v.07c-.34,2.66.34,5.59,2.18,9,4.84,9.14,5.12,19-1.91,27.76-3.82,4.7-7.71,9.41-11.73,14-.41.62-.95,1.16-1.43,1.78-1,1.23-2.05,2.45-3,3.75l-.62.82c-3.47,4.57-6.27,9.55-6.75,15.68-.41,4.85-2.38,5-6.34,3.07-.48-.27-1-.48-1.43-.75-21.76-10.91-42.69-23-59.4-41-14.12-15.27-30.49-27.62-47.67-38.87-8.46-5.52-14.12-11.87-11.6-21.28-.27-7.16-.14-12.75,1.43-18.34,1-3.75,1.57-8-.06-11.46-7.44-15.41.34-27.08,8-39.69,15-24.55,19.85-50.4,4.51-76.86-3.48-6-7.92-11.26-9.62-17.87,8.12.88,14,6.2,19,12.14,15.21,18,33.07,30.62,55.92,38.26,21.82,7.36,43.31,17.32,59.33,35.19a270,270,0,0,1,21.15,26.46C1219,1022,1216.62,1037.78,1210,1053.61Z"/><path class="cls-11" d="M1044.9,556.43c-1.64,1.57-3.35,3.14-5.12,4.64.61-3.82-1.84-7.3-7.5-12.34-2.18-2-5.12-3.28-7.09-5.46-3.62-4.16-10.3-4.91-12.76-10.3,3.82-5.73,7.78-11.32,11.8-16.91,1.77,7,9.41,7.57,13.44,12.14,1.91,2.18,4.84,3.41,7.09,5.39C1054.85,542.59,1054.85,546.75,1044.9,556.43Z"/><path class="cls-12" d="M1024.3,516a.07.07,0,0,1-.07.07V516Z"/><path class="cls-11" d="M1119.37,624.84c-2.8,2.79-5.59,5.73-8.32,8.66a15.18,15.18,0,0,0-.14-9.82c-4-12.75-11.18-23.6-20.46-32.94a12.88,12.88,0,0,0-13.16-3,2.53,2.53,0,0,0,.27-.68,27.29,27.29,0,0,1,5.6-10c5.18-6,14.32-6.89,19.71-1.43,9.34,9.41,16.57,20.18,20.52,32.94C1125.23,614.68,1124.28,619.86,1119.37,624.84Z"/><path class="cls-12" d="M1054.85,623.47a96,96,0,0,1-25,25.78c-5.8,4.16-11.05,3.62-16.78,1.23-6.06-2.52-6.75-7.91-6.61-13.43.2-7.1,3.61-13.17,6.14-19.51,1.57-4,4-8.12,1.63-12-7.5-12.35-.27-19.17,8.73-25.78l.82-.62c-.54,3.21.21,6.89,2.87,11.26,2.38,3.88,0,8.11-1.57,12-2.53,6.34-5.94,12.41-6.14,19.51-.14,5.59.55,10.91,6.55,13.43,5.73,2.39,11,2.93,16.77-1.23A95.17,95.17,0,0,0,1054.85,623.47Z"/><path class="cls-12" d="M1111.05,633.5c-3.62,3.82-7.16,7.64-10.71,11.39a30,30,0,0,0-5.45,7.64c-3.07,6.34-3.28,13-2.05,20.25,1.57,8.94-1.64,13.85-9.82,17.26-.75.34-1.5.68-2.25,1.09a118.38,118.38,0,0,0-15.48,9.2,19.39,19.39,0,0,0-8.73,12.69c-1.37,6.07-.34,12.68.54,19,1.3,9.82.89,19.64,1.3,29.39.14,1.91.89,4.71-1.91,5.25s-4.09-2.18-4.84-4.29c-2.25-5.87-3.69-11.94-7-17.33-.13-.2-.27-.41-.34-.54-5.45-8.25-13-8.87-17.46,0a69.26,69.26,0,0,1-5.18,8.73,76,76,0,0,1-10.16,11.66c-7.3,6.89-15.69,12.68-24.28,18.41s-12.69,10.16-13.44,15.82C973.08,804,975,809.73,979,817.7c6.61,13.1,17.93,21.15,28.43,30.35,8.19,7.16,14.94,15.14,14.74,28.24-11.46-12.14-24.56-20-37.72-28-6.07-3.62-10.84-10-14.59-16.57a110.63,110.63,0,0,0-8.53-12.89,70.36,70.36,0,0,0-22.23-19.71c-3.14-1.71-1.91-4.1-2.25-6.07-4.43-29.53-1-58.72,3-88,5.86-43.85,22.71-84,43-122.35A560.23,560.23,0,0,1,1012.43,533c2.46,5.39,9.14,6.14,12.76,10.3,2,2.18,4.91,3.48,7.09,5.46,5.66,5,8.11,8.52,7.5,12.34-1.43,1.23-2.86,2.46-4.36,3.55-5.8,4.29-10.78,8.59-11.6,14.52l-.82.62c-9,6.61-16.23,13.43-8.73,25.78,2.32,3.88-.06,8-1.63,12-2.53,6.34-5.94,12.41-6.14,19.51-.14,5.52.55,10.91,6.61,13.43,5.73,2.39,11,2.93,16.78-1.23a96,96,0,0,0,25-25.78,88.31,88.31,0,0,0,22.44-35.73,12.88,12.88,0,0,1,13.16,3c9.28,9.34,16.51,20.19,20.46,32.94A15.18,15.18,0,0,1,1111.05,633.5Z"/><path class="cls-11" d="M1278.48,404.21c-2,1.71-4,3.28-6.14,4.78a20,20,0,0,0-1.7-9.07c-3-7.44-8.12-13.71-10.17-21.69-1.16-4.57,1.91-11.87-3.82-13.23-4.56-1.09-10.23,2.18-15.34,3.54-.27.07-.55.21-.82.28-34.58,13.64-69.08,27.21-99.84,48.76a20,20,0,0,0-4.37-2.25c34.72-29.26,75.64-45.49,116.62-61.58a4.39,4.39,0,0,1,.82-.35c5.18-1.36,10.78-4.63,15.41-3.47,5.67,1.36,2.66,8.66,3.82,13.16,2,8,7.17,14.25,10.1,21.69C1286.18,392.55,1285.57,398.28,1278.48,404.21Z"/><path class="cls-12" d="M1272.34,409c-13.44,9.68-28.71,16-43.85,22.37-13.37,5.66-23.87,13.36-29.87,25.23h-.07a51.93,51.93,0,0,0-4.3,12.48q-3.06,14.32-7.16,28.44c-1.64,5.59-3.27,11.73-10.43,13.09a6.47,6.47,0,0,1-1.57.21c-6.62.54-9.41-4.3-12.62-9.55-5.45-8.8-6.82-18.35-7.43-28.17-.89-13.36-1.43-26.73-4.91-39.82-1.78-6.55-4.37-12.21-9.48-15.69,30.76-21.55,65.26-35.12,99.84-48.76.27-.07.55-.21.82-.28,5.11-1.36,10.78-4.63,15.34-3.54,5.73,1.36,2.66,8.66,3.82,13.23,2,8,7.16,14.25,10.17,21.69A20,20,0,0,1,1272.34,409Z"/><path class="cls-13" d="M1104.46,441.35c4.92,1.73,13-1.07,14,5.08,1,6.42-7.44,6.81-11.88,9.56-1.83,1.14-4.55,1.16-6.86,1.14-5.29,0-13.34-1.12-13.25-5.31.09-4.4,5.77-9.94,12.82-9.77A31.71,31.71,0,0,0,1104.46,441.35Z"/><path class="cls-14" d="M1041.61,1063.08c2.25-1.12,2.06-3.2,2.06-5.2,3,2.95,3.84,6.63,4,10.92C1043.85,1068.22,1042.47,1065.92,1041.61,1063.08Z"/><path class="cls-15" d="M1357.19,674.67c15.5,2.36,28.19,9.88,39.92,19.14,2.45,1.92,4.4,4.2,7.64,3.51,15.84-3.37,25.74,5.84,35.22,16.24,4.82,5.28,9.58,10.69,15,15.35,12.39,10.75,26.51,11.13,39,.71,12.87-10.78,27.62-13,43.52-11.32,6.83.71,13.64,1.55,20.47,2.21,17.51,1.71,30.24,10.7,37.61,26.35,6,12.82,15.63,22.12,26.25,30.77,16.19,13.2,21,30,17.14,50.27-2.94,15.42-2.37,31.36-7.2,46.6-6.67,21.07-14.31,41.42-28.41,59-6.43,8-10.94,17.93-14.79,27.3-14.92,36.31-37.32,67.61-61,98.42-16.52,21.52-32.62,43.2-53,61.33-10.7,9.49-23.61,15-35.94,21.57-7.18,3.82-22.53-2.32-27-10.7-4.68-8.85-11.53-15.61-18-23-14.45-16.46-21-36.22-12.18-57.07,7.88-18.53,11.12-37.52,13.09-57.1a72.36,72.36,0,0,1,2.19-13.23c2.2-7.44.86-14-3-20.52-6-10.12-7.34-20.62-1.91-31.55,2.72-5.48,2.31-10.48-1.72-15.66-8.52-10.94-17.25-21.06-31.74-24.39-4.82-1.11-9.08-4.55-12-9-10.11-15.64-24.12-26.58-40.63-34.84-6.71-3.36-13.93-3-20.84-4.22-21.5-3.93-27.23-17.89-29.11-33.4-2.12-17.45-3.3-35-.84-52.62a48.8,48.8,0,0,1,12.1-26.24c16.09-18.44,37-30.67,56.13-45.2C1332.94,676,1345.72,677.09,1357.19,674.67Z"/><path class="cls-16" d="M1693.54,860.87c10.09,2.22,15.89,8.44,14.73,15.83-1,6.65-8.93,11.27-18.36,10.38a57.07,57.07,0,0,1-36.15-17.48c-7.41-7.54-4.92-16.35,4.2-21.43,11.51-6.41,21.35-3.83,31.37,2.58,3.18,2,4.61,4.51,3.08,8.2-3.16,1.62-5.73-.3-8.4-1.44-2.46-1-4.7-2.68-7.3-3.28-5.88-1.36-11.48.72-13.69,5.7-2.29,5.15,3.33,7.45,7.13,9.59a37.63,37.63,0,0,0,11.71,4.19c9.45,1.75,9.52,1.7,8.24-7.87C1689.73,863.08,1690.35,861.11,1693.54,860.87Z"/><path class="cls-17" d="M1677.76,788.65c8.57.43,13.83,6.45,17.74,12.61,4,6.34.1,17.22-5.75,20.65-8.21,4.8-13.79-.87-18.28-5.88-4.75-5.32-9.3-10.83-14.53-15.68-5-4.65-11.2-9.11-7.78-17,2.17-5,14.62-5.55,21.59-1.72,2.89,1.58,5.56,3.55,6.58,7-.59,3.55-3.19,2.84-5.54,2.59-2.89-.32-5.57-2.21-10-.79,6.42,6.4,13.16,11.53,18.83,17.71,2.19,2.39,3.7.12,3.62-2.42-.11-3.13-2.15-5.49-3.68-8C1678.86,794.9,1676.48,792.33,1677.76,788.65Z"/><path class="cls-18" d="M1693.54,860.87c-5.31,4.18-.28,6.69,1.75,9.33,3.58,4.67,1.12,7-3.17,7-11.18,0-21.79-2.42-30.28-10.56-4.86-4.67-4.86-8.27,1.58-11.63,6.84-3.55,13.14-6.47,20.08,0,2.23,2.09,5.9,2.64,8.91,3.9C1692.79,859.59,1693.17,860.23,1693.54,860.87Z"/><path class="cls-19" d="M1124.45,499.83c-9-1.63-18.88-7-28.33-12.88-3.31-2.08-3.49-7.18-1.5-10.64s6.38-4,9.59-2.61c9.32,3.91,19.34,5.27,28.73,8.66,4.17,1.5,8.4,4.79,6.76,10C1137.88,498.17,1132.57,499.82,1124.45,499.83Z"/><path class="cls-19" d="M1075.93,496.21c4.71.69,9.56.9,14.07,2.25,3.56,1.06,7.28,2.87,7.51,7.77a9.86,9.86,0,0,1-5.62,9.48c-6.56,3.29-13.88,4.21-20.73,1-5.24-2.42-10.59-6.81-9-12.92C1063.61,498,1068.77,494.23,1075.93,496.21Z"/><path class="cls-20" d="M1677.76,788.65c2.78,4.56,5.77,9,8.29,13.69,2,3.73,1.79,8.2-1.66,10.49-3.88,2.58-5.71-2-7.35-4.39-5.44-7.84-14.67-12-20.08-20.29,7.29-5.2,13.68,4,20.37.47Z"/><path class="cls-11" d="M1630,814.16c-2.59,30.55-5.32,60.15-18.48,87.63-6.14,13-16.37,23.26-22.44,36.29-9.07,19.57-18.14,39.28-29.06,57.76-10.29,17.32-22.77,33.42-34.64,49.72-10,13.64-20.19,27.14-31.24,39.9,6.41-8.12,12.62-16.37,18.76-24.76,11.93-16.3,24.41-32.4,34.64-49.72,11-18.55,20-38.19,29.13-57.76,6.07-13.1,16.23-23.33,22.43-36.28,13.17-27.49,15.89-57.16,18.49-87.71,0-10.84-1.44-17.05-10.44-24.55-16.3-13.44-29.05-29.53-39.49-47.67-2.32-4.09-6-6.41-10.5-7.78-13.23-4.16-26.94-5.73-40.58-5.79-10.5,0-20.94,2.59-29.53,10.64-10.77,10-23.8,10.91-37.58,6-10.43-3.69-17-11.73-24-19.37-9.55-10.3-18.42-21.76-35.33-16.44a8,8,0,0,1-9.34-3.75c-3.89-6.68-10.71-9.48-16.78-12.82-15.14-8.32-32.26-11.18-46.58-1.16-16.44,11.39-33.49,22.57-47.81,37a44,44,0,0,1,5.12-7.22c15.68-18.42,35.8-31.38,55.17-44.88,14.32-10,31.44-7.09,46.58,1.16,6.07,3.34,12.82,6.14,16.71,12.82a8.07,8.07,0,0,0,9.41,3.75c16.91-5.32,25.78,6.14,35.26,16.51,7.09,7.57,13.57,15.61,24,19.3,13.84,4.91,26.87,4,37.57-6,8.67-8,19.1-10.63,29.6-10.63,13.57.06,27.35,1.63,40.58,5.79,4.43,1.43,8.18,3.69,10.5,7.78,10.44,18.14,23.19,34.23,39.42,47.67C1628.55,797,1630.05,803.25,1630,814.16Z"/><path class="cls-12" d="M1617.57,829.23c-2.6,30.55-5.32,60.22-18.49,87.71-6.2,12.95-16.36,23.18-22.43,36.28-9.08,19.57-18.15,39.21-29.13,57.76-10.23,17.32-22.71,33.42-34.64,49.72-6.14,8.39-12.35,16.64-18.76,24.76-4.7,5.38-9.54,10.7-14.52,15.82-12.48,12.82-27.28,22-43.17,29.6-6.07,2.93-14.53-.21-17.53-6.55-4-8.53-10-15.35-16.5-21.89-14.26-14.12-19.24-31.37-11.05-49.72s10.36-37.1,12.21-56.4a30.84,30.84,0,0,1,.81-6.14c4.23-13.43,3.14-26-4.22-38.4-3.62-6-2.53-12.68.47-18.95,5-10.44,2.39-19-4.84-27.83-9.82-12.07-20.46-22.37-35.94-26.39-3-.75-5.12-3.07-6.75-5.6-11.32-17.45-26.8-29.73-45.56-38.32-7.3-3.35-15.14-3.21-22.71-4.91-11.8-2.73-17.59-8.32-18.75-20.53-1.57-16.3-3-32.6-1.64-49.1a36.8,36.8,0,0,1,5.18-16.65c14.32-14.39,31.37-25.57,47.81-37,14.32-10,31.44-7.16,46.58,1.16,6.07,3.34,12.89,6.14,16.78,12.82a8,8,0,0,0,9.34,3.75c16.91-5.32,25.78,6.14,35.33,16.44,7,7.64,13.57,15.68,24,19.37,13.78,4.91,26.81,4,37.58-6,8.59-8.05,19-10.64,29.53-10.64,13.64.06,27.35,1.63,40.58,5.79,4.5,1.37,8.18,3.69,10.5,7.78,10.44,18.14,23.19,34.23,39.49,47.67C1616.13,812.18,1617.57,818.39,1617.57,829.23Z"/><path class="cls-12" d="M1011.82,531.13a.07.07,0,0,1-.07.07v-.07Z"/><path class="cls-21" d="M1101.78,481.48c10.23-.68,19.49,2.44,28.51,6.49,1.28.57,2.71,1.7,2,3.43s-2.47,1.39-3.84,1.37C1118.08,492.59,1109.76,487.5,1101.78,481.48Z"/><path class="cls-22" d="M1068,501.52c6.09.75,11,1.39,16,2,2.57.29,5.15,1.28,5,4s-3.09,2.9-5.46,3.28C1076.39,511.91,1069.8,512.14,1068,501.52Z"/></g><circle class="cls-23" cx="1382.93" cy="788.97" r="426.37"/><path class="cls-24" d="M1552.49,1175.72a7,7,0,0,1-1,4.09,7.69,7.69,0,0,1-3.07,2.8c-5.52,3.55-13.5,5-19.57,6.68s-17.67,3.62-21.49,3.75c-.41,0-.68.07-.95.07h-.07c-13,2.46-13.71,2.94-20.12,4.37s-12,3.82-18.34,5.59c6.47-1.36,13-2.8,19.43-4.09,4.78-.89,9.62-2.12,14.26-3,1.36-.21,3.27-.55,4.09-.69s.75-.13,1.09-.2.75-.07,1.09-.14c0,4.64.68,18.14.61,18.83a373.13,373.13,0,0,0,1.91,62.13c1.71,14.8,2.05,15.68,2.39,35.53.89,50-8,104.82-33.83,153.65-20.66,39.22-56.26,72.5-95.75,90.71-4.64,2.18-2.38.75-4,1.43-1.3.61-14.19,3.75-18,4.7-2.66-7.57-5.93-14.93-9.34-22.23,2.25,6.34,4.57,12.75,6.48,19.1.48,1.57,1,3.27,1.36,4.63s.75,2.53,1,3.82a73.87,73.87,0,0,1,1.91,10.78c.55,6.14,1.1,12.34-1.36,17.94-1.16,2.72-3.14,4-5.8,4.84a16.83,16.83,0,0,1-8.25.41c-6-1.16-10.09-5.46-13.84-10.37a94.49,94.49,0,0,1-5.46-8.46,55.35,55.35,0,0,1-4.43-9,155.6,155.6,0,0,1-6.07-19.16c-1.71-6.55-3.07-13-4.3-19.64a186,186,0,0,0,6.07,34c-.34-.41-.48-.61-.48-.61-45.08-2.73-83.88-.28-134.69-8.12s-122.14-35.74-159.79-82.18c-39.35-48.63-58.52-120.78-64-175.89-6.41-63.49-30.48-101.75-59.74-145.47-21.76-32.59-35.53-48.48-46.17-79.38,12.27,3.27,24.34,5,36.28,3.21,64.24-9.89,108.1-51.83,106.19-122.69-.89-34.24-17.4-57.77-40.11-80-22-21.55-51.21-30.08-80.88-31.17,67-69.08,158.09-76.79,240.4-75.43,107.08,1.84,120.31,34.58,196.14,75.84,3.41,1.91,4.23,3.48,6.35,5.18,43.3,35.74,72.36,68.27,106.11,115.94,31.65,44.74,64.38,105.85,80.27,161.29.21.62,3.76,18.83,5.53,23h-.07c-2,.07-4.5.28-6.21.41s-2.93.34-4.29.48c-4.3.55-8.8,1.37-12.76,2.18s-7.43,1.78-11,2.94-6.48,2.93-9.82,4.5c-6.55,3-13.1,5.79-19.58,8.86,6.89-2.45,13.71-5,20.53-7.5,3.41-1.29,6.55-2.86,10.09-3.89s7.23-1.7,11-2.38a188.35,188.35,0,0,1,23.19-2.32c3.89-.14,8-.21,11.73-.07a59.41,59.41,0,0,1,11.19,1.16c7,1.64,12.27,4.77,15.82,10.64C1552.15,1170.06,1552.42,1172.65,1552.49,1175.72Z"/><path class="cls-25" d="M1511,1196.41c16.57-6.76,33.55-11.75,50.72-17.36,8.93-2.91,17.15-7.1,25.22-11.61a37.38,37.38,0,0,1,9.31-6.25c2.36-1.14,4.7-2.31,7.06-3.46-7.95-19.69-22.08-42.12-44.1-44.78-29.35-3.56-46.26-68.94-90.73-142.78s-80.43-123-103.56-152.33-42.7-73.84-81-87.18-103.19,3.56-132.55,3.56-59.6-35.58-107.63-32-58.71,40-58.71,40l-6.23,38.25s59.57-11.15,175.24-3.55,338.4,287.77,351.75,342C1513.91,1151.7,1511.05,1179.9,1511,1196.41Z"/><path class="cls-26" d="M1464.26,1164c8.6-3.73,31.76-10.16,43.68-10.46s32.47-.19,39.36,7.26,10.1,11.53,3.17,20.68-37.14,10.41-49.28,13.88-25.51,6.71-36.84,8-12-6.22-17.46-11-11.7-6-8-11.06,9.39-5.23,12.83-10.22S1455.65,1167.72,1464.26,1164Z"/><path class="cls-27" d="M1361.54,1565.42c.47,1.65.13.12.27,1,1.43,8.58,4.79,20.47,1.41,28.5s-9.29,9.09-17.49,7.24-14.83-11.51-18.9-19.15-9-22.68-10.51-29.49-5.37-12.91-2.63-16.75,11.51,5.51,16.63,4.21,10.69-5.6,16.78-3.72,8.69,10.51,10.82,16.93C1358.54,1556,1361.08,1563.77,1361.54,1565.42Z"/><path d="M805.57,920.38c-.13.14-.27.41-.54.69C805.3,920.66,805.5,920.38,805.57,920.38Z"/><path d="M1323.75,1576.32c.07.21-.68.28-1.84.28-4.91-.14-17.87-2-18-1.09-7.22,1-23.66,1-29.8.54-23.8-1.5-68.33-6.48-84.09-8.32s-1.43-.41-9.89-1.64c-4-.54-3.07-.61-7.09-1.5-4.5-1-9.07-2.18-13.57-3.34l-3.82-1c-11.8-3.14-23.6-6.68-35.26-10.78a25.61,25.61,0,0,1-3.82-1.29c-2-.62-4.09-1.37-6.14-2.12-1.7-.61-4.57-1.91-6.68-2.66-29.39-10.5-67.72-38.39-84.36-60.08-42.42-55.17-59.75-123.44-66-181.14-6.82-63.49-30.35-99.36-58.65-142.06-23.53-35.53-37.58-50.33-48.9-85.65-.48-1.44-.89-2.94-1.37-4.44-20.39-8.59-37.16-20.25-49.24-36.35a24.42,24.42,0,0,1-1.77-2.45,100.08,100.08,0,0,1-15.07-33.08,32,32,0,0,1-.68-5.18c-.75-28.24,2.93-53.33,21.75-75.5-.34,2.87,5.46,1,4.09,4.57-.4,1.09,0,.82.62.14-.41.61-1,1.43-1.77,2.52-7.17,10.16-23,47.06-17.8,67.52a6.91,6.91,0,0,0-.28.75c-.07.34,1,3.34,1,4.23.4,30.07,44.6,59.67,59.67,66,2.52,1,4.23,1.71,5.32,2.19a.67.67,0,0,1-.34-.28,17.79,17.79,0,0,1,1.77.75,1.44,1.44,0,0,1,.34.21,1.48,1.48,0,0,1-.68-.28h-.14c-.13-.06-.34-.13-.54-.2.07.07.14.07.2.14a3.93,3.93,0,0,1,1.16.75h.07c.89.68-.07.75-.54,1h-.07a.07.07,0,0,0-.07.07c-.21.13-.21.34.14.68a1.85,1.85,0,0,1,.4.48c-.2-.21-.54-.34-.06.68a2,2,0,0,1,.2.54c-.14-.2-.41-.47.34,1.91.55,1.71,1.09,3.41,1.71,5.05,10.64,30.9,24.41,46.79,46.17,79.38,29.26,43.72,53.33,82,59.74,145.47,5.52,55.11,24.69,127.26,64,175.89,37.65,46.44,109,74.27,159.79,82.18s89.61,5.39,134.69,8.12c0,0,.14.2.48.61v.07c1.16,1.7,4.16,6.27,4.23,6.34A4.93,4.93,0,0,1,1323.75,1576.32Z"/><path class="cls-1" d="M970.18,1027.68c-32.49,42-71,50.69-122.07,40.44"/><path d="M1267,867.45c-30.21-22.81-62.84-26.39-98.66-24.12a10,10,0,0,0-1.46.31c-67.18,19.64-114.34,65.12-108.36,142.35,2.92,37.67,24.63,65.28,53.27,88.54s66.16,30.28,102.56,29.84a15.16,15.16,0,0,0,1.65-.2c75-13.8,128.1-61,114.38-144.73C1323.69,918.63,1297.19,890.27,1267,867.45Zm-52.16,228.71c-.33.06-1.22.18-1.55.19-34.17.57-69.49-6.07-96.38-27.92s-47.16-47.61-50-83c-5.78-72.56,38.18-115.64,101.53-133.84a8.78,8.78,0,0,1,1.37-.3c33.67-2.06,64.83,1.54,93.08,22.94s53,48,59.07,86.15C1334.37,1038.77,1285.24,1083.27,1214.83,1096.16Z"/><path class="cls-28" d="M1069.67,1048.71c-8.65-6.88-15.29-6.34-24.29-9.64-2-5.08-3.64-7.91-10.5-8.55s-16.25.23-24.06-1-15.69,2.77-13.5,11.75c-9.59,2.87-20.7,6.5-22.22,18s8,20.42,19.27,21.73c3.24.37,6.77-.51,10-.82.43,0,1.11-.15,1.62-.24,5.78-1,11.88-2.33,17.47-3.58a10,10,0,0,1,1.46-.37c.32,0-.18-.06.29,0s-.31-.31.78-.14-2-.44,1.43.37,15.57,3.3,21.11,3.75c.52,0,2.12.28,2.89.29,4.93.12,11.42.78,15.93-.89C1081.66,1074.12,1078.32,1055.6,1069.67,1048.71Zm-11.57,27.84c-11.26,1.34-21.29-1.32-31.62-4.69-10,3.32-17.64,4.45-28.79,4.55s-20.72-11.25-15.61-20.62,9.88-8.41,17.41-12c7.13,6.42,15.73,8.65,25.3,8.27,7.93-.32,15.83-3.7,20.22-10.87,8.87,3.52,19.21,4.13,24.72,13.64S1069.36,1075.2,1058.1,1076.55Z"/><path class="cls-28" d="M1025,1074.78c.14-.08-.07-.36.09.77s-.25-2.71.22,1.65,2.16,20.64,3,27.21a5.45,5.45,0,0,1-3.26.9c-1.43.08,2.2.06-1,0s-14.06-2.29-16.33-7.65-2.86-11.88-3.25-17.24c-.07-1-.1-.88,0-1,.43-.35,1-.83,1.46-.59.15.07-.08.17.18,1.37,1.05,4.77,1.53,11.71,4.81,16.19s9.55,5.24,14.75,5c-.42-5.88-1.71-20.11-1.94-24.07s-.22-1-.08-2.11S1024.7,1074.94,1025,1074.78Z"/><path class="cls-28" d="M1051.3,1079.9c.07,0,0-1.11.15,1.06s1.12,7.83,1.33,12.38-6.67,10.14-11.26,11a103.5,103.5,0,0,1-15.73,1.08c-2.46-.13-.79,0-.79,0,.15-.75,1.34-1,1.83-2.06-.46-6.57-1.55-21.6-1.82-26.2s0,.47-.09-1.79c0-.41,0,0,.18.07s1-1.1,1.33-.05c.24.83-.23-2,.21,1.77s1.78,18.22,2.57,24c4.29.94,11.5-.19,14.58-2.09s4.86-3,5.48-6-.86-10.56-.72-12.43-.22-.94,0-1A3.67,3.67,0,0,1,1051.3,1079.9Z"/><path class="cls-28" d="M1258.32,970.17c3.23,14.71-6.42,25.86-20.3,27.39s-26.94-6.76-30.11-21.25,6.17-25.83,19.89-27.41S1255.09,955.47,1258.32,970.17Z"/><path d="M1519.41,1153.22c-2.11.68-6.88.41-8.32-.28a1.8,1.8,0,0,1-.54-.82c-1.77-4.22-5.32-22.43-5.53-23-15.89-55.44-48.62-116.55-80.27-161.29-33.75-47.67-62.81-80.2-106.11-115.94-2.12-1.7-2.94-3.27-6.35-5.18-75.83-41.26-89.06-74-196.14-75.84-82.31-1.36-173.36,6.35-240.4,75.43-2.52,2.59-5,5.32-7.5,8.12a.79.79,0,0,0-.21.27,253.23,253.23,0,0,0-25,33.62c-1.22,1.91-4.91,5.12-5,7.09-1.71-.61-5-2.18-6.07-2.66a1.55,1.55,0,0,0-.34-.13l-.07-.07a394.75,394.75,0,0,1,28.44-37c2.79-3.21,5.66-6.28,8.52-9.28C906,806.7,949.68,782.62,1009.56,770c2.18-.47,3.41-.54,5.11-.81,4.78-.82,9.41-1.37,14-2.05,1.64-.2,3.69-.55,4.71-.68h.41a.24.24,0,0,1,.2-.07c1-.07,3.41-.34,5-.55,7.57-.81,15.75-1.43,23.39-1.7,1.57-.07,3.48-.14,4.84-.21,17.6,0,40.17-.54,56.47-.4,37.85.34,68.07,7.5,101.82,21.75,1.85.75,3.21,1.43,4.85,2.25,8.73,4.3,17.11,8.73,25.57,13.5.34.21.55.28,1.23.69s3.41,2,4,2.38a6.07,6.07,0,0,1,.69.41c7.36,4.44,14.66,9,21.68,13.78,1.64,1.09,3.21,2.25,4.64,3.2,9.28,6.62,18.07,12.83,27.28,19.65,2.18,1.56,5,3.34,7.09,5,43.79,36.08,73.86,69.63,108.1,118.19,32,45.42,66.22,107.69,82.72,163.68.21,1,4.57,18.55,5.8,23.73C1519.28,1152.6,1519.41,1153.08,1519.41,1153.22Z"/><path d="M1484.91,1468.23c-21.35,40.51-58.66,75.84-99.44,94.45-5.32,2.39-2.52,1-4.3,1.64-1.56.62-15.14,4.5-17.66,5.18a2.29,2.29,0,0,0-.41.14c-1-2.25-2.59-4.91-3-7.36l1.09-.35c3.82-1,16.71-4.09,18-4.7,1.57-.68-.69.75,4-1.43,39.49-18.21,75.09-51.49,95.75-90.71,25.85-48.83,34.72-103.66,33.83-153.65-.34-19.85-.68-20.73-2.39-35.53a373.13,373.13,0,0,1-1.91-62.13c.07-.69-.61-14.19-.61-18.83a5.77,5.77,0,0,1,.07-1.56c1.77-1,6.68-.28,7.77.27a.7.7,0,0,1,.21.34c.88,2.45.75,18,.75,18.34-1,21.76-1.23,40.45.82,62.61,1.36,15,1.77,15.62,2.32,35.94C1520.91,1361.91,1511.23,1418.37,1484.91,1468.23Z"/><path d="M1366.1,1587.65a24.11,24.11,0,0,1-1.91,10,12.37,12.37,0,0,1-7.7,6.48,22.54,22.54,0,0,1-9.76.61,17.93,17.93,0,0,1-9-4.23,45.44,45.44,0,0,1-7-7.57,96.1,96.1,0,0,1-5.46-9,54.68,54.68,0,0,1-3.41-7.36,17.51,17.51,0,0,1-1-2.32c-.4-1.09-.75-2.32-1-3.14s-.41-1.29-.61-1.91a1.93,1.93,0,0,1-.14-.61v-.07a186,186,0,0,1-6.07-34c1.23,6.61,2.59,13.09,4.3,19.64a155.6,155.6,0,0,0,6.07,19.16,55.35,55.35,0,0,0,4.43,9,94.49,94.49,0,0,0,5.46,8.46c3.75,4.91,7.84,9.21,13.84,10.37a16.83,16.83,0,0,0,8.25-.41c2.66-.82,4.64-2.12,5.8-4.84,2.46-5.6,1.91-11.8,1.36-17.94a73.87,73.87,0,0,0-1.91-10.78c-.27-1.29-.61-2.38-1-3.82s-.88-3.06-1.36-4.63c-1.91-6.35-4.23-12.76-6.48-19.1,3.41,7.3,6.68,14.66,9.34,22.23.14.35.21.62.34,1,.41,1.23.82,2.39,1.16,3.61.28,1,.55,2,.82,3a77.33,77.33,0,0,1,1.77,8.19A48.88,48.88,0,0,1,1366.1,1587.65Z"/><path class="cls-29" d="M1155.4,1560.64c-2.4,4.9-4.85,9.7-7.73,14.35-.43.7-.68,1.14-1.19,2-4.29,7-9.09,10.56-17.53,9.52s-10.9-2.43-12.58-10.49c-.11-.56-.3-1.53-.35-2.12-.66-8.24,1.66-15.92,4.08-23.69A301.46,301.46,0,0,0,1155.4,1560.64Z"/><path d="M1159.71,1560.32c.15.79,0,.22-.54,1.31a154.16,154.16,0,0,1-8.25,15.33c-.36.59-.67,1.06-1.18,1.87-3.84,6-7.5,10.18-15.06,11.64a21.29,21.29,0,0,1-6.4-.19c-9.8-1.77-13.86-3.76-15.77-13.67-.12-.59-.31-1.56-.36-2.09-.81-8.65,1.69-17.81,4.21-25.47.55-1.66,0-1.26.73-1.9s3.47.22,3.53,1.31-.1.24-.61,2c-2.12,7.07-4.77,15.5-4,23.45.06.57.23,1.58.35,2.13,1.68,8.06,4.14,9.44,12.58,10.49s13.25-2.52,17.53-9.51c.51-.84.78-1.34,1.19-2,2.78-4.34,5.5-10,7.65-14.13.78-1.5.26-1.51,1.1-2.15S1159.56,1559.54,1159.71,1560.32Z"/><path d="M1288.46,821c-1.7,3-.64,2-2,2.79s-4.57-1.71-4.25-3.28-.17.09,1.65-2.69c9.19-14,14.22-33,8-49.16-3.82-10-15.36-14.62-21.68-16-12.94-2.81-24.68,3.42-30.94,9.71-8.33,8.4-8.18,16.23-8.85,24.65-.24,3.07.9,1.83.42,3.21s-3.33,3.08-4.29,1.17-1.26-2.23-.87-6.82c.65-7.64,2.5-17.14,9.65-25.32s22.94-14,34.64-12,21.58,9,26,18.85C1305,786.29,1297.88,804.32,1288.46,821Z"/><path class="cls-30" d="M1294,794.23c.67-4.81-1.5-11.76-3.22-15.79-3.92-9.2-16.09-15.25-23-16.17-14.15-1.88-22.87,2.13-31.51,10-4.21,3.83-3.58,6.81-6.26,11.08,2.56-8.31,1.89-13.56,9.08-20.81a34.47,34.47,0,0,1,31.09-9.9c6.52,1.1,17.81,6.49,21.78,16C1294.78,775.4,1296.68,786.23,1294,794.23Z"/><path class="cls-24" d="M1293.94,794.17c-2,9.21-5.92,16.3-10.4,24.16-6.85-4.65-13.81-9-20.81-13.34-.26-.16-.86-.22-.82-.5a82.53,82.53,0,0,1,3.08-12.66c.13-.42.25-.74.39-1.13,2-5.4,4.45-10.05,8.68-14.05-5.79,2.53-9.39,6.69-12.39,12.14a33.26,33.26,0,0,0-1.93,4.2,54.78,54.78,0,0,0-1.87-6.54,48.62,48.62,0,0,0-4.56-9.25,52.82,52.82,0,0,0-6-7.74,119.58,119.58,0,0,1,6.53,18,33.66,33.66,0,0,1,.94,4.74c.24,2,1.35,6.81.9,8.47-.16.59-1.83-.9-2.81-1.48-6.88-4-15.45-7.49-22.21-11.94-.89-.59-1-1.92-.14-4.39s1.9-7.14,5.84-10.7c8.09-7.33,17.49-12,31.39-9.9,6.78,1,19.2,7,23,16.15C1292.4,782.4,1294.89,789.71,1293.94,794.17Z"/><path d="M1274.05,776.66c-4.08,3.75-6.82,9-8.61,13.94a91.27,91.27,0,0,0-3.61,13.9,14.72,14.72,0,0,1-.41,2.23c-.25.55.51,0-.22.44s-4.32,0-4.86-.82,0,.53-.15-.58,0-3.09-.26-4.85a103.36,103.36,0,0,0-2.12-13.71,121.29,121.29,0,0,0-6.46-17.71,50.41,50.41,0,0,1,6,7.71,48.26,48.26,0,0,1,4.56,9.24,54.78,54.78,0,0,1,1.87,6.54,33.26,33.26,0,0,1,1.93-4.2C1264.67,783.35,1268.28,779.16,1274.05,776.66Z"/><path d="M1046.59,752.31c-2.26,1.92-4.56,6-5.61,8.25s-1.36,3.58-2,5.21-1.11,3.54-1.48,4.56-.06.94-.41,1.37-.76.28-1.31.51a10.29,10.29,0,0,1-2.21.59c-.61.06-1.36.71-1.86.41s-.53-1.13-1-2-1.48-3.1-1.93-4,.19.3-.4-.88a36.31,36.31,0,0,0-2.18-4.7,65.4,65.4,0,0,0-6.28-8.22,22.24,22.24,0,0,1,4.92,2.42,21.94,21.94,0,0,1,4.35,3.7,35.7,35.7,0,0,1,3.12,4.73c.67,1.07.93,1.57,1.22,2.06s0,.14.14.26,0-.17.06-.17,0,0,.06,0c2.55-2.16,2.14-4.94,4.07-7.79A15.29,15.29,0,0,1,1046.59,752.31Z"/><path class="cls-30" d="M1062.5,764.31c-1.18-1.13-3.21,1.09-4-.22-1.63-2.76.11-3.9-2.25-7.89-5.79-9.8-19-12.38-30.51-9.48-4.62,1.16-10.4,3.72-13.92,7.83.26-3.2-.84,2.49-.22-2.78s9-12.63,17.59-14.59,26.1.45,29.72,9.36S1060.88,756.53,1062.5,764.31Z"/><path class="cls-24" d="M1058.42,764.38c-6.22.16-12.1.85-18.23,1.35-.32,0-.88.64-1.28,0s.78-2.24,1.17-2.92.47-1.41.78-2.05a28.53,28.53,0,0,1,5.74-8.48c-3.46.66-7,3.73-8.74,6.3s-2.42,6.22-3.85,7.57c-1.08,1,.12,0-.28.19s.18.33-.22,0a20.14,20.14,0,0,1-1.23-2,40.28,40.28,0,0,0-3.13-4.72,22.71,22.71,0,0,0-9.26-6.12,65.58,65.58,0,0,1,6.26,8.21,25,25,0,0,1,2.15,4.68c.33,1,.66.35.2.76s-2.18.33-3.3.58-2.23.21-3.85.51-4.72.66-6.61,1c-.92-4.95-1.93-9.82-2.88-14.78,3.45-3.73,9.29-6.56,13.89-7.66,11.51-2.76,24.78-.49,30.5,9.54C1058.58,760.34,1057,760.81,1058.42,764.38Z"/><path d="M1067.4,766.44c-.48,1.29-3.71,1.44-4.55.4s-.08-1.19-.39-2.79c-1.47-7.46,0-8.26-3.54-17.63s-21.34-9.9-29.68-9.57-17.57,13.59-17.55,14.4c.23,8.27,2.37,13.16,2.95,17.29s.42,1.8.84,4.78a22.57,22.57,0,0,0-5.07.84c-.41-3.33-.3-.22-.84-4.89s-2.67-8-2.91-17.87c-.06-2.34,10-19.06,21.26-19.4s30.38-.81,35.57,13c3.12,8.3,2.65,11.9,3.7,18.76C1067.51,765.9,1067.89,765.14,1067.4,766.44Z"/><path class="cls-31" d="M1023.57,1076.4c.61,8.44,1.39,16.81,2,25.27-5.25-.26-11.45-.55-14.77-5.24s-3.65-11-4.86-16.4C1011.93,1079,1017.71,1077.72,1023.57,1076.4Z"/><path class="cls-31" d="M1048.59,1080.06c-.27,3.87,1.33,9.35.68,12.84s-2.39,3.91-5.47,6-10.31,2.74-14.57,2.3c-1-8.38-1.82-16.79-2.7-25.18A214,214,0,0,0,1048.59,1080.06Z"/><path class="cls-32" d="M1249.15,871.19c-13.35-10.93-29.17-16-44.77-20.2-11.57-3.09-23.11-.28-34.61.31a8.31,8.31,0,0,0-1.3.26c-63.69,18.28-106.85,61.25-101.69,133.86,2.52,35.44,24.52,61,49.66,83,12.29,10.75,28.89,17.7,44.56,22.37,12,3.57,25.79,2.23,38.23,2.06a12.36,12.36,0,0,0,1.45-.21c70.76-13.41,118.32-57.28,106.81-135.84C1301.88,918.57,1276.12,893.3,1249.15,871.19ZM1238,997.7a23.3,23.3,0,0,1-16.52-3.2c-6-3.42-12.59-9.6-13.85-18.33-2.12-14.69,6.16-24.76,20-27.63a8.36,8.36,0,0,1,2.27-.14c13.28,1.16,25.29,7,28.41,21.84S1252,995.54,1238,997.7Z"/><path class="cls-33" d="M1322,960.29c12.1,78.74-36.63,122.8-107.23,135.88-.34.06-1.1.14-1.45.16a167.24,167.24,0,0,1-52.5-5.23,158.23,158.23,0,0,0,38.39,1.74,13.42,13.42,0,0,0,1.42-.17c70.78-13.5,118.31-57.19,106.82-135.88-5.6-38.31-31.4-63.23-58.33-85.7-13.33-11.12-29.3-14.93-44.69-20.64,20.67,5,41.16,9.38,58.64,23.55C1290.56,896.26,1316.14,922,1322,960.29Z"/><path class="cls-29" d="M1058.1,1076.55c-11.26,1.34-21.29-1.32-31.62-4.69-10,3.32-17.64,4.45-28.79,4.55s-20.72-11.25-15.61-20.62,9.88-8.41,17.41-12c7.13,6.42,15.73,8.65,25.3,8.27,7.93-.32,15.83-3.7,20.22-10.87,8.87,3.52,19.21,4.13,24.72,13.64S1069.36,1075.2,1058.1,1076.55Z"/><path d="M1555.9,1176a10.79,10.79,0,0,1-1.5,5.39,10.55,10.55,0,0,1-4.16,3.82c-10.64,5.53-22.51,7.44-34.37,8.8-2.73.34-5.39.68-8,1-.34.07-.75.07-1.09.14s-.27.07-1.09.2-2.73.48-4.09.69c-4.64.88-9.48,2.11-14.26,3-6.41,1.29-13,2.73-19.43,4.09,6.34-1.77,11.86-4.09,18.34-5.59s7.09-1.91,20.12-4.37h.07c.27,0,.54-.07.95-.07,3.82-.13,15.42-2.11,21.49-3.75s14.05-3.13,19.57-6.68a7.69,7.69,0,0,0,3.07-2.8,7,7,0,0,0,1-4.09c-.07-3.07-.34-5.66-2.18-8.59-3.55-5.87-8.87-9-15.82-10.64a59.41,59.41,0,0,0-11.19-1.16c-3.75-.14-7.84-.07-11.73.07a188.35,188.35,0,0,0-23.19,2.32c-3.75.68-7.43,1.43-11,2.38s-6.68,2.6-10.09,3.89c-6.82,2.52-13.64,5-20.53,7.5,6.48-3.07,13-5.86,19.58-8.86,3.34-1.57,6.2-3.28,9.82-4.5s7.09-2.05,11-2.94,8.46-1.63,12.76-2.18c1.36-.14,2.52-.34,4.29-.48s4.16-.34,6.21-.41h.07c2.86-.13,5.73-.34,8.59-.34,1.09,0,2.25,0,3.34.07a67.21,67.21,0,0,1,12.21,1.16c7.91,1.91,14.6,5.53,18.76,12.55C1555.49,1169,1555.9,1172.18,1555.9,1176Z"/><path class="cls-34" d="M1312.05,1526.92c2.57,14.17,1.53,26.93,6.67,41-45.65-.41-83.85,0-134.67-7.88s-120.59-37-159.16-80.51c36.74,20.58,76.56,39.3,119.45,45C1193.74,1531.16,1262.59,1529.3,1312.05,1526.92Z"/><path class="cls-34" d="M1450.84,1070.73c-44.94-109.26-115.19-191.28-204.53-267.35,22.8,13.08,44.34,27.8,65.54,43.38,2.34,1.72,5,3.4,7.05,5.11,42.7,35.68,72,68.46,105.86,115.92,47.52,66.65,72.55,128.88,88.21,184.07-8.21,1.42-16.85,2.69-25.06,4.53-3.83.85-7.54,1.69-11.18,2.63C1470.32,1137,1459.68,1092.24,1450.84,1070.73Z"/><path class="cls-34" d="M1512.74,1311.42c.71,50.12-7.72,104.67-33.88,153.74-20.88,39.15-66.74,89.45-117.33,97.7a337.06,337.06,0,0,0-17.13-39.27c28.81-21.78,65.21-40,88.86-73.29s48.48-87.28,47.5-135.41c-.59-29,.15-83.42-.6-113.3a1.93,1.93,0,0,1,1.06-.32c9.44-1.94,18.72-4.17,28.2-6-1,21.54-1.48,58.94.93,80.64C1512,1290.74,1512.46,1291.58,1512.74,1311.42Z"/><path d="M956.63,877.42c-22-21.55-51.21-30.08-80.88-31.17-1-.07-2-.14-3.07-.14-1.43-.06-2.8,0-4.23.07-11.66.41-23.05,3.82-34,7.37a57.18,57.18,0,0,0-11.93,5.32c-40.17,24.21-61,58.72-62.2,108.43a61.37,61.37,0,0,0,1.29,12.62c5.46,28.65,17.53,50,38.47,69,12.89,11.73,30.48,20.73,45.76,25.51h.07q4.18,1.32,8.39,2.45c12.27,3.27,24.34,5,36.28,3.21,64.24-9.89,108.1-51.83,106.19-122.69C995.85,923.18,979.34,899.65,956.63,877.42Zm31.92,92.07c-2.11,21.68-8.25,40.1-18,55.17-1,1.36-1.91,2.73-2.8,4-13.37,18.35-32.6,31.17-57,38-1.7.48-3.47,1-5.25,1.43a157.75,157.75,0,0,1-16.77,3,85.85,85.85,0,0,1-24.76-.61.61.61,0,0,0-.34-.07,94.14,94.14,0,0,1-12.14-2.86c-.82-.21-1.57-.48-2.39-.75a.24.24,0,0,0-.13-.07c-1.57-.48-3.07-1-4.57-1.57a9.22,9.22,0,0,1-1.5-.61h-.07c-13.57-5.25-26.46-13.17-38.06-22.24-1.63-1.29-3.2-2.59-4.7-4-1.71-1.57-3.35-3.14-4.85-4.71a89.85,89.85,0,0,1-15.95-22.91,8.15,8.15,0,0,1-.62-1.37,128.28,128.28,0,0,1-9.61-29.53v-.47c-.21-4.23-1.44-8.32-1.3-12.62.82-27.55,6.41-51.29,23.94-72.63.2-.21.27-.28.2-.28a124.26,124.26,0,0,1,11.6-12.14,11.44,11.44,0,0,1,1-.81,104.28,104.28,0,0,1,50.61-24.56c1.22-.27,2.52-.47,3.81-.68l1-.2a5.11,5.11,0,0,1,1-.14c2.39-.27,4.71-.54,7.09-.68,1.57-.21,3.21-.27,4.85-.34a106,106,0,0,1,34.71,4.36h.07A117.42,117.42,0,0,1,951.31,883c1.37,1.23,2.73,2.46,4,3.68s2.52,2.59,3.68,3.89a102.88,102.88,0,0,1,19.51,29.33,148.81,148.81,0,0,1,10.29,34.16,4.24,4.24,0,0,1,.21.89,21.25,21.25,0,0,1,.2,2.18c-.06,4.16-.27,8.19-.68,12.14C988.62,969.35,988.55,969.42,988.55,969.49Z"/><path class="cls-32" d="M938.25,878.57c-10-9.54-21.37-15.51-33.42-21.25l-.27-.07c-10.49-2.17-21.16-4.11-31.85-3.33-32.23,2.38-59.39,15.09-81,39.48-5,7.44,7-9.22-2.1,4s-25.55,56.47-20.32,81.76c0,0-.21.64-.2.75,4.35,26.38,16.86,45.27,35.29,62.68,10,9.49,25.77,19.36,36,21.62,7.67,1.69-5-.12,2.57.37s21.48,4.77,32.4,2.93c59.9-10.1,98.84-47.3,99.88-114.67a14.14,14.14,0,0,0-.19-2.18C970.21,921.27,959,898.49,938.25,878.57Zm-27.9,106.07a22.75,22.75,0,0,1-15.35-4.7c-4.8-3.67-9.58-9.12-9.8-16.64-.38-13.24,9.27-20.52,21.15-21.7a5.38,5.38,0,0,1,.9,0c11.64,1.52,21.63,7.58,23.19,21.07S922.5,984,910.35,984.64Z"/><path class="cls-33" d="M989,954.94a14,14,0,0,1,.2,2.18c-1.19,67.72-39,104.56-100.2,114.54-16,2.6-31.91-2.85-47.26-6.92,10.91,1.4,22.19,4.71,33.29,2.82,60.86-10.4,98.73-47.28,100.2-114.78a15.34,15.34,0,0,0-.21-2.17c-4.79-29.35-16-52.11-36.77-72-10-9.56-21.41-15.46-33.38-21.3C921.93,863,938,870.15,951.57,883,972.56,902.86,984,925.56,989,954.94Z"/><path class="cls-28" d="M930.45,962.63c1.59,13.17-8.05,21.81-20.07,21.91s-23.68-7.77-25-21.06,9.31-21.43,21-21.56S928.86,949.45,930.45,962.63Z"/></g></g></svg>