<svg width="29" height="39" viewBox="0 0 29 39" fill="none" xmlns="http://www.w3.org/2000/svg">
<path d="M0.355731 0H2.96443C3.14229 0 3.32016 0.22876 3.32016 0.45752V38.1267C3.32016 38.3554 3.14229 38.5842 2.96443 38.5842H0.355731C0.177866 38.5842 0 38.4317 0 38.1267V0.45752C0 0.22876 0.177866 0 0.355731 0Z" fill="#17204E"/>
<path d="M6.6758 0H9.2845C9.46236 0 9.64023 0.22876 9.64023 0.45752V38.1267C9.64023 38.3554 9.46236 38.5842 9.2845 38.5842H6.6758C6.49793 38.5842 6.32007 38.3554 6.32007 38.1267V0.45752C6.37936 0.22876 6.49793 0 6.6758 0Z" fill="#17204E"/>
<path d="M12.9961 0H15.6048C15.7827 0 15.9605 0.22876 15.9605 0.45752V38.1267C15.9605 38.3554 15.7827 38.5842 15.6048 38.5842H12.9961C12.8182 38.5842 12.6404 38.3554 12.6404 38.1267V0.45752C12.6404 0.22876 12.8182 0 12.9961 0Z" fill="#17204E"/>
<path d="M19.3162 0H21.9249C22.1027 0 22.2806 0.22876 22.2806 0.45752V38.1267C22.2806 38.3554 22.1027 38.5842 21.9249 38.5842H19.3162C19.1383 38.5842 18.9604 38.3554 18.9604 38.1267V0.45752C18.9604 0.22876 19.1383 0 19.3162 0Z" fill="#17204E"/>
<path d="M25.6365 14.9839H28.2452C28.4231 14.9839 28.6009 15.2126 28.6009 15.4414V23.143C28.6009 23.3718 28.4231 23.6005 28.2452 23.6005H25.6365C25.4586 23.6005 25.2808 23.3718 25.2808 23.143V15.4414C25.2808 15.2126 25.4586 14.9839 25.6365 14.9839Z" fill="#17204E"/>
</svg>
