<svg width="24" height="22" viewBox="0 0 20 18" fill="none" xmlns="http://www.w3.org/2000/svg">
<path d="M12.7123 16.5V13.5C12.8219 12.5605 12.539 11.6176 11.9248 10.875C14.2873 10.875 16.6498 9.375 16.6498 6.75C16.7128 5.8125 16.4372 4.89 15.8623 4.125C16.0828 3.2625 16.0828 2.3625 15.8623 1.5C15.8623 1.5 15.0748 1.5 13.4998 2.625C11.4208 2.25 9.27884 2.25 7.19984 2.625C5.62484 1.5 4.83734 1.5 4.83734 1.5C4.60109 2.3625 4.60109 3.2625 4.83734 4.125C4.26394 4.88691 3.98563 5.81459 4.04984 6.75C4.04984 9.375 6.41234 10.875 8.77484 10.875C8.46771 11.2425 8.23934 11.6625 8.10546 12.1125C7.97159 12.5625 7.93221 13.035 7.98734 13.5V16.5" stroke="#17204E" stroke-width="2" stroke-linecap="round" stroke-linejoin="round"/>
<path d="M7.98735 13.5C4.43573 15 4.04985 12 2.47485 12" stroke="#17204E" stroke-width="2" stroke-linecap="round" stroke-linejoin="round"/>
</svg>
