<svg width="24" height="22" viewBox="0 0 20 18" fill="none" xmlns="http://www.w3.org/2000/svg">
<g clip-path="url(#clip0_49_6534)">
<path d="M18.2249 9.96742L15.6026 2.46742C15.5796 2.4136 15.5414 2.36687 15.4923 2.33242C15.4458 2.28739 15.3848 2.25837 15.3191 2.24992C15.2544 2.24882 15.191 2.26719 15.1379 2.30242C15.0888 2.33687 15.0507 2.3836 15.0277 2.43742L13.2479 7.43992H7.45194L5.70369 2.44492C5.68961 2.39439 5.66255 2.348 5.62494 2.30992C5.5668 2.26654 5.49388 2.24517 5.42019 2.24992C5.35552 2.24882 5.29213 2.26719 5.23907 2.30242C5.18995 2.33687 5.15179 2.3836 5.12882 2.43742L2.47494 9.96742C2.43652 10.0792 2.43641 10.1998 2.47463 10.3117C2.51285 10.4236 2.58742 10.521 2.68757 10.5899L10.3499 15.7499L17.9808 10.5899C18.0896 10.5279 18.173 10.4325 18.2173 10.3194C18.2617 10.2063 18.2644 10.0822 18.2249 9.96742Z" stroke="#17204E" stroke-width="2" stroke-linecap="round" stroke-linejoin="round"/>
</g>
<defs>
<clipPath id="clip0_49_6534">
<rect width="18.9" height="18" fill="white" transform="translate(0.899902)"/>
</clipPath>
</defs>
</svg>
