<svg width="24" height="24" viewBox="0 0 18 18" fill="none" xmlns="http://www.w3.org/2000/svg">
<path d="M7.6527 10.7626C7.65282 10.7626 7.65293 10.7626 7.653 10.7627L7.65545 10.7662C7.65713 10.7686 7.65746 10.7717 7.65634 10.7744L7.13738 12.0279C7.01828 12.3156 6.66591 12.4265 6.43255 12.2204C6.09638 11.9235 5.81421 11.5704 5.5987 11.1771C5.44888 10.9037 5.63541 10.5841 5.9428 10.532L7.28379 10.3047C7.28524 10.3045 7.28671 10.305 7.28763 10.3062C7.28856 10.3073 7.29006 10.3079 7.29152 10.3076C7.34948 10.2974 7.40913 10.3029 7.46429 10.3235C7.5202 10.3444 7.5694 10.3801 7.60665 10.4267C7.6439 10.4733 7.6678 10.5292 7.67581 10.5883C7.6838 10.6473 7.67569 10.7073 7.65236 10.7621C7.65226 10.7623 7.65243 10.7626 7.6527 10.7626ZM7.02739 9.16922C7.02785 9.16713 7.02944 9.16547 7.0315 9.16488C7.08774 9.14884 7.13873 9.11814 7.17922 9.07589C7.22053 9.03281 7.24937 8.97933 7.26268 8.92115C7.276 8.86296 7.27328 8.80226 7.25483 8.7455C7.23681 8.69008 7.20445 8.64044 7.16106 8.60162C7.1591 8.59987 7.15818 8.59724 7.15865 8.59466C7.15911 8.59212 7.15822 8.58952 7.15629 8.5878L6.13472 7.67406C5.90236 7.46623 5.53626 7.51959 5.41608 7.80724C5.24146 8.22522 5.14181 8.67082 5.12175 9.1234C5.10801 9.43327 5.41367 9.63773 5.7117 9.55178L7.02334 9.17352C7.02538 9.17293 7.02693 9.17128 7.02739 9.16922ZM7.88538 7.68195C7.88628 7.68128 7.88751 7.68127 7.88842 7.68193C7.93635 7.71649 7.9927 7.73756 8.05157 7.7429C8.11107 7.74831 8.17092 7.73746 8.22474 7.71152C8.27856 7.68557 8.32432 7.6455 8.35715 7.59558C8.38921 7.54684 8.40775 7.49049 8.41094 7.43229C8.41108 7.42969 8.41259 7.42734 8.41492 7.42618C8.41722 7.42503 8.41873 7.42274 8.41888 7.42017L8.49712 6.05364C8.51487 5.74347 8.24689 5.49062 7.94752 5.57369C7.51062 5.69492 7.09842 5.89228 6.73002 6.15659C6.47709 6.33807 6.5068 6.70621 6.7607 6.88632L7.88237 7.68199C7.88328 7.68263 7.88449 7.68262 7.88538 7.68195ZM8.40309 9.50946C8.4371 9.65729 8.53639 9.78169 8.673 9.84764L8.78226 9.90038C8.91931 9.96653 9.07904 9.96667 9.2162 9.90075L9.32407 9.84891C9.46095 9.78312 9.56052 9.65867 9.59467 9.51068L9.62112 9.3961C9.65555 9.24689 9.61971 9.09013 9.52387 8.97071L9.45076 8.87961C9.35585 8.76137 9.21243 8.69257 9.06081 8.69257H8.93747C8.78585 8.69257 8.64243 8.76137 8.54753 8.87961L8.47429 8.97087C8.37852 9.0902 8.34266 9.24682 8.37697 9.39593L8.40309 9.50946ZM9.58113 7.42169C9.5816 7.42192 9.5819 7.42239 9.58193 7.42291C9.58461 7.48237 9.60331 7.54 9.63608 7.5897C9.669 7.63964 9.71487 7.67969 9.76879 7.70557C9.82271 7.73145 9.88265 7.74219 9.9422 7.73664C10.0007 7.73119 10.0566 7.71024 10.1043 7.67597C10.1059 7.67479 10.108 7.6745 10.1099 7.67521C10.1118 7.6759 10.1139 7.67563 10.1155 7.67448L11.225 6.88782C11.4794 6.70748 11.5088 6.33862 11.2552 6.15718C10.8916 5.89705 10.4859 5.70147 10.0559 5.57912C9.75591 5.49374 9.48562 5.74675 9.50324 6.05819L9.58034 7.42049C9.58037 7.421 9.58068 7.42146 9.58113 7.42169ZM17.7389 11.8996L13.4091 17.2853C13.2963 17.4248 13.1537 17.5373 12.9917 17.6144C12.8297 17.6915 12.6525 17.7312 12.4731 17.7308L5.52739 17.7331C5.348 17.7332 5.17086 17.6931 5.00901 17.6158C4.84716 17.5384 4.70471 17.4257 4.59214 17.2861L0.260141 11.9011C0.148679 11.7616 0.0700916 11.5989 0.0302275 11.4249C-0.00963655 11.2509 -0.00975143 11.0701 0.0298914 10.8961L1.57489 4.17982C1.65589 3.82732 1.89364 3.53182 2.22214 3.37507L8.47864 0.384819C8.64081 0.307316 8.81828 0.26709 8.99802 0.26709C9.17776 0.26709 9.35522 0.307316 9.51739 0.384819L15.7761 3.37357C16.1046 3.53032 16.3424 3.82657 16.4234 4.17832L17.9699 10.8946C18.0509 11.2471 17.9661 11.6168 17.7389 11.8996ZM15.2721 10.3568C15.2406 10.3493 15.1949 10.3373 15.1634 10.3313C15.0329 10.3066 14.9271 10.3126 14.8041 10.3028C14.5416 10.2751 14.3256 10.2526 14.1329 10.1918C14.0738 10.1693 14.0274 10.111 13.9965 10.0671C13.9797 10.0431 13.9556 10.0253 13.9275 10.0171C13.8658 9.99897 13.8268 9.93846 13.8341 9.87459C13.8967 9.32756 13.8654 8.77358 13.7414 8.23657C13.618 7.6979 13.4036 7.18458 13.1076 6.71866C13.0692 6.65827 13.0885 6.57077 13.1417 6.52295C13.1675 6.49975 13.1731 6.47598 13.1761 6.44141C13.1806 6.39064 13.1912 6.33833 13.2426 6.28357C13.3904 6.14482 13.5756 6.03007 13.7999 5.89207C13.9064 5.82907 14.0046 5.78932 14.1111 5.71057C14.1351 5.69257 14.1681 5.66407 14.1936 5.64382C14.3736 5.50057 14.4149 5.25382 14.2859 5.09182C14.1569 4.92982 13.9064 4.91482 13.7271 5.05807C13.7016 5.07832 13.6671 5.10457 13.6439 5.12407C13.5434 5.21107 13.4811 5.29657 13.3964 5.38657C13.2119 5.57407 13.0589 5.73007 12.8916 5.84332C12.8388 5.87384 12.7681 5.87466 12.715 5.87167C12.6822 5.86983 12.6498 5.87844 12.623 5.89744C12.565 5.9387 12.4856 5.93087 12.4351 5.88056C11.6516 5.0988 10.6265 4.60471 9.52663 4.4788C9.46113 4.4713 9.40976 4.41824 9.40622 4.3524C9.4044 4.31862 9.38928 4.28734 9.36472 4.26409C9.32741 4.22878 9.29228 4.18751 9.28114 4.11232C9.26464 3.91132 9.29239 3.69457 9.32389 3.43357C9.34114 3.31132 9.36964 3.21007 9.37489 3.07732C9.37564 3.04732 9.37414 3.00307 9.37414 2.97082C9.37414 2.74132 9.20614 2.55457 8.99914 2.55457C8.79289 2.55457 8.62489 2.74132 8.62489 2.97082L8.62564 2.98132C8.62564 3.01207 8.62414 3.05032 8.62564 3.07732C8.63014 3.21007 8.65864 3.31132 8.67589 3.43357C8.7051 3.67562 8.73045 3.87961 8.72081 4.06888C8.71931 4.0983 8.71456 4.12764 8.70347 4.15493C8.68636 4.19708 8.66232 4.23607 8.63239 4.27028C8.61083 4.29492 8.59535 4.32494 8.59349 4.35763C8.58999 4.41906 8.54168 4.46832 8.48047 4.4746C7.36651 4.58907 6.3271 5.08812 5.54121 5.8857C5.49564 5.93195 5.42331 5.93989 5.37058 5.90201C5.3431 5.88227 5.30927 5.87424 5.27576 5.87891C5.22454 5.88605 5.17045 5.88783 5.10514 5.84932C4.93789 5.73682 4.78489 5.58082 4.60039 5.39332C4.51564 5.30332 4.45414 5.21782 4.35364 5.13157C4.33114 5.11207 4.29589 5.08507 4.27039 5.06557C4.19624 5.00546 4.10475 4.97076 4.00939 4.96657C3.95276 4.96356 3.89622 4.97395 3.84436 4.99688C3.7925 5.01982 3.74677 5.05465 3.71089 5.09857C3.58189 5.26057 3.62314 5.50807 3.80314 5.65132L3.80839 5.65507L3.88639 5.71732C3.99289 5.79607 4.09039 5.83657 4.19689 5.89882C4.42114 6.03757 4.60639 6.15232 4.75414 6.29032C4.79651 6.33604 4.81319 6.40745 4.82204 6.4602C4.82704 6.48998 4.84143 6.5173 4.86395 6.53743C4.91282 6.58111 4.92194 6.65399 4.88687 6.70937C4.29044 7.651 4.03682 8.76962 4.16878 9.87634C4.17677 9.94335 4.13586 10.007 4.07102 10.0257C4.04317 10.0337 4.01879 10.0506 4.00122 10.0736C3.96319 10.1235 3.916 10.1811 3.86689 10.2008C3.67414 10.2616 3.45739 10.2833 3.19564 10.3111C3.07264 10.3216 2.96689 10.3156 2.83564 10.3403C2.80841 10.3455 2.76963 10.355 2.73771 10.3624C2.7365 10.3627 2.73533 10.3631 2.73421 10.3637C2.73333 10.3641 2.73242 10.3645 2.73147 10.3647L2.72764 10.3658C2.50639 10.4191 2.36464 10.6223 2.41039 10.8218C2.45614 11.0221 2.67214 11.1436 2.89414 11.0956C2.89764 11.0951 2.90109 11.0943 2.90447 11.0933L2.90689 11.0926L3.00364 11.0708C3.13114 11.0363 3.22414 10.9861 3.33964 10.9418C3.58714 10.8533 3.79264 10.7791 3.99214 10.7498C4.05469 10.7448 4.11973 10.7759 4.16683 10.8021C4.19374 10.817 4.22466 10.8228 4.25499 10.8176C4.32153 10.8062 4.38612 10.8455 4.40844 10.9092C4.77508 11.9553 5.48739 12.8452 6.42763 13.4321C6.48642 13.4688 6.51124 13.5424 6.4848 13.6065C6.47106 13.6397 6.47141 13.6768 6.48224 13.7111C6.49906 13.7644 6.51028 13.8237 6.49639 13.8698C6.42364 14.0588 6.29914 14.2576 6.15739 14.4796C6.08914 14.5816 6.01864 14.6611 5.95639 14.7788C5.94139 14.8066 5.92264 14.8501 5.90839 14.8793C5.81239 15.0856 5.88289 15.3226 6.06814 15.4118C6.25394 15.5017 6.48465 15.4068 6.58532 15.201C6.58553 15.2005 6.58564 15.2001 6.58564 15.1996C6.58564 15.1991 6.58576 15.1986 6.58599 15.1981C6.60094 15.169 6.62023 15.1311 6.63214 15.1036C6.68464 14.9821 6.70264 14.8778 6.74014 14.7601C6.83914 14.5111 6.89389 14.2501 7.03039 14.0873C7.05678 14.0557 7.0943 14.0381 7.13643 14.0245C7.17137 14.0132 7.20165 13.9904 7.21938 13.9583C7.25204 13.899 7.3234 13.8732 7.38711 13.8959C8.4341 14.2703 9.57834 14.2727 10.627 13.9027C10.6881 13.8811 10.7564 13.906 10.7878 13.9628C10.8038 13.9917 10.8303 14.0129 10.8618 14.0229C10.9115 14.0387 10.9619 14.0605 11.0046 14.1241C11.1066 14.2981 11.1764 14.5043 11.2611 14.7541C11.2986 14.8711 11.3166 14.9753 11.3699 15.0968C11.3819 15.1246 11.4021 15.1643 11.4164 15.1936C11.5161 15.4006 11.7479 15.4951 11.9339 15.4051C12.1191 15.3166 12.1896 15.0788 12.0936 14.8726C12.0786 14.8433 12.0599 14.8006 12.0449 14.7721C11.9826 14.6551 11.9121 14.5763 11.8439 14.4736C11.7014 14.2516 11.5844 14.0678 11.5116 13.8788C11.4912 13.8125 11.501 13.7635 11.5167 13.7192C11.5301 13.6811 11.5326 13.6484 11.5177 13.6108C11.4968 13.5581 11.5142 13.4855 11.5624 13.4556C12.5181 12.8626 13.2394 11.9573 13.6038 10.8935C13.6241 10.8344 13.6936 10.7991 13.755 10.8105C13.7887 10.8168 13.8133 10.8075 13.8418 10.7884C13.8844 10.76 13.9323 10.7353 14.0076 10.7408C14.2071 10.7701 14.4126 10.8443 14.6601 10.9328C14.7756 10.9778 14.8679 11.0288 14.9961 11.0626C15.0231 11.0701 15.0621 11.0768 15.0936 11.0836L15.0954 11.0841C15.0987 11.0853 15.1021 11.0861 15.1056 11.0866C15.3284 11.1346 15.5436 11.0131 15.5894 10.8128C15.6344 10.6133 15.4934 10.4101 15.2721 10.3568ZM12.2999 7.27573C12.2999 7.27579 12.2999 7.27584 12.2998 7.27588L10.8388 8.58408C10.8379 8.58487 10.8374 8.58599 10.8374 8.58717C10.8374 8.58838 10.8369 8.58952 10.836 8.59031C10.7915 8.62934 10.7583 8.6796 10.7399 8.73586C10.7214 8.79272 10.7186 8.85356 10.7319 8.91187C10.7452 8.97019 10.7742 9.02378 10.8156 9.06693C10.8561 9.10912 10.9071 9.13977 10.9633 9.15576C10.9657 9.15643 10.9676 9.15825 10.9683 9.1606C10.969 9.16292 10.9708 9.16472 10.9731 9.16539L12.2864 9.54388C12.5867 9.63044 12.8939 9.42211 12.8762 9.11002C12.8638 8.88973 12.8326 8.67053 12.7829 8.45482C12.6876 8.03799 12.5246 7.63963 12.3002 7.27564C12.3001 7.27547 12.2999 7.27554 12.2999 7.27573ZM9.29393 11.2696C9.2916 11.2696 9.28946 11.2683 9.28835 11.2662C9.25939 11.2131 9.21628 11.169 9.16376 11.1388C9.11015 11.108 9.04892 11.093 8.98714 11.0956C8.92941 11.0977 8.87325 11.115 8.82429 11.1457C8.77555 11.1762 8.73563 11.2189 8.7085 11.2697C8.70828 11.2701 8.70785 11.2703 8.70738 11.2703C8.70693 11.2703 8.7065 11.2706 8.70628 11.271L8.04468 12.4669C7.894 12.7392 8.02682 13.0838 8.33336 13.1379C8.77579 13.2159 9.22853 13.2164 9.67112 13.1393C9.97812 13.0858 10.1115 12.7409 9.96063 12.4682L9.29944 11.2728C9.29833 11.2708 9.29622 11.2696 9.29393 11.2696ZM10.7077 10.2979C10.7067 10.2991 10.7052 10.2996 10.7038 10.2994C10.6358 10.2874 10.5659 10.297 10.5036 10.3268C10.4266 10.3636 10.3668 10.4289 10.3368 10.5089C10.3071 10.5884 10.3091 10.6761 10.3424 10.7541C10.3429 10.7552 10.3427 10.7564 10.342 10.7573C10.3413 10.7583 10.3412 10.7595 10.3416 10.7605L10.8701 12.0363C10.9892 12.3237 11.3411 12.4346 11.5744 12.2289C11.9154 11.9282 12.2008 11.5696 12.4171 11.1697C12.565 10.8963 12.3783 10.5785 12.0719 10.5267L10.7115 10.2965C10.71 10.2962 10.7086 10.2968 10.7077 10.2979Z" fill="#17204E"/>
</svg>
