<svg width="30" height="30" viewBox="0 0 30 30" fill="none" xmlns="http://www.w3.org/2000/svg">
<path d="M29.3438 5.03878C28.8825 5.05503 29.0163 5.26253 28.0188 5.50878C27.0125 5.75628 25.7937 5.60503 24.7112 6.06003C21.8775 7.24753 21.4188 11.84 18.0425 13.6163C15.83 14.8663 13.5725 15.1525 11.555 15.785C9.93625 16.435 8.92875 16.865 7.74125 17.8888C6.82 18.6825 6.595 19.4538 5.6325 20.4513C4.655 21.7788 0.9525 20.5988 0 22.2638C0.5025 22.5888 0.7925 22.6788 1.675 22.5638C1.4925 22.9088 0.3325 23.3638 0.5425 23.8738C0.5425 23.8738 3.34875 24.385 5.71375 22.9575C6.81625 22.5088 7.85125 21.5588 9.56375 21.3313C11.785 21.0363 14.2863 21.7975 16.97 22.0113C16.415 23.1075 15.8425 23.755 15.2313 24.66C15.0413 24.8638 15.3938 25.0438 16.0438 24.9213C17.215 24.6313 18.0625 24.3175 18.905 23.735C20.0025 22.9775 20.475 22.285 21.4013 21.1863C22.2063 22.4763 25.0437 22.7613 25.6262 21.645C24.5425 21.1863 24.3113 18.7988 24.6825 17.7688C25.12 16.7863 25.4363 15.3988 25.79 14.1088C26.11 12.9463 26.3062 11.1725 26.6875 10.265C27.1438 9.13628 28.0287 8.78378 28.6938 8.18503C29.3587 7.58628 30.0187 7.08753 30 5.71753C29.9925 5.27253 29.7625 5.02628 29.3438 5.03878ZM28.6275 5.59503C28.74 5.97878 28.9163 6.15503 29.6787 6.22503C29.5675 7.19253 28.9212 7.72003 28.2 8.22753C27.5637 8.67253 26.8675 9.10253 26.42 9.80003C25.9613 10.5125 25.2312 12.5875 24.52 14.9988C23.905 17.0838 23.1887 18.5075 21.675 19.7575C21.4875 19.3075 21.8875 19.0475 21.7125 18.6363C21.4938 19.2563 21.015 20.1588 20.7262 20.7113C19.7762 22.5288 18.2025 23.9988 15.85 24.4138C16.9662 22.9013 18.0837 21.235 18.22 18.63C17.72 18.7388 17.68 20.085 16.8725 20.58C16.3538 20.6363 15.6287 20.5175 14.9062 20.43C12.7488 20.1763 10.575 20.0775 8.5475 20.73C7.16625 21.1713 5.6025 22.5388 4.4325 23.0463C3.0575 23.6438 2.58625 23.69 0.84625 23.6375C0.62875 23.345 2.09875 22.9675 2.01625 22.3288C1.34625 22.2563 0.95625 22.4175 0.37375 22.1538C0.441896 22.0333 0.537376 21.9306 0.6525 21.8538C1.72 21.1163 4.75 21.6788 5.56125 20.8825C6.0625 20.3925 6.39 19.8775 6.73 19.3775C7.06125 18.8925 7.4025 18.4213 7.92125 17.9963C8.11375 17.84 8.41375 17.57 8.635 17.4175C9.52125 16.8125 10.5225 16.3788 11.6012 16.0013C13.0688 15.485 14.5525 15.3113 16.1175 14.7138C17.085 14.3438 18.0025 13.9938 18.8587 13.3538C19.0613 13.2025 19.3675 12.9463 19.5462 12.7725C22.3213 10.0325 22.4975 6.30128 26.315 5.91003C26.7775 5.86253 27.155 5.87753 27.5 5.86753C27.8962 5.85503 28.2463 5.80878 28.6275 5.59503ZM28.44 5.84128C28.4188 5.84128 28.3787 5.86003 28.3237 5.91128C27.9925 6.25128 27.3363 7.01628 27.0988 7.72878C27.0363 7.92253 27.1588 7.86628 27.2013 7.74128C27.4375 7.01128 28.1863 6.20878 28.415 5.96628C28.4713 5.90128 28.4788 5.84253 28.44 5.84128ZM28.54 6.00753C28.5188 6.01003 28.4825 6.03503 28.435 6.09378C28.155 6.47628 27.6138 7.05628 27.4775 7.79378C27.4438 7.99378 27.5575 7.92253 27.58 7.79253C27.7125 7.03628 28.34 6.40503 28.5337 6.13378C28.58 6.06128 28.5775 6.00253 28.54 6.00753ZM28.6625 6.15753C28.6413 6.16253 28.6075 6.19003 28.5662 6.25253C28.3175 6.65878 27.9912 7.12628 27.9175 7.87128C27.9012 8.07378 28.0087 7.99253 28.0212 7.86128C28.0863 7.09628 28.495 6.57128 28.665 6.28378C28.705 6.20878 28.7 6.14878 28.6625 6.15753ZM28.7963 6.27128C28.7738 6.27753 28.7437 6.30878 28.7075 6.37378C28.4963 6.79878 28.2975 7.12378 28.29 7.87378C28.2925 8.07753 28.39 7.98628 28.3912 7.85503C28.3912 7.08753 28.6663 6.69878 28.81 6.39753C28.8425 6.31878 28.8325 6.25878 28.7963 6.27128ZM26.2162 6.63878C25.5588 6.65503 25.17 6.94128 25.0438 7.48878C25.5837 7.95753 26.7162 7.58128 26.515 6.64878C26.4153 6.64004 26.3164 6.6367 26.2162 6.63878Z" fill="#17204E"/>
</svg>
