<svg width="30" height="30" viewBox="0 0 30 30" fill="none" xmlns="http://www.w3.org/2000/svg">
<path d="M5.90498 3.1312C5.90498 3.1312 5.80498 3.28995 5.89998 3.52495C5.95748 3.66995 6.13248 3.84495 6.32498 4.02995C6.32498 4.02995 8.34373 5.99995 8.59123 6.28495C9.70998 7.5762 10.1962 8.84745 10.2412 10.6012C10.2687 11.7262 10.0525 12.7162 9.52498 13.8675C8.57998 15.9287 6.58748 18.2025 3.51248 20.73L3.96248 20.58C4.25373 20.3637 4.64748 20.1312 5.57748 19.6225C7.71873 18.4525 10.1225 17.375 13.0762 16.265C17.325 14.6687 24.3137 12.795 28.2912 12.1862L28.705 12.1225L28.6425 12.0225C28.2775 11.4575 28.03 11.1087 27.73 10.7387C26.8587 9.65995 25.8025 8.77995 24.5087 8.0562C22.7312 7.05995 20.425 6.2862 17.5087 5.7062C16.5984 5.53503 15.6854 5.37876 14.77 5.23745C13.1325 4.98632 11.4974 4.71965 9.86498 4.43745C9.33373 4.3437 8.53998 4.2112 8.01373 4.09745C7.6079 4.01123 7.20692 3.90358 6.81248 3.77495C6.47748 3.6437 6.00623 3.5162 5.90498 3.1312ZM7.07498 4.26745C7.07873 4.26495 7.15373 4.2887 7.24623 4.31995C7.41623 4.37745 7.64123 4.44495 7.90373 4.5187C8.08623 4.5687 8.28748 4.6237 8.50248 4.67745C8.77498 4.74745 9.00123 4.80745 9.00373 4.8112C9.03373 4.84495 9.49248 6.3087 9.64873 6.86995C9.70873 7.08495 9.75373 7.2637 9.74998 7.26745C9.70641 7.21325 9.6687 7.15459 9.63748 7.09245C9.10748 6.15995 8.26623 5.2112 7.29498 4.44745C7.21947 4.39016 7.14609 4.33012 7.07498 4.26745ZM9.31248 4.88495C9.33498 4.8837 9.43623 4.89995 9.55623 4.92745C10.33 5.09745 11.7125 5.36495 12.6 5.51495C12.7487 5.53995 12.87 5.56495 12.87 5.5737C12.8338 5.60621 12.7924 5.6324 12.7475 5.6512C12.5987 5.7262 11.995 6.08745 11.7937 6.22245C11.29 6.55995 10.8362 6.9212 10.5062 7.2487C10.4262 7.33078 10.3441 7.41081 10.26 7.4887C10.2562 7.4887 10.2325 7.4112 10.2087 7.31745C9.99646 6.5561 9.7248 5.81257 9.39623 5.0937C9.36323 5.02647 9.33361 4.95764 9.30748 4.88745C9.30748 4.8862 9.30748 4.88495 9.31248 4.88495ZM13.2462 5.63245C13.2712 5.6412 13.3212 5.79495 13.4075 6.13745C13.6067 6.94508 13.6713 7.78004 13.5987 8.6087L13.5837 8.6562L13.35 8.5812C12.865 8.4262 12.075 8.1937 11.3975 8.0062C11.1611 7.94572 10.9276 7.87481 10.6975 7.7937C10.6975 7.7662 11.2587 7.20495 11.5 6.9912C11.9612 6.5837 13.2025 5.6187 13.2462 5.63245ZM13.5587 5.67745C13.5725 5.66495 15.4387 5.98745 16.2862 6.14995C16.9187 6.2712 17.8325 6.46245 17.8875 6.4862C17.915 6.4962 17.82 6.5487 17.5162 6.6862C16.3162 7.2262 15.4262 7.7112 14.5412 8.30245C14.3087 8.45745 14.115 8.58495 14.1112 8.58495C14.1062 8.58495 14.1037 8.45495 14.1037 8.29745C14.1037 7.43495 13.93 6.5637 13.615 5.82745C13.5916 5.77931 13.5728 5.7291 13.5587 5.67745ZM18.3837 6.63245C18.3975 6.6462 18.3362 7.01495 18.2837 7.23245C18.1187 7.90745 17.6812 8.91245 17.1412 9.8562C17.0845 9.96266 17.0211 10.0654 16.9512 10.1637C16.8562 10.1234 16.7646 10.0753 16.6775 10.02C16.15 9.7112 15.5525 9.41995 14.8962 9.1487C14.7788 9.10254 14.6629 9.05251 14.5487 8.9987C14.5187 8.9712 15.9775 8.00495 16.7512 7.5412C17.37 7.16995 18.3662 6.61495 18.3837 6.63245ZM18.7287 6.6862C18.77 6.6862 19.5975 6.9112 20.025 7.03995C21.0912 7.3587 22.3212 7.80745 23.1187 8.16995L23.45 8.31995L23.2162 8.3737C21.265 8.8237 19.5912 9.33995 17.9812 9.9937C17.8475 10.0487 17.7312 10.0937 17.7225 10.0937C17.7452 10.0134 17.7766 9.93587 17.8162 9.86245C18.3012 8.8337 18.6137 7.7537 18.695 6.83745C18.7025 6.7537 18.7175 6.6862 18.7287 6.6862ZM10.5037 8.5762C10.5162 8.5637 11.1462 8.7112 11.49 8.80745C12.0062 8.95245 13.105 9.31995 13.105 9.3487C13.105 9.3537 12.9837 9.45995 12.8362 9.5837C12.2425 10.08 11.6687 10.6 10.9825 11.2625C10.8589 11.3863 10.7305 11.5051 10.5975 11.6187C10.5887 11.6187 10.585 11.59 10.59 11.5562C10.6937 10.7925 10.6712 9.81245 10.5275 8.81495C10.5133 8.73651 10.5049 8.65713 10.5025 8.57745L10.5037 8.5762ZM23.7662 8.5887C23.775 8.5987 23.4737 9.06995 23.2862 9.33871C23.0112 9.7312 22.615 10.2462 21.71 11.385L20.5175 12.8875C20.4086 13.0287 20.2965 13.1675 20.1812 13.3037C20.1775 13.3037 20.1187 13.2212 20.0525 13.1212C19.5415 12.3587 18.9226 11.6745 18.215 11.09C18.1041 10.9971 17.9916 10.9062 17.8775 10.8175C17.8437 10.7948 17.8127 10.7684 17.785 10.7387C17.785 10.7262 18.5562 10.3962 19.145 10.1562C20.2856 9.69774 21.444 9.28492 22.6175 8.9187C23.17 8.74995 23.7575 8.5812 23.7662 8.5887ZM24.1137 8.67995C24.2048 8.71076 24.2917 8.75275 24.3725 8.80495C25.4746 9.43639 26.4941 10.2022 27.4075 11.085C27.65 11.3225 28.2412 11.9387 28.2325 11.9437L27.7787 11.98C25.8662 12.1237 23.4212 12.53 21.0662 13.0962C20.9062 13.1337 20.7687 13.1662 20.7587 13.1662C20.75 13.1662 20.925 12.9912 21.1475 12.7762C22.5312 11.4475 23.1612 10.6087 23.9037 9.1087C24.0137 8.8862 24.1075 8.69245 24.1112 8.6812H24.1137V8.67995ZM14.0037 9.71745C14.0675 9.72995 14.6575 10.005 15.1025 10.2275C15.5087 10.4312 16.125 10.76 16.1562 10.7887C16.16 10.7925 15.9437 10.905 15.6737 11.04C14.82 11.4675 14.0887 11.87 13.3262 12.3362C13.1075 12.47 12.9262 12.5787 12.92 12.5787C12.9012 12.5787 12.9075 12.5625 13.03 12.34C13.4521 11.5526 13.7626 10.7104 13.9525 9.83745C13.97 9.75995 13.99 9.71245 14.0037 9.7162V9.71745ZM13.41 9.82245C13.4225 9.83495 13.27 10.3975 13.1725 10.6975C12.9084 11.4867 12.5583 12.2446 12.1287 12.9575L12.0162 13.1412L11.7625 12.895C11.5156 12.6433 11.2304 12.4324 10.9175 12.27C10.84 12.235 10.7663 12.1923 10.6975 12.1425C10.6975 12.105 11.4725 11.4012 12.07 10.895C12.4987 10.5325 13.4 9.8112 13.41 9.82245ZM17.02 11.3075L17.2412 11.4512C17.75 11.7812 18.3512 12.225 18.81 12.6062C19.0675 12.8212 19.5662 13.2687 19.6687 13.3762L19.7237 13.435L19.3562 13.5375C17.4772 14.05 15.6212 14.6438 13.7937 15.3175C13.585 15.3937 13.4062 15.4575 13.3937 15.4575C13.3675 15.4575 13.3412 15.4812 13.81 15.05C15.01 13.9462 16.0687 12.73 16.86 11.5475L17.02 11.3075ZM16.0712 11.545C16.0825 11.5562 15.4562 12.4325 15.085 12.9275C14.64 13.5187 13.8475 14.5087 13.3025 15.1525C13.1633 15.3222 13.0191 15.4877 12.87 15.6487C12.8575 15.6525 12.8512 15.5862 12.85 15.4825C12.85 14.9325 12.71 14.345 12.465 13.8475C12.3612 13.6375 12.3437 13.5875 12.365 13.5675C12.45 13.49 13.7737 12.735 14.6075 12.2887C15.1812 11.9812 16.0612 11.5337 16.0712 11.545ZM10.3337 12.9512C10.697 13.1252 11.0378 13.3427 11.3487 13.5987C11.3587 13.605 11.24 13.7025 11.0862 13.8137C10.655 14.125 9.99873 14.6187 9.61998 14.9212C9.21998 15.24 9.20623 15.25 9.25123 15.18C9.55123 14.7212 9.70123 14.4625 9.85873 14.13C9.99998 13.835 10.1387 13.485 10.2387 13.18C10.2594 13.0994 10.2905 13.0223 10.3337 12.9512ZM11.8625 14.1512C11.8837 14.1475 11.9125 14.1862 12.0362 14.37C12.295 14.7575 12.4937 15.2725 12.545 15.6925L12.555 15.7837L11.9337 16.0237C10.8212 16.4562 9.79498 16.8825 9.10123 17.1987C8.90748 17.2887 8.56623 17.4512 8.34248 17.5637C8.11873 17.6762 7.93623 17.7637 7.93623 17.7587C7.93623 17.7537 8.07623 17.6475 8.24873 17.5237C9.60748 16.5362 10.78 15.4562 11.6637 14.375C11.7575 14.26 11.8437 14.16 11.855 14.1525C11.8573 14.1511 11.8598 14.1503 11.8625 14.15V14.1512ZM11.1575 14.3262C11.1762 14.3437 10.6562 14.9312 10.3062 15.2887C9.43123 16.1825 8.56123 16.8825 7.48623 17.565C7.35123 17.6512 7.22873 17.7275 7.21123 17.7375C7.18248 17.755 7.22123 17.71 7.69373 17.195C7.99123 16.8712 8.21873 16.6025 8.47873 16.2662C8.64873 16.045 8.68123 16.0137 8.93123 15.8337C9.60248 15.3487 11.14 14.3075 11.1575 14.325V14.3262ZM12.4062 -4.58827e-05C12.3062 -0.0125459 10.6925 0.568704 9.65623 0.988704C8.25248 1.55995 7.16123 2.1062 6.48873 2.5787C6.23873 2.7537 5.92373 3.06995 5.87873 3.1912C5.86099 3.24051 5.85211 3.29256 5.85248 3.34495L6.46248 3.91995L7.90998 4.38245L11.3587 4.99995L15.3 5.67745L15.34 5.33995L15.305 5.3337L14.7862 5.2512L14.68 5.0662C14.1442 4.12107 13.6533 3.15125 13.2087 2.15995C12.9493 1.5642 12.728 0.952545 12.5462 0.328704C12.4612 0.0249541 12.4525 0.00620412 12.4062 -4.58827e-05ZM12.33 0.232454H12.3362C12.34 0.236204 12.3575 0.363704 12.3762 0.513704C12.4537 1.1487 12.5962 1.7637 12.8187 2.4262C12.9862 2.9262 12.9887 2.89745 12.7887 2.8412C12.3262 2.71245 10.2487 2.3562 8.74623 2.14745C8.59704 2.12843 8.44826 2.10634 8.29998 2.0812C8.28123 2.06245 9.38373 1.48495 9.87248 1.2562C10.4987 0.966204 12.2062 0.256204 12.33 0.232454ZM7.95248 2.26745L8.12873 2.32745C9.09373 2.65495 11.5112 3.11745 12.8475 3.22745C12.9975 3.23995 13.125 3.2537 13.1287 3.25745C13.1325 3.2612 13.0037 3.32995 12.8437 3.40995C12.2 3.73245 11.49 4.1262 10.9987 4.4337C10.855 4.5237 10.7237 4.5962 10.705 4.59495C10.634 4.58496 10.5631 4.57371 10.4925 4.5612L10.3125 4.53245L9.85623 4.0887C9.05498 3.3137 8.42998 2.7137 8.18748 2.4887L7.95248 2.26745ZM7.77373 2.40995L8.41248 3.20745C8.76498 3.64495 9.11748 4.0812 9.19498 4.17495C9.27373 4.2687 9.33373 4.34745 9.32998 4.34995C9.31248 4.3637 8.40498 4.18745 7.92373 4.0762C7.58504 4.00422 7.25006 3.91578 6.91998 3.8112L6.66998 3.7312L6.67123 3.66995C6.67498 3.3637 7.06123 2.9112 7.71623 2.44995L7.77373 2.40995ZM13.2137 3.4962C13.2325 3.49745 13.2537 3.5362 13.31 3.65995C13.465 3.99995 13.9475 4.91995 14.0637 5.09745C14.1012 5.1562 14.1637 5.15995 13.5225 5.0562C11.985 4.8087 11.4862 4.72495 11.4862 4.71495C11.5175 4.68778 11.5525 4.66507 11.59 4.64745C12.0804 4.37225 12.5438 4.05123 12.9737 3.6887L13.1925 3.50495C13.2 3.4987 13.2075 3.49495 13.2137 3.4962ZM18.6 14.0062L12.59 15.9662L7.36498 18.2737L5.90248 18.6612C5.52998 19.0137 5.13623 19.3712 4.71748 19.7362C4.25498 20.1375 3.82248 20.5012 3.49248 20.7637C3.06071 21.1209 2.66201 21.5162 2.30123 21.945C1.88623 22.4625 1.56123 23.0125 1.42123 23.4362C1.17123 24.1987 1.29248 24.9712 1.77748 25.6837C2.39623 26.5937 3.62748 27.5187 5.05873 28.1487C5.78998 28.4687 7.02123 28.8837 7.94623 29.1162C9.48748 29.5062 12.4637 29.9287 14.1037 29.9912C14.4362 30.0037 14.8787 30.0037 14.9 29.9887C14.935 29.965 15.1912 29.4825 15.4875 28.8762C16.495 26.8187 17.2237 24.8887 17.6162 23.2412C17.8537 22.2425 18.0387 20.9125 18.1587 19.335C18.1925 18.8925 18.205 17.4187 18.1787 16.9175C18.1476 16.2025 18.0712 15.4902 17.95 14.785C17.9341 14.7238 17.929 14.6604 17.935 14.5975C17.9525 14.585 18.0087 14.5662 18.7475 14.3512L18.6 14.0062ZM17.225 14.8125C17.2812 14.8125 17.425 16.205 17.4637 17.0875C17.4712 17.2762 17.47 17.3962 17.4587 17.3962C17.4237 17.3962 16.69 16.965 16.1687 16.6387C15.6768 16.3288 15.1925 16.0071 14.7162 15.6737C14.6725 15.6387 14.6775 15.6375 15.0487 15.51C15.68 15.2925 17.1787 14.8125 17.2262 14.8125H17.225ZM14.165 15.8162C14.2025 15.8162 14.3087 15.875 14.5587 16.0312C15.4962 16.6187 16.7662 17.325 17.3087 17.5625C17.4787 17.6375 17.4975 17.6075 17.1087 17.8712C16.2812 18.4337 15.2512 18.9862 13.9875 19.5487C13.851 19.6111 13.713 19.6703 13.5737 19.7262C13.583 19.6412 13.601 19.5575 13.6275 19.4762C13.9337 18.345 14.1062 17.2012 14.1112 16.2837C14.1137 15.8312 14.1137 15.8287 14.1575 15.8175H14.165V15.8162ZM13.535 16.0575C13.5612 16.085 13.5425 17.1 13.51 17.3775C13.4148 18.1587 13.2397 18.9282 12.9875 19.6737C12.97 19.695 12.3487 19.0887 12.1425 18.8487C11.8159 18.4783 11.5351 18.07 11.3062 17.6325C11.2037 17.43 11.0387 17.0275 11.0537 17.0162C11.1237 16.9662 13.5175 16.0412 13.535 16.0575ZM10.5662 17.2275C10.5712 17.2275 10.5762 17.2287 10.5787 17.2325C10.6064 17.2851 10.6299 17.3398 10.6487 17.3962C10.7937 17.79 11.1187 18.3737 11.4012 18.7462C11.7714 19.2363 12.1981 19.6811 12.6725 20.0712C12.7012 20.0962 12.71 20.0912 11.97 20.3712C11.0226 20.7284 10.0665 21.0619 9.10248 21.3712C8.69373 21.5037 8.34748 21.615 8.33373 21.6212C8.29248 21.635 8.30498 21.61 8.42498 21.4237C8.95873 20.5912 9.76623 18.9612 10.2187 17.8087C10.2962 17.6087 10.3712 17.4087 10.385 17.3637C10.4037 17.2987 10.4237 17.2762 10.485 17.2487C10.5101 17.2355 10.5379 17.2283 10.5662 17.2275ZM9.65623 17.6025C9.66873 17.6137 9.43873 18.1 9.21123 18.5412C8.77248 19.3987 8.28748 20.2425 7.64498 21.2725L7.41748 21.6325C7.39498 21.6662 7.38498 21.655 7.31498 21.515C7.15156 21.1814 7.03383 20.8274 6.96498 20.4625C6.9007 20.0128 6.90914 19.5557 6.98998 19.1087C7.04873 18.825 7.04623 18.8312 7.17998 18.7637C7.75748 18.4675 9.63748 17.5862 9.65623 17.6025ZM17.4912 17.9212V18.1137C17.4784 19.3666 17.3718 20.6167 17.1725 21.8537C16.3482 21.6158 15.5526 21.288 14.8 20.8762C14.3575 20.6337 13.7187 20.2425 13.7375 20.2237C13.7412 20.2187 13.93 20.12 14.155 20.0025C15.0475 19.54 15.8987 19.04 16.64 18.545C16.9175 18.36 17.3337 18.0587 17.4262 17.9775L17.4912 17.9212ZM6.22623 19.2625C6.24498 19.2625 6.23998 19.2975 6.21123 19.4637C6.18645 19.6253 6.16935 19.788 6.15998 19.9512C6.12248 20.6162 6.23123 21.1062 6.55998 21.7762C6.65248 21.9637 6.72498 22.1187 6.72123 22.1212C6.68748 22.15 3.68373 23.0287 2.73873 23.2875L2.19498 23.4375C2.16123 23.4475 2.15873 23.44 2.16998 23.3625C2.27373 22.6962 2.78248 21.8225 3.49248 21.0875C3.96498 20.6 4.34248 20.31 4.98623 19.9437C5.39535 19.709 5.80875 19.4819 6.22623 19.2625ZM13.3125 20.5312C13.315 20.5287 13.4262 20.5875 13.5587 20.665C14.53 21.2262 15.8837 21.7525 17.0375 22.0162L17.1425 22.0412L16.9987 22.12C16.3962 22.455 14.41 23.2812 12.3812 24.0412C12.1672 24.1212 11.9534 24.202 11.74 24.2837C11.7075 24.2996 11.673 24.311 11.6375 24.3175C11.6375 24.3125 11.7212 24.1525 11.8237 23.96C12.3937 22.895 12.9612 21.6012 13.2537 20.7037C13.2825 20.6125 13.3087 20.535 13.3125 20.5312ZM12.59 20.7687C12.5683 20.8408 12.542 20.9113 12.5112 20.98C12.0501 22.069 11.5237 23.1293 10.935 24.155C10.835 24.3383 10.73 24.5187 10.62 24.6962C10.6137 24.6962 10.4775 24.6137 10.315 24.515C9.35248 23.925 8.49998 23.2 7.93998 22.4937L7.85998 22.3937L8.27498 22.28C9.63533 21.9161 10.9679 21.4553 12.2625 20.9012C12.44 20.8262 12.5875 20.765 12.59 20.7687ZM17.0775 22.335C17.0787 22.335 17.08 22.3362 17.08 22.3387C17.08 22.4387 16.8512 23.3737 16.66 24.0512C16.5 24.6175 16.365 25.0612 16.1162 25.8475C16.0528 26.0596 15.9827 26.2697 15.9062 26.4775C14.6231 26.2581 13.3664 25.9058 12.1562 25.4262C11.8849 25.32 11.6184 25.202 11.3575 25.0725C11.35 25.0637 11.6237 24.935 11.965 24.785C14.0337 23.8837 16.1762 22.8562 16.9087 22.415C16.9599 22.3787 17.017 22.3516 17.0775 22.335ZM6.71873 22.6887C6.72998 22.7 6.15123 23.5275 5.34373 24.6587L4.60998 25.6875C4.48873 25.8612 4.30373 26.135 4.19873 26.2975L4.00748 26.5925L3.80498 26.4212C3.56623 26.2212 3.14873 25.795 2.95873 25.5587C2.56873 25.0725 2.30498 24.5612 2.19998 24.0912C2.15248 23.8737 2.14998 23.7637 2.19623 23.75C3.00099 23.5558 3.80683 23.3662 4.61373 23.1812L6.23873 22.8C6.49998 22.7375 6.71623 22.6875 6.71873 22.6887ZM7.29998 22.9112L7.44623 23.075C8.05704 23.7684 8.77743 24.3571 9.57873 24.8175C9.72248 24.9 9.83123 24.9725 9.82248 24.9775C8.02353 25.6296 6.21931 26.2672 4.40998 26.89C4.37899 26.8715 4.34895 26.8515 4.31998 26.83L4.23623 26.77L4.36748 26.58C4.79248 25.9637 5.32748 25.2862 6.49873 23.8775L7.29998 22.9112ZM10.925 25.5025C10.9287 25.4987 11.1312 25.57 11.3775 25.6625C11.9687 25.8837 12.4325 26.0275 13.0612 26.185C13.8325 26.3787 14.9487 26.5725 15.6087 26.6275C15.7087 26.635 15.7612 26.6475 15.7462 26.6575C15.715 26.6775 15.0462 26.9 14.555 27.055C12.6287 27.6409 10.6969 28.2089 8.75998 28.7587C8.71623 28.7675 8.56373 28.7275 8.56373 28.7087C8.56373 28.6975 8.67248 28.56 8.80498 28.4012C9.46593 27.6097 10.0819 26.7818 10.65 25.9212C10.7412 25.7813 10.8328 25.6417 10.925 25.5025ZM10.1225 25.525C10.1287 25.5312 9.80623 26.0475 9.23998 26.94C8.99998 27.3162 8.72873 27.7462 8.63623 27.8925C8.54248 28.04 8.40623 28.265 8.33373 28.3925L8.19998 28.6237L8.13248 28.6062C7.96998 28.5625 6.82123 28.1562 6.51873 28.0362C6.14248 27.8862 5.74998 27.7062 5.46123 27.55C5.09998 27.355 4.64248 27.065 4.67748 27.0537L6.05873 26.6762C8.04873 26.1337 9.14998 25.8225 9.87123 25.5962C10.0075 25.555 10.1212 25.5225 10.1225 25.525ZM15.7762 26.8512H15.7837C15.8025 26.8987 15.065 28.9387 14.7962 29.5862C14.735 29.7312 14.7137 29.7675 14.6812 29.765C14.0831 29.6894 13.486 29.6061 12.89 29.515C11.7575 29.3425 9.86123 29.0112 9.38248 28.9025L9.27123 28.8775L9.94998 28.725C11.405 28.3975 12.1037 28.2212 12.8125 28.0037C13.726 27.7225 14.619 27.3784 15.485 26.9737C15.6262 26.9087 15.7475 26.8575 15.7762 26.8512Z" fill="#17204E"/>
</svg>
