<svg width="30" height="30" viewBox="0 0 30 30" fill="none" xmlns="http://www.w3.org/2000/svg">
<path fill-rule="evenodd" clip-rule="evenodd" d="M6.82741 5.0501C6.48616 5.04377 6.24469 5.0871 5.98962 5.14308V5.18941H6.03627C6.1993 5.52386 6.48679 5.73924 6.68794 6.02736C6.84259 6.35328 6.99772 6.67871 7.15285 7.00415C7.16866 6.98866 7.18432 6.97332 7.1995 6.95782C7.48809 6.75494 7.61966 6.43013 7.61839 5.93422C7.50264 5.81246 7.4854 5.66033 7.38546 5.51533C7.25295 5.32193 6.99519 5.21266 6.82741 5.0501ZM29.3483 28.9212C29.568 29.0823 29.7152 29.3321 30 29.4334V29.3867C29.8501 29.1966 29.812 28.9343 29.6744 28.735C29.4733 28.5339 29.2705 28.332 29.0694 28.13C28.4776 27.3449 27.7273 26.6557 26.929 26.083C26.2932 25.6258 24.8681 25.0091 24.6024 24.2686C24.5872 24.2527 24.5714 24.2371 24.5556 24.2213C25.0068 24.1707 25.5354 24.0075 25.9518 23.8957C26.6514 23.7081 27.2768 23.7568 27.9988 23.5701C28.325 23.4766 28.6505 23.3833 28.9761 23.2911V23.1044C28.611 22.7296 28.3507 22.2337 27.9528 21.8945C26.9104 21.0077 25.7736 20.1209 24.6023 19.3821C23.9533 18.9719 23.1501 18.7057 22.4618 18.3582C22.2303 18.2414 21.8239 18.1806 21.6706 17.9859C21.3096 17.5248 21.1124 16.9405 20.8335 16.4036C20.2496 15.2788 19.6755 14.0504 19.1579 12.867C18.8054 12.0602 18.5747 11.2644 18.1346 10.5403C16.0218 7.06662 13.747 4.96976 10.2243 2.90881C9.47409 2.47062 8.57178 2.29762 7.61839 2.07149C7.10683 2.04065 6.59432 2.00919 6.08276 1.97835C5.77045 1.84789 5.44564 1.46584 5.1523 1.28035C3.98496 0.543129 0.991014 -1.06082 0.126972 1.04789C-0.418906 2.37859 0.942309 3.67718 1.42952 4.35178C1.77156 4.82476 2.2088 5.35529 2.45359 5.8871C2.6141 6.23673 2.64145 6.58763 2.77982 6.9575C3.11791 7.86899 3.41172 8.86048 3.84912 9.70302C4.07067 10.129 4.31467 10.5783 4.59425 10.9592C4.76582 11.1931 5.059 11.2961 5.10502 11.6572C4.81832 12.0594 4.80188 12.6834 4.64074 13.1927C3.91332 15.486 4.18769 18.3359 5.24576 20.0333C5.56993 20.554 6.33467 21.6718 7.38546 21.2428C8.3047 20.8684 8.09975 19.7077 8.36273 18.6837C8.42187 18.4511 8.38582 18.2805 8.5022 18.1254V18.1717C8.78179 18.7301 9.06105 19.2885 9.34 19.8467C9.9602 20.845 11.0603 21.889 11.9927 22.5925C12.4755 22.9575 12.8561 23.5887 13.4815 23.8024V23.7551H13.4349C13.3131 23.5671 13.1237 23.4882 12.97 23.3368C12.6056 22.9796 12.2006 22.5359 11.8992 22.1268C11.051 20.9757 10.3019 19.7157 9.61942 18.4045C9.29319 17.7781 9.00981 17.0872 8.73482 16.4501C8.62903 16.2042 8.63029 15.8328 8.40922 15.7055C8.10814 16.1723 7.66489 16.5502 7.43196 17.1015C7.05971 17.9829 7.01179 19.0577 6.87374 20.1724C6.79215 20.2018 6.82836 20.1817 6.78029 20.2188C6.13194 20.0628 5.90439 19.3955 5.66371 18.8231C5.05473 17.3758 4.94167 15.0451 5.47758 13.3788C5.61626 12.9479 6.24374 11.59 5.98914 11.1918C5.86801 10.7943 5.46888 10.5648 5.24544 10.2611C4.96776 9.88566 4.69166 9.39181 4.49968 8.95805C4.00188 7.82961 3.76911 6.5628 3.24426 5.42187C2.99314 4.87678 2.56887 4.32458 2.22035 3.83958C1.8345 3.30256 1.40232 2.90723 1.10361 2.2573C0.997181 2.02658 0.852489 1.65734 1.01031 1.41998C1.06012 1.25979 1.13128 1.19306 1.28989 1.14072C1.56014 0.932612 2.31111 1.20998 2.59243 1.32684C3.33819 1.63662 3.96155 1.93186 4.59362 2.35044C4.89676 2.55158 5.20369 2.94091 5.57009 3.0486H5.98899C6.64461 3.19898 7.37851 3.09556 7.99001 3.28137C9.0718 3.61013 10.0412 4.12154 10.9215 4.67753C13.6033 6.37067 15.7963 8.78158 17.2963 11.6572C17.5376 12.1203 17.6423 12.5621 17.8545 13.0534C18.2832 14.0438 18.8239 15.0626 19.2505 16.0314C19.6761 16.9973 20.091 17.9725 20.6927 18.7767C21.009 19.1993 22.2314 19.426 22.7872 19.661C23.1765 19.8253 23.8143 19.997 24.1826 20.2188C24.8875 20.644 25.5696 21.1497 26.2303 21.6152C26.5604 21.8482 27.5758 22.3583 27.6258 22.778C25.9896 22.7347 24.7395 22.8866 23.6709 23.337C23.3671 23.4646 22.883 23.4684 22.8331 23.8484C23.0001 24.0233 23.0265 24.2852 23.1593 24.5001C23.4137 24.9131 23.8445 25.4661 24.2292 25.7568C24.6494 26.0738 25.0822 26.413 25.5319 26.6874C26.3329 27.176 27.2273 27.4548 27.998 27.9439C28.4541 28.2326 28.9052 28.5956 29.3483 28.9212Z" fill="#17204E"/>
</svg>
