<svg width="30" height="30" viewBox="0 0 30 30" fill="none" xmlns="http://www.w3.org/2000/svg">
<path d="M29.4493 18.4035C29.4322 18.3511 29.4085 18.3011 29.3789 18.2546C29.2052 17.9256 28.7829 17.8274 28.1197 17.9645C26.0531 18.3909 25.2528 18.1285 24.9627 17.9406C26.6402 15.3804 28.0189 12.2881 28.7641 9.4035C29.1033 8.09013 29.7618 4.99888 28.9168 3.489C28.8628 3.38566 28.7997 3.28735 28.7282 3.19525C27.1164 1.13575 24.7509 0.0310018 21.8874 0.000626754C20.0191 -0.0191232 18.4243 0.433252 17.9923 0.599877C17.7783 0.559941 17.5633 0.525928 17.3474 0.497877C16.8063 0.399889 16.258 0.34646 15.7082 0.338127C14.2304 0.315127 12.9534 0.668377 11.8959 1.38888C10.8243 0.987502 5.90993 -0.667373 2.86856 1.48738C1.16993 2.69075 0.385809 4.84163 0.537809 7.88038C0.588934 8.90288 1.17143 12.0479 2.09068 15.0599C2.66543 16.943 3.26406 18.4373 3.88243 19.5374C4.57368 20.7801 5.28981 21.529 6.02531 21.7743C6.58456 21.9606 7.44118 21.9544 8.34793 20.8644C9.34943 19.66 10.3358 18.5821 10.7787 18.1058C11.3226 18.4001 11.9117 18.5589 12.5162 18.5773C12.5163 18.579 12.5165 18.5807 12.5167 18.5824C12.4114 18.7078 12.3084 18.8351 12.2077 18.9641C11.7841 19.5019 11.6959 19.6138 10.3324 19.8945C9.94468 19.9745 8.91443 20.1869 8.89943 20.9089C8.89631 21.0619 8.94056 21.1975 9.01431 21.3174C9.29793 21.8463 10.1663 22.0795 10.2831 22.1088C11.9512 22.5256 13.4136 22.2238 14.4973 21.2604C14.4761 24.0491 14.5942 26.7821 14.9291 27.6196C15.2056 28.3108 15.8813 30.0003 18.0156 30C18.3287 30 18.6734 29.9636 19.0526 29.8824C21.2799 29.4048 22.2472 28.4204 22.6213 26.25C22.8092 25.1616 23.1233 22.6559 23.2948 21.1235C23.3159 21.0356 23.3394 20.9726 23.3661 20.9533C23.3669 20.9526 23.4532 20.8944 23.9001 20.9916C23.9183 20.9956 23.9368 20.9984 23.9554 21.0001L24.2728 21.028L24.2914 21.0293C25.3499 21.0773 26.6807 20.851 27.4554 20.4908C28.2602 20.1173 29.7126 19.2004 29.4493 18.4035ZM2.96381 14.8456C2.03443 11.8009 1.49143 8.73925 1.44843 7.88075C1.31268 5.1665 1.96981 3.27713 3.40131 2.26488C5.69718 0.641627 9.45106 1.58888 11.0363 2.10238C11.0323 2.10638 11.0281 2.11 11.0241 2.11413C8.49431 4.66913 8.55431 9.03413 8.56056 9.301C8.56031 9.40388 8.56881 9.54963 8.58081 9.75013C8.62431 10.4843 8.70531 11.8506 8.48893 13.3981C8.28781 14.8361 8.73106 16.2436 9.70493 17.2596C9.80568 17.3648 9.91093 17.4635 10.0197 17.5564C9.58618 18.0206 8.64418 19.0471 7.64156 20.2534C6.93193 21.1065 6.44193 20.943 6.28081 20.8893C5.79093 20.7259 5.26456 20.1554 4.73318 19.2364C4.13368 18.1876 3.52881 16.6968 2.96381 14.8456ZM10.4728 21.2045C10.2589 21.151 10.0639 21.063 9.93256 20.983C10.0437 20.9338 10.2293 20.8703 10.5367 20.8069C12.1408 20.4768 12.3886 20.2436 12.9296 19.5566C13.0536 19.3991 13.1941 19.2208 13.3887 19.0034C13.4305 18.9564 13.462 18.9011 13.4808 18.8411C13.6943 18.652 13.8213 18.7038 14.0269 18.789C14.2219 18.8698 14.4117 19.114 14.4888 19.383C14.5252 19.51 14.5662 19.7511 14.4323 19.9385C13.3019 21.5208 11.6553 21.5003 10.4728 21.2045ZM13.0903 16.2195L13.0247 16.3958C12.8584 16.8415 12.7038 17.2559 12.6079 17.6495C11.7737 17.6469 10.9619 17.2905 10.3448 16.6465C9.55993 15.8276 9.20343 14.6885 9.36668 13.521C9.59518 11.8861 9.51081 10.4625 9.46543 9.69775C9.45918 9.59063 9.45356 9.49688 9.45018 9.42288C9.81981 9.09525 11.5326 8.17763 12.7538 8.45738C13.3112 8.58513 13.6508 8.9645 13.7919 9.61738C14.5227 12.9971 13.8887 14.4058 13.3792 15.5378C13.2742 15.771 13.1751 15.9914 13.0903 16.2195ZM22.2949 21.9351C22.2738 22.1561 22.2502 22.4051 22.2177 22.68L22.0352 23.2279C22.0207 23.2713 22.013 23.3167 22.0124 23.3625C22.0051 23.9559 21.9449 24.1736 21.8687 24.4491C21.7894 24.7356 21.6996 25.0605 21.6444 25.771C21.5069 27.5389 20.5467 28.5544 18.6229 28.9666C16.7286 29.373 16.3926 28.3456 16.0964 27.4395C16.0661 27.3445 16.0341 27.2501 16.0003 27.1563C15.7311 26.424 15.7614 25.3914 15.8036 23.9624C15.8242 23.2609 15.7724 21.5858 15.3908 20.6546C15.3963 20.2881 15.4041 19.916 15.4146 19.5399C15.4158 19.4922 15.4094 19.4447 15.3954 19.3991C15.3833 19.3113 15.365 19.2244 15.3406 19.1391C15.1873 18.6038 14.8139 18.1559 14.3659 17.9703C14.1879 17.8965 13.8612 17.7613 13.4687 17.8616C13.5524 17.5166 13.6976 17.1273 13.8549 16.7055L13.9211 16.528C13.9954 16.328 14.0886 16.1209 14.1873 15.9015C14.7204 14.717 15.4506 13.0949 14.6581 9.43C14.3613 8.05738 13.3701 7.38713 11.8676 7.54275C10.9667 7.636 10.1427 7.9995 9.73156 8.20788C9.64914 8.24965 9.56754 8.29304 9.48681 8.338C9.60156 6.955 10.0351 4.37038 11.6564 2.73513C11.7769 2.61377 11.9034 2.49862 12.0356 2.39013C12.1012 2.37733 12.163 2.34981 12.2164 2.30963C13.1569 1.59638 14.3346 1.24638 15.7189 1.269C16.2303 1.27738 16.7211 1.31138 17.1867 1.37025C19.6104 1.81325 21.2416 3.17875 22.2316 4.34863C23.2494 5.5515 23.8006 6.763 24.0206 7.4165C22.3666 7.24825 21.2413 7.575 20.6709 8.39025C19.4302 10.1639 21.3497 13.6064 22.2723 15.2608C22.4414 15.564 22.5876 15.826 22.6334 15.9374C22.9338 16.6655 23.3228 17.1515 23.6068 17.5064C23.6938 17.6151 23.7783 17.7206 23.8424 17.8126C23.3414 17.957 22.4414 18.2908 22.5234 19.9589C22.5081 20.1543 22.4706 20.5175 22.4192 20.9774C22.3616 21.237 22.3314 21.5528 22.2949 21.9351ZM23.4081 19.9088C23.3574 18.8693 23.7444 18.7606 24.1539 18.6456C24.2106 18.6301 24.2669 18.6132 24.3227 18.5949C24.3755 18.6417 24.4316 18.6847 24.4904 18.7236C25.2033 19.1943 26.4683 19.2503 28.2489 18.8916C27.9969 19.1128 27.6003 19.3909 27.0573 19.643C26.5451 19.8809 25.6877 20.0593 24.8732 20.0975C23.9736 20.1395 23.5158 19.9966 23.4081 19.9088ZM24.1199 8.31975C24.1126 8.75825 24.0522 9.15625 23.9882 9.57188C23.9194 10.0189 23.8482 10.4811 23.8302 11.0421C23.8124 11.5881 23.8807 12.1558 23.9467 12.7048C24.0799 13.8135 24.2167 14.9551 23.6873 16.0815C23.5994 15.9257 23.5211 15.7648 23.4528 15.5995C23.3869 15.44 23.2442 15.1838 23.0464 14.8293C22.2769 13.4491 20.4747 10.2173 21.3973 8.8985C21.8717 8.22013 23.0733 8.19088 24.1199 8.31975ZM24.4054 17.0869C24.3701 17.0419 24.3346 16.9972 24.2988 16.9526L24.2544 16.8971C25.1622 15.3978 24.9847 13.9144 24.8267 12.599C24.7618 12.0593 24.7006 11.5495 24.7161 11.0708C24.7322 10.5631 24.7993 10.1279 24.8642 9.70688C24.9441 9.18813 25.0252 8.6515 25.0028 8.01875C25.0196 7.95238 25.0263 7.874 25.0176 7.781C24.9604 7.17413 24.2677 5.3585 22.8558 3.71475C22.0963 2.83063 20.9938 1.84325 19.4947 1.16538C20.1511 1.03213 21.0357 0.911002 22.0252 0.933002C24.5896 0.990002 26.6184 1.94988 28.0554 3.786C28.086 3.82586 28.1138 3.8677 28.1388 3.91125C29.0427 5.60575 27.7936 11.7551 24.4054 17.0869ZM13.3847 9.44163C13.3534 9.66588 12.9986 9.96975 12.6083 9.96975C12.5745 9.96977 12.5407 9.96743 12.5072 9.96275C12.2731 9.93025 12.0366 9.78275 11.8748 9.56825C11.8176 9.49263 11.7244 9.34575 11.7429 9.21275C11.7498 9.16263 11.7756 9.08963 11.8586 9.02675C12.0063 8.915 12.2983 8.8735 12.6206 8.91838C13.0159 8.9735 13.4238 9.16063 13.3847 9.44163ZM23.2978 8.92738C23.3117 9.02638 23.2366 9.17863 23.1064 9.31513C23.0211 9.40475 22.8414 9.56025 22.5966 9.59413C22.5655 9.59845 22.5342 9.60062 22.5028 9.60063C22.1359 9.60063 21.8261 9.30763 21.8019 9.136C21.7719 8.91538 22.1321 8.74775 22.5033 8.696C22.8746 8.64425 23.2672 8.707 23.2978 8.92738Z" fill="#17204E"/>
</svg>
