<svg width="30" height="30" viewBox="0 0 30 30" fill="none" xmlns="http://www.w3.org/2000/svg">
<path d="M27.0974 0.651196C25.8074 -0.498804 24.2474 -0.0363038 22.7062 1.3312C22.4685 1.54399 22.2404 1.76712 22.0224 1.99995C19.3862 4.7962 16.9399 9.97495 16.1799 13.9299C16.4762 14.5299 16.7074 15.2962 16.8599 15.8812C16.9363 16.1722 17.0047 16.4652 17.0649 16.7599C17.0649 16.7599 17.0412 16.6712 16.9449 16.3899L16.8824 16.2074C16.8695 16.1738 16.8558 16.1404 16.8412 16.1074C16.6687 15.7074 16.1937 14.8637 15.9837 14.4962C15.8049 15.0249 15.6462 15.5187 15.5137 15.9662C16.1187 17.0712 16.4862 18.9662 16.4862 18.9662C16.4862 18.9662 16.4549 18.8424 16.3024 18.4137C16.1687 18.0349 15.4974 16.8587 15.3374 16.5837C15.0662 17.5887 14.9574 18.2662 15.0549 18.4312C15.2449 18.7512 15.4249 19.3037 15.5824 19.9137C15.9399 21.2887 16.1887 22.9637 16.1887 22.9637L16.2099 23.2437C16.1629 24.389 16.1863 25.5362 16.2799 26.6787C16.3987 28.1112 16.6212 29.3412 16.9049 29.9999L17.0987 29.8949C16.6812 28.5974 16.5112 26.8962 16.5862 24.9362C16.6987 21.9387 17.3887 18.3237 18.6624 14.5562C20.8162 8.8687 23.8037 4.30495 26.5374 2.12495C24.0462 4.37495 20.6724 11.6624 19.6624 14.3599C18.5324 17.3799 17.7312 20.2149 17.2487 22.9312C18.0812 20.3849 20.7749 19.2912 20.7749 19.2912C20.7749 19.2912 22.0962 17.6612 23.6399 15.3337C22.7149 15.5449 21.1962 15.9062 20.6874 16.1199C19.9374 16.4337 19.7349 16.5412 19.7349 16.5412C19.7349 16.5412 22.1662 15.0612 24.2512 14.3912C27.1187 9.87494 30.2437 3.4587 27.0974 0.651196ZM3.88115 1.32995C3.27331 1.33225 2.69103 1.57483 2.26133 2.00476C1.83164 2.43469 1.58938 3.0171 1.5874 3.62495V24.3849C1.58938 24.9926 1.83172 25.5747 2.26149 26.0042C2.69126 26.4338 3.27354 26.6758 3.88115 26.6774H15.6537C15.5654 25.5518 15.5437 24.4219 15.5887 23.2937C15.5812 23.2162 15.5749 23.1174 15.5687 23.0437C15.4162 22.0445 15.2189 21.0527 14.9774 20.0712C14.8262 19.4837 14.6337 18.9487 14.5162 18.7499C14.3712 18.5037 14.3937 18.3624 14.3949 18.2099C14.3949 18.0599 14.4137 17.9037 14.4412 17.7274C14.5152 17.2871 14.6128 16.8511 14.7337 16.4212L15.0049 16.3862C14.9837 16.3424 14.9874 16.3049 14.9662 16.2649L14.9149 15.7887C15.0645 15.2882 15.2237 14.7906 15.3924 14.2962L15.6424 14.2724C15.6324 14.2524 15.6299 14.2249 15.6199 14.2062L15.5662 13.8112C16.3537 9.71119 18.7999 4.50745 21.5662 1.57245C21.6487 1.4862 21.7324 1.41245 21.8137 1.32995H3.88115Z" fill="#17204E"/>
</svg>
