<svg width="24" height="24" viewBox="0 0 18 18" fill="none" xmlns="http://www.w3.org/2000/svg">
<path d="M2.57998 0.86574C1.91331 0.480941 1.08008 0.962073 1.08008 1.73182V5.10405C1.08008 5.46124 1.27059 5.7913 1.57988 5.96996L4.50063 7.65715C5.1673 8.04225 6.00083 7.56114 6.00083 6.79124V3.41768C6.00083 3.06037 5.81019 2.73021 5.50073 2.55159L2.57998 0.86574ZM16.9199 4.90325C16.92 4.13324 16.0863 3.65203 15.4196 4.03727L12.499 5.72477C12.1898 5.90345 11.9993 6.23348 11.9993 6.59062V9.96204C11.9993 10.7318 12.8326 11.213 13.4993 10.8281L16.4194 9.14237C16.7287 8.96377 16.9194 8.63369 16.9194 8.27646L16.9199 4.90325ZM8.04008 4.03853C7.37341 3.65363 6.54008 4.13475 6.54008 4.90455V8.27632C6.54008 8.63363 6.73072 8.96379 7.04018 9.14241L9.96093 10.8283C10.6276 11.2131 11.4608 10.7319 11.4608 9.96218V6.59085C11.4608 6.23358 11.2702 5.90346 10.9608 5.72482L8.04008 4.03853ZM8.04004 10.3422C7.37337 9.9573 6.54008 10.4384 6.54008 11.2082V14.5803C6.54008 14.9375 6.73057 15.2676 7.03982 15.4462L9.95982 17.1332C10.6265 17.5184 11.4601 17.0373 11.4601 16.2674V12.8939C11.4601 12.5366 11.2695 12.2065 10.96 12.0278L8.04004 10.3422Z" fill="#17204E"/>
</svg>
