<svg width="342" height="210" viewBox="0 0 342 210" fill="none" xmlns="http://www.w3.org/2000/svg">
<g clip-path="url(#clip0_518_81)">
<path d="M0 8C0 3.58172 3.58172 0 8 0H334C338.418 0 342 3.58172 342 8V210H0V8Z" fill="#17204E"/>
<path d="M18.7356 131.628C20.1971 131.237 21.0644 129.735 20.6728 128.273C20.2812 126.812 18.7789 125.944 17.3174 126.336C15.8559 126.727 14.9885 128.23 15.3802 129.691C15.7718 131.153 17.2741 132.02 18.7356 131.628Z" fill="#FFD6D6"/>
<path d="M65.2363 88.1767C66.441 87.8539 67.156 86.6155 66.8332 85.4108C66.5104 84.2061 65.272 83.4911 64.0673 83.8139C62.8626 84.1367 62.1476 85.3751 62.4704 86.5798C62.7932 87.7845 64.0316 88.4995 65.2363 88.1767Z" fill="#573FEB"/>
<path d="M10 4C11.6568 4 13 2.65683 13 0.999981C13 -0.65687 11.6568 -2 10 -2C8.34316 -2 7 -0.65687 7 0.999981C7 2.65683 8.34316 4 10 4Z" fill="#BDEEED"/>
<path d="M116 8C116.552 8 117 7.55228 117 6.99999C117 6.44771 116.552 6 116 6C115.448 6 115 6.44771 115 6.99999C115 7.55228 115.448 8 116 8Z" fill="#FCFF83"/>
<path d="M259.5 10C260.328 10 261 9.55228 261 8.99999C261 8.44771 260.328 8 259.5 8C258.672 8 258 8.44771 258 8.99999C258 9.55228 258.672 10 259.5 10Z" fill="#FFD6D6"/>
<path d="M320.126 133.747C321.174 133.142 321.656 132.014 321.202 131.228C320.748 130.442 319.53 130.295 318.482 130.9C317.434 131.505 316.952 132.633 317.406 133.42C317.86 134.206 319.078 134.353 320.126 133.747Z" fill="#FCFF83"/>
<path d="M313 117C314.657 117 316 115.657 316 114C316 112.343 314.657 111 313 111C311.343 111 310 112.343 310 114C310 115.657 311.343 117 313 117Z" fill="#BDEEED"/>
<path d="M333.5 143C334.328 143 335 142.552 335 142C335 141.448 334.328 141 333.5 141C332.672 141 332 141.448 332 142C332 142.552 332.672 143 333.5 143Z" fill="#FCFF83"/>
<path d="M237 22C238.657 22 240 20.8807 240 19.5C240 18.1193 238.657 17 237 17C235.343 17 234 18.1193 234 19.5C234 20.8807 235.343 22 237 22Z" fill="#573FEB"/>
<path d="M76.0473 45.259C79.1808 45.259 81.7209 42.7193 81.7209 39.5865C81.7209 36.4537 79.1808 33.9141 76.0473 33.9141C72.9138 33.9141 70.3736 36.4537 70.3736 39.5865C70.3736 42.7193 72.9138 45.259 76.0473 45.259Z" fill="#573FEB"/>
<path d="M81.7438 39.6022C81.7438 39.6022 83.7123 39.8372 83.6437 42.2393C83.5752 44.6415 77.9929 44.6382 74.304 42.5233C70.6152 40.4084 66.6292 40.6727 67.3605 38.127C68.0917 35.5812 71.1897 36.5963 71.1897 36.5963" stroke="#B2F6DD" stroke-width="0.62" stroke-miterlimit="10"/>
<path d="M73.9354 36.5372C73.7624 36.1717 73.5763 35.9367 73.4458 35.8029C74.0366 35.4569 74.5459 35.3264 74.5459 35.3264C75.189 35.4895 75.1629 36.0378 75.1629 36.0378C74.6928 36.1423 74.2913 36.3218 73.9354 36.5372Z" fill="#B3B8FD"/>
<path d="M71.8884 37.5002C72.1202 36.9356 72.4956 36.5048 72.8939 36.1816C73.0636 36.4232 73.2856 36.6941 73.4456 36.8834C71.8427 38.2215 71.5848 40.4866 71.5848 40.4866C71.4902 40.1537 71.3269 38.871 71.8884 37.5002Z" fill="#B3B8FD"/>
<path d="M144.221 153.634C144.221 153.634 155.095 148.617 155.102 152.37C155.102 152.37 158.985 147.516 154.92 155.868L151.467 163.269L140.864 174.583L143.856 153.597" fill="#FFD6D6"/>
<path d="M144.221 153.634C144.221 153.634 155.095 148.617 155.102 152.37C155.102 152.37 158.985 147.516 154.92 155.868L151.467 163.269L140.864 174.583L143.856 153.597" stroke="#091139" stroke-width="0.296324" stroke-miterlimit="10"/>
<path d="M163.299 140.94C163.299 140.94 158.473 158.041 149.966 169.655C149.966 169.655 148.001 158.287 148.247 153.762L140.725 162.006C140.725 162.006 142.954 146.132 144.759 140.536C146.568 134.942 152.478 131.17 152.478 131.17C152.478 131.17 166.02 130.757 163.295 140.946L163.299 140.94V140.94Z" fill="#66D0DE" stroke="black" stroke-width="0.223824" stroke-miterlimit="10"/>
<path d="M168.673 133.577C168.673 133.577 167.983 141.782 163.544 148.5L161.771 139.469L152.42 154.89L152.157 137.59L140.591 147.649C140.591 147.649 143.158 132.185 147.585 125.512C147.585 125.512 167.024 128.919 168.687 133.573L168.677 133.576L168.673 133.577Z" fill="#FFD6D6" stroke="#091139" stroke-width="0.223824" stroke-miterlimit="10"/>
<path d="M152.581 108.173C151.545 111.183 149.318 112.777 146.148 113.084C142.974 113.389 139.544 119.26 141.185 122.911C142.91 126.751 147.526 129.596 159.837 133.525C172.157 137.459 175.446 134.704 177.44 130.22C179.433 125.735 175.587 122.216 175.587 122.216C175.587 122.216 173.157 119.661 174.031 115.594" fill="#66D0DE"/>
<path d="M152.581 108.173C151.545 111.183 149.318 112.777 146.148 113.084C142.974 113.389 139.544 119.26 141.185 122.911C142.91 126.751 147.526 129.596 159.837 133.525C172.157 137.459 175.446 134.704 177.44 130.22C179.433 125.735 175.587 122.216 175.587 122.216C175.587 122.216 173.157 119.661 174.031 115.594" stroke="black" stroke-width="0.296324" stroke-miterlimit="10"/>
<path d="M232.479 115.158C228.761 126.135 197.517 125.385 162.694 113.501C127.873 101.614 102.655 83.0869 106.373 72.1103L110.263 60.8807L236.204 103.622L232.479 115.158Z" fill="#66D0DE" stroke="black" stroke-width="0.223824" stroke-miterlimit="10"/>
<path d="M110.172 60.6865C106.454 71.6631 131.672 90.1904 166.493 102.077C201.322 113.964 232.564 114.705 236.278 103.734C239.996 92.7576 214.753 73.393 179.928 61.4997C145.106 49.6128 113.89 49.71 110.172 60.6865Z" fill="#FFD6D6" stroke="#091139" stroke-width="0.223824" stroke-miterlimit="10"/>
<path d="M199.315 81.5689L221.578 111.25" stroke="#091139" stroke-width="0.223824" stroke-miterlimit="10"/>
<path d="M176.013 79.3436L172.359 104.129" stroke="#091139" stroke-width="0.223824" stroke-miterlimit="10"/>
<path d="M154.797 66.9512L119.219 77.478" stroke="#091139" stroke-width="0.223824" stroke-miterlimit="10"/>
<path d="M142.571 59.2018C147.349 44.1571 166.275 36.7805 184.839 42.7302C203.403 48.6799 214.576 65.6998 209.795 80.7507C209.795 80.7507 203.984 89.1227 174.978 80.0659C146.353 71.1275 142.562 59.2046 142.562 59.2046L142.571 59.2018Z" fill="#17204E" stroke="#FFD6D6" stroke-width="0.223824" stroke-miterlimit="10"/>
<mask id="mask0_518_81" style="mask-type:alpha" maskUnits="userSpaceOnUse" x="142" y="40" width="69" height="44">
<path d="M142.491 58.7253C147.269 43.6805 166.195 36.3039 184.759 42.2536C203.323 48.2034 214.496 65.2233 209.715 80.2742C209.715 80.2742 203.904 88.6461 174.898 79.5894C146.273 70.651 142.482 58.728 142.482 58.728L142.491 58.7253Z" fill="#17204E" stroke="#FFD6D6" stroke-width="0.296324" stroke-miterlimit="10"/>
</mask>
<g mask="url(#mask0_518_81)">
<path d="M164.624 53.4715C164.624 53.4715 169.379 53.9683 171.576 59.4407C173.77 64.9128 171.126 71.0026 166.958 72.6424C162.79 74.2822 156.905 73.4876 154.599 68.916C152.288 64.3217 154.104 53.1584 164.624 53.4715Z" fill="#FCFF83"/>
<path d="M154.401 61.1222C154.401 61.1222 147.26 61.9824 148.023 69.2078C148.725 75.8385 153.719 75.3457 157.516 77.897" stroke="#FCFF83" stroke-width="0.223824" stroke-miterlimit="10" stroke-linecap="round"/>
<path d="M157.317 56.2394C157.317 56.2394 152.302 54.7259 148.239 60.7291C144.276 66.5847 145.218 70.673 147.447 74.6962" stroke="#FCFF83" stroke-width="0.223824" stroke-miterlimit="10" stroke-linecap="round"/>
<path d="M170.059 69.9978C170.059 69.9978 171.734 75.9583 166.589 78.1089" stroke="#FCFF83" stroke-width="0.223824" stroke-miterlimit="10" stroke-linecap="round"/>
<path d="M156.123 70.2901C156.123 70.2901 155.148 74.4648 160.363 79.6055" stroke="#FCFF83" stroke-width="0.223824" stroke-miterlimit="10" stroke-linecap="round"/>
<path d="M158.432 62.6452C158.434 61.0334 159.309 59.7165 160.386 59.7038C161.464 59.6911 162.336 60.9874 162.334 62.5992C162.332 64.211 161.457 65.5279 160.38 65.5406C159.302 65.5533 158.43 64.257 158.432 62.6452Z" fill="#FBFCEC" stroke="#17204E" stroke-width="0.134294" stroke-miterlimit="10" stroke-linecap="round"/>
<path d="M165.054 63.0133C165.433 61.4351 166.593 60.3197 167.645 60.522C168.697 60.7243 169.242 62.1677 168.863 63.7459C168.484 65.3241 167.324 66.4395 166.272 66.2372C165.221 66.0349 164.675 64.5915 165.054 63.0133Z" fill="#FBFCEC" stroke="#17204E" stroke-width="0.134294" stroke-miterlimit="10" stroke-linecap="round"/>
<path d="M162.243 62.0002C162.243 62.0002 161.482 60.8734 160.1 61.7811C158.723 62.6898 159.983 65.505 160.074 65.5105C160.165 65.5159 162.482 65.4813 162.243 62.0002Z" fill="#17204E" stroke="#17204E" stroke-width="0.134294" stroke-miterlimit="10" stroke-linecap="round"/>
<path d="M168.846 63.0796C168.846 63.0796 168.408 62.2081 167.032 62.8682C165.658 63.5292 166.049 65.8061 166.167 66.1681C166.587 66.403 168.618 66.0553 168.846 63.0796Z" fill="#17204E" stroke="#17204E" stroke-width="0.134294" stroke-miterlimit="10" stroke-linecap="round"/>
<path d="M156.235 65.1893L156.444 60.8647C156.449 60.7479 156.553 60.6607 156.669 60.6753L163.144 61.4937C163.254 61.5076 163.332 61.6081 163.318 61.7181L162.775 65.9679C162.761 66.0773 162.662 66.1549 162.552 66.1417L156.411 65.3981C156.306 65.3855 156.229 65.2943 156.235 65.1893Z" stroke="#17204E" stroke-width="0.134294"/>
<path d="M170.171 67.187L171.457 63.0943C171.493 62.9801 171.421 62.86 171.304 62.8372L165.045 61.6264C164.934 61.6048 164.827 61.6796 164.809 61.7914L164.116 66.0941C164.098 66.2023 164.171 66.3045 164.279 66.3235L169.945 67.3244C170.044 67.3419 170.141 67.2832 170.171 67.187Z" stroke="#17204E" stroke-width="0.134294"/>
<path d="M167.965 70.4397C168.105 71.7196 167.479 74.8848 163.851 77.3062" stroke="#FCFF83" stroke-width="0.223824"/>
<path d="M171.034 67.4817C172.409 67.6445 174.74 69.3732 173.064 74.9847C171.389 80.5963 167.084 82.4025 165.141 82.6041" stroke="#FCFF83" stroke-width="0.223824"/>
<path d="M171.821 65.4625C172.741 66.5174 175.147 67.7554 177.419 64.2675C180.258 59.9077 178.467 59.531 179.762 56.4989" stroke="#FCFF83" stroke-width="0.223824"/>
<path d="M153.937 63.3751C151.153 65.3263 145.513 70.6396 147.923 74.2956C150.334 77.9516 154.923 74.7861 154.949 71.4401" stroke="#FCFF83" stroke-width="0.134294"/>
<path d="M194.585 65.3736C194.585 65.3736 199.054 67.0717 199.776 72.9244C200.495 78.7757 196.38 83.9852 191.93 84.5027C187.481 85.0201 181.996 82.7447 180.938 77.7349C179.881 72.7019 184.496 62.3762 194.585 65.3736Z" fill="#FCFF83"/>
<path d="M199.72 74.9028C199.72 74.9028 206.456 77.9021 203.698 84.8984C201.166 91.3162 196.501 89.4512 192.132 90.9501" stroke="#FCFF83" stroke-width="0.223824" stroke-miterlimit="10" stroke-linecap="round"/>
<path d="M183.209 72.1273C183.209 72.1273 176.086 71.1299 174.973 78.3095C173.953 84.8988 178.907 85.7017 181.924 89.1404" stroke="#FCFF83" stroke-width="0.223824" stroke-miterlimit="10" stroke-linecap="round"/>
<path d="M183.423 74.7685C183.423 74.7685 176.321 73.8102 175.21 80.9912C174.191 87.5805 179.144 88.3834 182.161 91.8221" stroke="#FCFF83" stroke-width="0.223824" stroke-miterlimit="10" stroke-linecap="round"/>
<path d="M199.187 77.6195C199.187 77.6195 204.868 81.6866 200.755 88.7776C196.979 95.2825 192.741 92.523 188.135 93.4328" stroke="#FCFF83" stroke-width="0.223824" stroke-miterlimit="10" stroke-linecap="round"/>
<path d="M199.314 71.1597C199.314 71.1597 204.554 73.2254 205.193 77.295C205.832 81.3646 202.296 84.7692 198.889 85.6456" stroke="#FCFF83" stroke-width="0.223824" stroke-miterlimit="10" stroke-linecap="round"/>
<path d="M195.605 82.7404C195.605 82.7404 195.697 88.9312 190.173 89.6921" stroke="#FCFF83" stroke-width="0.175032" stroke-miterlimit="10" stroke-linecap="round"/>
<path d="M182.431 80.4616C182.431 80.4616 180.419 84.2472 184.143 90.552" stroke="#FCFF83" stroke-width="0.175032" stroke-miterlimit="10" stroke-linecap="round"/>
<path d="M185.613 72.9849C185.856 71.2337 186.919 69.9288 187.987 70.0703C189.056 70.2117 189.725 71.746 189.482 73.4972C189.239 75.2484 188.176 76.5533 187.108 76.4118C186.039 76.2703 185.37 74.736 185.613 72.9849Z" fill="#FBFCEC" stroke="#17204E" stroke-width="0.134294" stroke-miterlimit="10" stroke-linecap="round"/>
<path d="M192.111 74.3381C192.722 72.6777 194.037 71.6328 195.047 72.0043C196.058 72.3757 196.382 74.0228 195.771 75.6831C195.16 77.3435 193.845 78.3883 192.834 78.0169C191.824 77.6455 191.5 75.9984 192.111 74.3381Z" fill="#FBFCEC" stroke="#17204E" stroke-width="0.134294" stroke-miterlimit="10" stroke-linecap="round"/>
<path d="M188.055 73.2158C188.4 71.113 187.356 70.5462 186.944 70.3857C186.689 70.4993 186.076 71.0703 185.667 72.445C185.258 73.8196 185.782 75.2599 186.096 75.8083C186.836 75.937 187.71 75.3186 188.055 73.2158Z" fill="#17204E"/>
<path d="M194.572 74.9554C195.013 73.4708 194.127 72.5446 193.719 72.2256C191.791 73.0723 191.379 76.5876 192.134 77.521C192.889 78.4544 194.062 76.6744 194.572 74.9554Z" fill="#17204E"/>
<path d="M182.715 72.5726C180.802 72.0934 177.468 69.6969 179.44 63.945C181.411 58.1931 180.9 57.216 180.397 57.4464" stroke="#FCFF83" stroke-width="0.223824"/>
<path d="M179.632 54.9232L178.047 52.0527M181.031 54.7296L181.785 49.8718M182.842 54.7643L184.889 52.7224" stroke="white" stroke-width="0.10029"/>
</g>
<path d="M142.562 59.21C147.344 44.1639 166.272 36.7921 184.834 42.737C203.393 48.6881 214.574 65.7084 209.792 80.7545C209.792 80.7545 203.987 89.1298 174.974 80.0649C146.346 71.1248 142.556 59.2066 142.556 59.2066L142.562 59.21Z" fill="url(#paint0_radial_518_81)"/>
<path d="M142.571 59.2018C147.349 44.1571 166.275 36.7805 184.839 42.7302C203.403 48.6799 214.576 65.6998 209.795 80.7507C209.795 80.7507 203.984 89.1227 174.978 80.0659C146.353 71.1275 142.562 59.2046 142.562 59.2046L142.571 59.2018Z" stroke="#FFD6D6" stroke-width="0.223824" stroke-miterlimit="10"/>
</g>
<path d="M8 0.5H334C338.142 0.5 341.5 3.85787 341.5 8V209.5H0.5V8C0.5 3.85786 3.85786 0.5 8 0.5Z" stroke="#E1E4F5"/>
<defs>
<radialGradient id="paint0_radial_518_81" cx="0" cy="0" r="1" gradientUnits="userSpaceOnUse" gradientTransform="translate(182.054 59.3224) rotate(10.1812) scale(44.9485 25.4686)">
<stop offset="0.46" stop-color="#0E163D" stop-opacity="0"/>
<stop offset="1" stop-color="#091139"/>
</radialGradient>
<clipPath id="clip0_518_81">
<path d="M0 8C0 3.58172 3.58172 0 8 0H334C338.418 0 342 3.58172 342 8V210H0V8Z" fill="white"/>
</clipPath>
</defs>
</svg>
