<svg width="40" height="40" viewBox="0 0 40 40" fill="none" xmlns="http://www.w3.org/2000/svg">
<path d="M0.497512 0H4.14594C4.39469 0 4.64345 0.237154 4.64345 0.474308V39.5257C4.64345 39.7628 4.39469 40 4.14594 40H0.497512C0.248756 40 0 39.8419 0 39.5257V0.474308C0 0.237154 0.248756 0 0.497512 0Z" fill="#263066"/>
<path d="M9.33662 0H12.985C13.2338 0 13.4826 0.237154 13.4826 0.474308V39.5257C13.4826 39.7628 13.2338 40 12.985 40H9.33662C9.08787 40 8.83911 39.7628 8.83911 39.5257V0.474308C8.92203 0.237154 9.08787 0 9.33662 0Z" fill="#263066"/>
<path d="M18.1758 0H21.8242C22.073 0 22.3217 0.237154 22.3217 0.474308V39.5257C22.3217 39.7628 22.073 40 21.8242 40H18.1758C17.927 40 17.6783 39.7628 17.6783 39.5257V0.474308C17.6783 0.237154 17.927 0 18.1758 0Z" fill="#263066"/>
<path d="M27.0149 0H30.6633C30.9121 0 31.1608 0.237154 31.1608 0.474308V39.5257C31.1608 39.7628 30.9121 40 30.6633 40H27.0149C26.7661 40 26.5174 39.7628 26.5174 39.5257V0.474308C26.5174 0.237154 26.7661 0 27.0149 0Z" fill="#263066"/>
<path d="M35.854 15.5352H39.5025C39.7512 15.5352 40 15.7723 40 16.0095V23.9937C40 24.2308 39.7512 24.468 39.5025 24.468H35.854C35.6053 24.468 35.3565 24.2308 35.3565 23.9937V16.0095C35.3565 15.7723 35.6053 15.5352 35.854 15.5352Z" fill="#263066"/>
</svg>
