<svg width="50" height="62" viewBox="0 0 50 62" fill="none" xmlns="http://www.w3.org/2000/svg">
<rect x="7.21729" width="43" height="20" rx="10" transform="rotate(6.25389 7.21729 0)" fill="#56608F"/>
<path d="M14.3986 14.8708L15.3493 6.19545L18.8228 6.5761C19.4611 6.64604 19.983 6.79898 20.3887 7.03492C20.7944 7.27086 21.0861 7.56862 21.2639 7.92819C21.442 8.28495 21.5073 8.68077 21.4596 9.11567C21.4225 9.45455 21.322 9.74505 21.1583 9.98718C20.9949 10.2265 20.7856 10.415 20.5305 10.5528C20.2784 10.6881 19.9976 10.7731 19.688 10.8078L19.6787 10.8925C20.0076 10.9428 20.3066 11.0699 20.5758 11.2737C20.8478 11.4779 21.0571 11.7451 21.2038 12.0756C21.3508 12.4032 21.401 12.7802 21.3542 13.2067C21.3038 13.667 21.1444 14.0653 20.876 14.4017C20.6108 14.7356 20.2451 14.9828 19.7788 15.1432C19.3125 15.3035 18.7546 15.3482 18.1051 15.277L14.3986 14.8708ZM16.3971 13.5722L17.8924 13.7361C18.4036 13.7921 18.787 13.7355 19.0428 13.5664C19.2988 13.3944 19.4448 13.1446 19.4807 12.817C19.507 12.577 19.4723 12.3588 19.3767 12.1626C19.281 11.9663 19.1316 11.8042 18.9284 11.6762C18.728 11.5485 18.481 11.4686 18.1873 11.4364L16.6497 11.2679L16.3971 13.5722ZM16.7857 10.0267L18.1454 10.1757C18.3968 10.2033 18.6247 10.1839 18.8291 10.1178C19.0367 10.049 19.2059 9.93899 19.3368 9.78757C19.4706 9.63647 19.55 9.44655 19.575 9.2178C19.6094 8.90434 19.5255 8.63936 19.3235 8.42288C19.1243 8.20671 18.8213 8.07634 18.4147 8.03178L17.021 7.87906L16.7857 10.0267ZM25.2024 16.1833C24.5331 16.11 23.9718 15.9113 23.5186 15.5873C23.0686 15.2608 22.741 14.8333 22.536 14.305C22.3313 13.7739 22.2665 13.1652 22.3417 12.4789C22.4151 11.8096 22.6093 11.2365 22.9246 10.7595C23.2398 10.2824 23.6486 9.92857 24.1512 9.69785C24.6566 9.46744 25.2284 9.38721 25.8666 9.45715C26.2958 9.50419 26.6879 9.61717 27.0426 9.79608C27.4006 9.97249 27.7029 10.2128 27.9496 10.5171C28.1992 10.8216 28.3789 11.19 28.4887 11.6221C28.5988 12.0515 28.6236 12.5429 28.5629 13.0964L28.5086 13.592L23.0145 12.9899L23.1371 11.8716L26.9325 12.2875C26.961 12.0277 26.9297 11.7914 26.8387 11.5785C26.7477 11.3656 26.6082 11.1917 26.4201 11.0568C26.2351 10.9193 26.0113 10.8362 25.7486 10.8074C25.4747 10.7774 25.2249 10.8144 24.9991 10.9182C24.7766 11.0196 24.5944 11.1697 24.4525 11.3685C24.311 11.5644 24.2248 11.7908 24.1938 12.0474L24.0773 13.1107C24.042 13.4326 24.0708 13.7173 24.1637 13.9647C24.2595 14.2124 24.4105 14.4118 24.6169 14.563C24.8232 14.7143 25.0775 14.8064 25.3796 14.8395C25.5801 14.8615 25.7668 14.8534 25.9396 14.8152C26.1124 14.7769 26.2643 14.7079 26.3953 14.6079C26.5263 14.5079 26.6318 14.3795 26.7119 14.2225L28.3688 14.5155C28.2401 14.9072 28.0281 15.2384 27.7327 15.5089C27.4404 15.777 27.0789 15.9717 26.6484 16.0932C26.2209 16.2121 25.7389 16.2421 25.2024 16.1833ZM33.5541 10.3853L33.4056 11.7409L29.4873 11.3115L29.6358 9.95594L33.5541 10.3853ZM30.6962 8.49458L32.5008 8.69233L31.836 14.7583C31.8178 14.9249 31.8289 15.0576 31.8696 15.1564C31.9105 15.2523 31.9741 15.3236 32.0605 15.3702C32.1496 15.4171 32.2549 15.4472 32.3764 15.4605C32.4611 15.4698 32.5466 15.472 32.6328 15.4672C32.7194 15.4595 32.7858 15.454 32.8319 15.4504L32.9685 16.8244C32.8751 16.8427 32.7444 16.8612 32.5766 16.88C32.4085 16.9016 32.2068 16.9038 31.9715 16.8866C31.5347 16.8558 31.1598 16.7562 30.8468 16.5875C30.5365 16.4192 30.3064 16.1854 30.1563 15.886C30.0062 15.5866 29.9559 15.2239 30.0055 14.7978L30.6962 8.49458ZM35.8585 17.3468C35.4434 17.3013 35.0813 17.1888 34.7723 17.0092C34.4637 16.8267 34.2304 16.5825 34.0724 16.2766C33.9176 15.9681 33.8637 15.5992 33.9108 15.17C33.9504 14.8085 34.05 14.5122 34.2096 14.2811C34.3693 14.0499 34.5717 13.872 34.8168 13.7474C35.062 13.6228 35.3342 13.5383 35.6334 13.494C35.9355 13.4499 36.2492 13.43 36.5745 13.4342C36.9572 13.4361 37.2663 13.4329 37.5015 13.4243C37.7371 13.413 37.911 13.3778 38.0233 13.3186C38.1355 13.2595 38.1992 13.1607 38.2144 13.0223L38.2171 12.9969C38.2465 12.7286 38.1846 12.5118 38.0312 12.3464C37.8807 12.1813 37.6515 12.0818 37.3437 12.0481C37.0189 12.0125 36.7527 12.0562 36.5448 12.1792C36.3373 12.2993 36.1908 12.4633 36.1051 12.6711L34.451 12.3527C34.579 11.9666 34.7831 11.6432 35.0632 11.3824C35.3436 11.1187 35.6885 10.9307 36.0981 10.8184C36.5108 10.7036 36.9769 10.6747 37.4965 10.7316C37.858 10.7712 38.1993 10.8515 38.5204 10.9724C38.8444 11.0937 39.1251 11.2573 39.3626 11.4634C39.6029 11.6698 39.7826 11.921 39.9016 12.217C40.021 12.5101 40.0594 12.8501 40.017 13.237L39.5361 17.6255L37.8248 17.438L37.9236 16.5357L37.8728 16.5301C37.746 16.722 37.5866 16.886 37.3945 17.0222C37.2027 17.1555 36.9792 17.2524 36.7239 17.313C36.4689 17.3708 36.1804 17.3821 35.8585 17.3468ZM36.5118 16.1581C36.7772 16.1872 37.0174 16.1606 37.2321 16.0784C37.4472 15.9934 37.6226 15.8668 37.7581 15.6988C37.8937 15.5307 37.9741 15.3323 37.9991 15.1036L38.0748 14.4131C38.0143 14.4436 37.9329 14.469 37.8307 14.4893C37.7316 14.507 37.6199 14.5219 37.4957 14.534C37.3718 14.5433 37.248 14.5512 37.1244 14.5576C37.0011 14.5613 36.8893 14.5647 36.7889 14.568C36.5737 14.5759 36.3833 14.605 36.2177 14.6555C36.0522 14.7059 35.9193 14.7842 35.819 14.8904C35.7191 14.9938 35.6599 15.1302 35.6413 15.2996C35.6144 15.5453 35.6828 15.7428 35.8464 15.8922C36.0132 16.0391 36.235 16.1277 36.5118 16.1581Z" fill="white"/>
<path d="M19.4731 29.6877C19.4731 29.6877 24.7871 30.0311 27.468 35.8692C30.149 41.7073 27.4749 48.4073 22.9112 50.3533C18.3475 52.2994 11.7714 51.6799 9.00864 46.8182C6.23222 41.9363 7.76027 29.7753 19.4731 29.6877Z" fill="#FFE86E"/>
<path d="M26.0837 37.998C26.0837 37.998 36.2546 38.9809 35.4454 47.1552C34.7043 54.6586 27.7448 54.1977 22.5571 57.1597" stroke="#FFE86E" stroke-width="1.21376" stroke-miterlimit="10" stroke-linecap="round"/>
<path d="M9.49624 38.4768C9.49624 38.4768 0.245119 39.6809 1.61802 47.3357C2.87119 54.3686 9.34458 53.6409 14.4131 56.2013" stroke="#FFE86E" stroke-width="1.21376" stroke-miterlimit="10" stroke-linecap="round"/>
<path d="M11.6359 41.3496C11.6359 41.3496 -0.635877 42.5845 1.18414 50.2251C2.85515 57.2449 11.4869 56.5185 18.2455 59.0741" stroke="#FFE86E" stroke-width="1.21376" stroke-miterlimit="10" stroke-linecap="round"/>
<path d="M28.3757 40.9238C28.3757 40.9238 35.7499 43.3412 33.6966 51.994C31.8138 59.933 26.3974 58.4112 21.7928 60.8151" stroke="#FFE86E" stroke-width="1.21376" stroke-miterlimit="10" stroke-linecap="round"/>
<path d="M25.9398 46.8672C25.9398 46.8672 28.9961 53.7501 22.0776 56.2017" stroke="#FFE86E" stroke-width="1.21376" stroke-miterlimit="10" stroke-linecap="round"/>
<path d="M11.6008 49.0156C11.6008 49.0156 10.4329 53.646 18.2455 59.0755" stroke="#FFE86E" stroke-width="1.21376" stroke-miterlimit="10" stroke-linecap="round"/>
<path d="M12.4283 40.4141C12.1141 38.5241 12.8177 36.8368 14 36.6452C15.1822 36.4537 16.3954 37.8306 16.7096 39.7205C17.0238 41.6105 16.3201 43.2978 15.1379 43.4894C13.9556 43.6809 12.7425 42.304 12.4283 40.4141Z" fill="white" stroke="#091139" stroke-width="0.716118" stroke-miterlimit="10"/>
<path d="M21.7448 43.3407C20.5485 43.2758 19.6652 41.6728 19.7718 39.7605C19.8784 37.8481 20.9346 36.3506 22.1309 36.4155C23.3271 36.4805 24.2104 38.0835 24.1038 39.9958C23.9972 41.9081 22.941 43.4057 21.7448 43.3407Z" fill="white" stroke="#091139" stroke-width="0.716118" stroke-miterlimit="10"/>
<path d="M20.0326 40.8245C20.0326 40.8245 21.0422 41.875 22.1746 40.6091C23.307 39.3431 21.7381 36.5217 21.6494 36.5352C21.5607 36.5487 18.9821 37.1278 20.0326 40.8245Z" fill="#091139"/>
<path d="M12.3096 40.7512C12.3096 40.7512 13.15 42.0112 14.4794 40.8786C15.8156 39.746 14.6998 36.5605 14.6102 36.5605C14.5207 36.5605 11.855 36.7446 12.3096 40.7512Z" fill="#091139"/>
<path d="M26.6288 36.0822C26.6288 36.0822 40.0847 33.6982 41.5 23.6133" stroke="#FFE86E" stroke-width="1.21376" stroke-miterlimit="10" stroke-linecap="round"/>
<path d="M9.90225 36.5353C9.90225 36.5353 0.017671 31.209 10.1547 20.4082" stroke="#FFE86E" stroke-width="1.21376" stroke-miterlimit="10" stroke-linecap="round"/>
</svg>
