<svg width="342" height="210" viewBox="0 0 342 210" fill="none" xmlns="http://www.w3.org/2000/svg">
<path d="M8 0.5H334C338.142 0.5 341.5 3.85787 341.5 8V209.5H0.5V8C0.5 3.85786 3.85786 0.5 8 0.5Z" fill="#17204E"/>
<path d="M8 0.5H334C338.142 0.5 341.5 3.85787 341.5 8V209.5H0.5V8C0.5 3.85786 3.85786 0.5 8 0.5Z" stroke="#E1E4F5"/>
<path d="M56.7266 71.5781C56.6589 72.1042 56.5234 72.5885 56.3203 73.0312C56.1172 73.4688 55.8542 73.8438 55.5312 74.1562C55.2031 74.474 54.8151 74.7214 54.3672 74.8984C53.9245 75.0703 53.4297 75.1562 52.8828 75.1562C52.4141 75.1562 51.987 75.0911 51.6016 74.9609C51.2214 74.8255 50.8828 74.6406 50.5859 74.4062C50.2839 74.1719 50.0234 73.8958 49.8047 73.5781C49.5911 73.2604 49.4141 72.9141 49.2734 72.5391C49.1276 72.1641 49.0182 71.7708 48.9453 71.3594C48.8776 70.9479 48.8411 70.5312 48.8359 70.1094V68.5234C48.8411 68.1016 48.8776 67.6849 48.9453 67.2734C49.0182 66.862 49.1276 66.4688 49.2734 66.0938C49.4141 65.7188 49.5911 65.3724 49.8047 65.0547C50.0234 64.7318 50.2839 64.4531 50.5859 64.2188C50.8828 63.9844 51.2214 63.8021 51.6016 63.6719C51.9818 63.5365 52.4089 63.4688 52.8828 63.4688C53.4505 63.4688 53.9583 63.5573 54.4062 63.7344C54.8542 63.9062 55.2396 64.151 55.5625 64.4688C55.8854 64.7917 56.1432 65.1771 56.3359 65.625C56.5339 66.0729 56.6641 66.5677 56.7266 67.1094H55.2812C55.2344 66.7656 55.1536 66.4453 55.0391 66.1484C54.9245 65.8516 54.7708 65.5911 54.5781 65.3672C54.3854 65.1432 54.1484 64.9688 53.8672 64.8438C53.5911 64.7135 53.263 64.6484 52.8828 64.6484C52.5391 64.6484 52.2344 64.7057 51.9688 64.8203C51.7083 64.9297 51.4844 65.0807 51.2969 65.2734C51.1042 65.4661 50.9427 65.6901 50.8125 65.9453C50.6875 66.2005 50.5859 66.4714 50.5078 66.7578C50.4297 67.0443 50.3724 67.3385 50.3359 67.6406C50.3047 67.9375 50.2891 68.2266 50.2891 68.5078V70.1094C50.2891 70.3906 50.3047 70.6823 50.3359 70.9844C50.3724 71.2812 50.4297 71.5729 50.5078 71.8594C50.5859 72.151 50.6875 72.4245 50.8125 72.6797C50.9375 72.9349 51.0964 73.1589 51.2891 73.3516C51.4818 73.5495 51.7083 73.7057 51.9688 73.8203C52.2292 73.9297 52.5339 73.9844 52.8828 73.9844C53.263 73.9844 53.5911 73.9245 53.8672 73.8047C54.1484 73.6849 54.3854 73.5156 54.5781 73.2969C54.7708 73.0833 54.9245 72.8307 55.0391 72.5391C55.1536 72.2422 55.2344 71.9219 55.2812 71.5781H56.7266ZM62.7344 70.3594H60.4609V75H59.0234V63.625H62.3594C62.8906 63.6354 63.3906 63.7109 63.8594 63.8516C64.3281 63.9922 64.7396 64.2031 65.0938 64.4844C65.4427 64.7656 65.7161 65.1198 65.9141 65.5469C66.1172 65.9688 66.2188 66.4661 66.2188 67.0391C66.2188 67.4089 66.1641 67.7474 66.0547 68.0547C65.9505 68.362 65.8047 68.6406 65.6172 68.8906C65.4297 69.1406 65.2057 69.362 64.9453 69.5547C64.6849 69.7474 64.3984 69.9115 64.0859 70.0469L66.5 74.9062L66.4922 75H64.9688L62.7344 70.3594ZM60.4609 69.1719H62.3984C62.7214 69.1667 63.026 69.1172 63.3125 69.0234C63.599 68.9245 63.8516 68.7839 64.0703 68.6016C64.2839 68.4193 64.4531 68.1979 64.5781 67.9375C64.7031 67.6719 64.7656 67.3672 64.7656 67.0234C64.7656 66.6589 64.7057 66.3411 64.5859 66.0703C64.4661 65.7943 64.2995 65.5625 64.0859 65.375C63.8724 65.1927 63.6172 65.0547 63.3203 64.9609C63.0286 64.8672 62.7083 64.8177 62.3594 64.8125H60.4609V69.1719ZM74.8359 69.7422H70.0859V73.7734H75.625V75H68.6406V63.625H75.5547V64.8594H70.0859V68.5156H74.8359V69.7422ZM83.6172 72.0547H79.8203L78.9062 75H77.4609L81.1328 63.625H82.3438L85.9531 75H84.5156L83.6172 72.0547ZM80.2109 70.7969H83.2344L81.7344 65.8594L80.2109 70.7969ZM95.4688 64.8594H91.9531V75H90.5469V64.8594H87.0312V63.625H95.4688V64.8594ZM103.664 69.7422H98.9141V73.7734H104.453V75H97.4688V63.625H104.383V64.8594H98.9141V68.5156H103.664V69.7422ZM120.047 64.5V66.5469H123.266V67.6641H120.047V72.2578C120.047 72.5859 120.089 72.8568 120.172 73.0703C120.255 73.2839 120.37 73.4531 120.516 73.5781C120.661 73.7083 120.828 73.7995 121.016 73.8516C121.208 73.9036 121.411 73.9297 121.625 73.9297C121.781 73.9297 121.943 73.9219 122.109 73.9062C122.276 73.8854 122.44 73.862 122.602 73.8359C122.758 73.8099 122.904 73.7839 123.039 73.7578C123.18 73.7266 123.294 73.7005 123.383 73.6797L123.586 74.7031C123.466 74.776 123.32 74.8411 123.148 74.8984C122.977 74.9505 122.789 74.9948 122.586 75.0312C122.383 75.0729 122.167 75.1042 121.938 75.125C121.714 75.1458 121.49 75.1562 121.266 75.1562C120.891 75.1562 120.539 75.1042 120.211 75C119.888 74.8906 119.607 74.7188 119.367 74.4844C119.128 74.2552 118.938 73.9583 118.797 73.5938C118.661 73.224 118.594 72.7786 118.594 72.2578V67.6641H116.375V66.5469H118.594V64.5H120.047ZM131.789 75C131.732 74.8906 131.685 74.7552 131.648 74.5938C131.617 74.4271 131.594 74.2552 131.578 74.0781C131.432 74.224 131.268 74.362 131.086 74.4922C130.909 74.6224 130.714 74.737 130.5 74.8359C130.281 74.9349 130.049 75.013 129.805 75.0703C129.56 75.1276 129.299 75.1562 129.023 75.1562C128.576 75.1562 128.169 75.0911 127.805 74.9609C127.445 74.8307 127.141 74.6536 126.891 74.4297C126.635 74.2109 126.438 73.9505 126.297 73.6484C126.161 73.3411 126.094 73.0104 126.094 72.6562C126.094 72.1927 126.185 71.7865 126.367 71.4375C126.555 71.0885 126.818 70.7969 127.156 70.5625C127.495 70.3333 127.901 70.1615 128.375 70.0469C128.854 69.9323 129.388 69.875 129.977 69.875H131.555V69.2109C131.555 68.9557 131.508 68.7266 131.414 68.5234C131.32 68.3203 131.188 68.1458 131.016 68C130.844 67.8594 130.633 67.75 130.383 67.6719C130.138 67.5938 129.862 67.5547 129.555 67.5547C129.268 67.5547 129.01 67.5911 128.781 67.6641C128.557 67.737 128.367 67.8333 128.211 67.9531C128.055 68.0729 127.932 68.2161 127.844 68.3828C127.76 68.5443 127.719 68.7135 127.719 68.8906H126.266C126.271 68.5833 126.349 68.2812 126.5 67.9844C126.656 67.6875 126.88 67.4193 127.172 67.1797C127.458 66.9453 127.807 66.7552 128.219 66.6094C128.635 66.4635 129.107 66.3906 129.633 66.3906C130.112 66.3906 130.557 66.4505 130.969 66.5703C131.38 66.6849 131.737 66.8594 132.039 67.0938C132.336 67.3333 132.57 67.6302 132.742 67.9844C132.914 68.3385 133 68.7526 133 69.2266V73.1562C133 73.4375 133.026 73.737 133.078 74.0547C133.13 74.3672 133.203 74.6406 133.297 74.875V75H131.789ZM129.234 73.8984C129.516 73.8984 129.779 73.862 130.023 73.7891C130.268 73.7161 130.492 73.6198 130.695 73.5C130.893 73.3802 131.065 73.2448 131.211 73.0938C131.357 72.9375 131.471 72.776 131.555 72.6094V70.8984H130.211C129.711 70.8984 129.273 70.9427 128.898 71.0312C128.529 71.1146 128.234 71.2448 128.016 71.4219C127.859 71.5469 127.74 71.6953 127.656 71.8672C127.578 72.0391 127.539 72.2344 127.539 72.4531C127.539 72.6615 127.573 72.8542 127.641 73.0312C127.714 73.2083 127.82 73.3594 127.961 73.4844C128.102 73.6146 128.279 73.7161 128.492 73.7891C128.706 73.862 128.953 73.8984 129.234 73.8984ZM143.008 70.8672C143.008 71.237 142.979 71.5938 142.922 71.9375C142.87 72.276 142.792 72.5938 142.688 72.8906C142.547 73.2812 142.362 73.6328 142.133 73.9453C141.909 74.2526 141.638 74.5078 141.32 74.7109C141.091 74.8516 140.839 74.9609 140.562 75.0391C140.292 75.1172 139.997 75.1562 139.68 75.1562C139.315 75.1562 138.982 75.112 138.68 75.0234C138.383 74.9349 138.115 74.8073 137.875 74.6406C137.76 74.5573 137.651 74.4661 137.547 74.3672C137.443 74.2682 137.344 74.1589 137.25 74.0391L137.18 75H135.852V63H137.297V67.4531C137.417 67.3021 137.549 67.1667 137.695 67.0469C137.841 66.9219 137.997 66.8151 138.164 66.7266C138.372 66.6172 138.602 66.5339 138.852 66.4766C139.102 66.4193 139.372 66.3906 139.664 66.3906C140.029 66.3906 140.365 66.4401 140.672 66.5391C140.979 66.638 141.258 66.776 141.508 66.9531C141.732 67.1198 141.932 67.3229 142.109 67.5625C142.286 67.7969 142.443 68.0599 142.578 68.3516C142.719 68.6797 142.826 69.0443 142.898 69.4453C142.971 69.8411 143.008 70.2604 143.008 70.7031V70.8672ZM141.562 70.7031C141.562 70.4375 141.544 70.1797 141.508 69.9297C141.477 69.6745 141.427 69.4349 141.359 69.2109C141.266 68.9349 141.143 68.6823 140.992 68.4531C140.841 68.224 140.656 68.0443 140.438 67.9141C140.286 67.8203 140.117 67.7474 139.93 67.6953C139.742 67.6432 139.534 67.6172 139.305 67.6172C139.055 67.6172 138.826 67.651 138.617 67.7188C138.409 67.7812 138.224 67.8698 138.062 67.9844C137.896 68.1042 137.747 68.2448 137.617 68.4062C137.492 68.5625 137.385 68.7344 137.297 68.9219V72.6172C137.391 72.8047 137.5 72.9792 137.625 73.1406C137.755 73.2969 137.904 73.4349 138.07 73.5547C138.237 73.6745 138.424 73.7682 138.633 73.8359C138.841 73.8984 139.07 73.9297 139.32 73.9297C139.56 73.9297 139.779 73.901 139.977 73.8438C140.174 73.7812 140.352 73.6927 140.508 73.5781C140.716 73.4323 140.891 73.2474 141.031 73.0234C141.172 72.7995 141.284 72.5495 141.367 72.2734C141.435 72.0651 141.484 71.8411 141.516 71.6016C141.547 71.362 141.562 71.1172 141.562 70.8672V70.7031ZM145.68 63H150V73.75H152.758V75H145.68V73.75H148.555V64.2578H145.68V63ZM158.797 75.1562C158.203 75.1562 157.656 75.0547 157.156 74.8516C156.661 74.6484 156.237 74.3646 155.883 74C155.529 73.6354 155.253 73.2031 155.055 72.7031C154.857 72.2031 154.758 71.6589 154.758 71.0703V70.7422C154.758 70.0599 154.867 69.4505 155.086 68.9141C155.305 68.3724 155.596 67.9141 155.961 67.5391C156.32 67.1693 156.729 66.8854 157.188 66.6875C157.651 66.4896 158.125 66.3906 158.609 66.3906C159.219 66.3906 159.75 66.4974 160.203 66.7109C160.661 66.9193 161.042 67.2083 161.344 67.5781C161.646 67.9531 161.87 68.3932 162.016 68.8984C162.167 69.4036 162.242 69.9505 162.242 70.5391V71.1875H156.203V71.2422C156.24 71.6536 156.32 72.0156 156.445 72.3281C156.576 72.6406 156.753 72.9167 156.977 73.1562C157.206 73.4115 157.482 73.612 157.805 73.7578C158.128 73.9036 158.484 73.9766 158.875 73.9766C159.391 73.9766 159.849 73.8724 160.25 73.6641C160.651 73.4557 160.984 73.1797 161.25 72.8359L162.133 73.5234C161.852 73.9505 161.43 74.3307 160.867 74.6641C160.31 74.9922 159.62 75.1562 158.797 75.1562ZM158.609 67.5781C158.318 67.5781 158.042 67.6328 157.781 67.7422C157.521 67.8464 157.286 68 157.078 68.2031C156.87 68.4115 156.693 68.6667 156.547 68.9688C156.406 69.2656 156.307 69.6094 156.25 70H160.797V69.9297C160.797 69.6693 160.747 69.3906 160.648 69.0938C160.549 68.7917 160.411 68.5312 160.234 68.3125C160.057 68.0938 159.833 67.9167 159.562 67.7812C159.297 67.6458 158.979 67.5781 158.609 67.5781ZM97.6328 90.5469H101.953V97.75H104.711V99H97.6328V97.75H100.508V91.8047H97.6328V90.5469ZM100.32 88.3281C100.32 88.2031 100.339 88.0859 100.375 87.9766C100.417 87.8672 100.479 87.7734 100.562 87.6953C100.63 87.6276 100.716 87.5755 100.82 87.5391C100.93 87.4974 101.052 87.4766 101.188 87.4766C101.323 87.4766 101.443 87.4974 101.547 87.5391C101.651 87.5755 101.737 87.6276 101.805 87.6953C101.888 87.7682 101.951 87.8594 101.992 87.9688C102.034 88.0781 102.055 88.1979 102.055 88.3281C102.055 88.5625 101.982 88.7578 101.836 88.9141C101.69 89.0703 101.474 89.1484 101.188 89.1484C100.896 89.1484 100.677 89.0703 100.531 88.9141C100.391 88.7578 100.32 88.5625 100.32 88.3281ZM107.016 99V90.5469H108.312L108.414 91.7969C108.539 91.6198 108.674 91.4583 108.82 91.3125C108.971 91.1615 109.13 91.0312 109.297 90.9219C109.547 90.7552 109.818 90.6276 110.109 90.5391C110.406 90.4453 110.719 90.3958 111.047 90.3906C111.49 90.3906 111.891 90.4531 112.25 90.5781C112.615 90.7031 112.924 90.8984 113.18 91.1641C113.435 91.4297 113.63 91.7682 113.766 92.1797C113.906 92.5859 113.977 93.0703 113.977 93.6328V99H112.531V93.6641C112.531 93.2891 112.49 92.9714 112.406 92.7109C112.323 92.4505 112.201 92.2396 112.039 92.0781C111.872 91.9167 111.669 91.7995 111.43 91.7266C111.195 91.6536 110.924 91.6172 110.617 91.6172C110.352 91.6172 110.104 91.6562 109.875 91.7344C109.646 91.8073 109.435 91.9089 109.242 92.0391C109.086 92.1536 108.94 92.2865 108.805 92.4375C108.674 92.5885 108.56 92.7552 108.461 92.9375V99H107.016ZM120.047 88.5V90.5469H123.266V91.6641H120.047V96.2578C120.047 96.5859 120.089 96.8568 120.172 97.0703C120.255 97.2839 120.37 97.4531 120.516 97.5781C120.661 97.7083 120.828 97.7995 121.016 97.8516C121.208 97.9036 121.411 97.9297 121.625 97.9297C121.781 97.9297 121.943 97.9219 122.109 97.9062C122.276 97.8854 122.44 97.862 122.602 97.8359C122.758 97.8099 122.904 97.7839 123.039 97.7578C123.18 97.7266 123.294 97.7005 123.383 97.6797L123.586 98.7031C123.466 98.776 123.32 98.8411 123.148 98.8984C122.977 98.9505 122.789 98.9948 122.586 99.0312C122.383 99.0729 122.167 99.1042 121.938 99.125C121.714 99.1458 121.49 99.1562 121.266 99.1562C120.891 99.1562 120.539 99.1042 120.211 99C119.888 98.8906 119.607 98.7188 119.367 98.4844C119.128 98.2552 118.938 97.9583 118.797 97.5938C118.661 97.224 118.594 96.7786 118.594 96.2578V91.6641H116.375V90.5469H118.594V88.5H120.047ZM137.422 94.4375V99H135.977V87.625H139.664C140.174 87.6354 140.656 87.7161 141.109 87.8672C141.568 88.0182 141.969 88.237 142.312 88.5234C142.656 88.8099 142.927 89.1641 143.125 89.5859C143.328 90.0078 143.43 90.4922 143.43 91.0391C143.43 91.5859 143.328 92.0703 143.125 92.4922C142.927 92.9089 142.656 93.2604 142.312 93.5469C141.969 93.8333 141.568 94.0521 141.109 94.2031C140.656 94.3542 140.174 94.4323 139.664 94.4375H137.422ZM137.422 93.25H139.664C139.997 93.2448 140.305 93.1927 140.586 93.0938C140.867 92.9896 141.112 92.8438 141.32 92.6562C141.529 92.4688 141.69 92.2422 141.805 91.9766C141.924 91.7057 141.984 91.3984 141.984 91.0547C141.984 90.7109 141.924 90.401 141.805 90.125C141.69 89.849 141.531 89.6146 141.328 89.4219C141.12 89.2292 140.872 89.0807 140.586 88.9766C140.305 88.8724 139.997 88.8177 139.664 88.8125H137.422V93.25ZM149.219 94.3594H146.945V99H145.508V87.625H148.844C149.375 87.6354 149.875 87.7109 150.344 87.8516C150.812 87.9922 151.224 88.2031 151.578 88.4844C151.927 88.7656 152.201 89.1198 152.398 89.5469C152.602 89.9688 152.703 90.4661 152.703 91.0391C152.703 91.4089 152.648 91.7474 152.539 92.0547C152.435 92.362 152.289 92.6406 152.102 92.8906C151.914 93.1406 151.69 93.362 151.43 93.5547C151.169 93.7474 150.883 93.9115 150.57 94.0469L152.984 98.9062L152.977 99H151.453L149.219 94.3594ZM146.945 93.1719H148.883C149.206 93.1667 149.51 93.1172 149.797 93.0234C150.083 92.9245 150.336 92.7839 150.555 92.6016C150.768 92.4193 150.938 92.1979 151.062 91.9375C151.188 91.6719 151.25 91.3672 151.25 91.0234C151.25 90.6589 151.19 90.3411 151.07 90.0703C150.951 89.7943 150.784 89.5625 150.57 89.375C150.357 89.1927 150.102 89.0547 149.805 88.9609C149.513 88.8672 149.193 88.8177 148.844 88.8125H146.945V93.1719ZM155.062 87.625H161.938V88.8828H159.211V97.75H161.938V99H155.062V97.75H157.727V88.8828H155.062V87.625ZM166.258 87.625L168.109 93.3125L170.109 87.625H171.906V99H170.5V94.4609L170.617 89.7109L168.516 95.8359H167.688L165.758 89.875L165.875 94.4609V99H164.469V87.625H166.258ZM179.711 96.0547H175.914L175 99H173.555L177.227 87.625H178.438L182.047 99H180.609L179.711 96.0547ZM176.305 94.7969H179.328L177.828 89.8594L176.305 94.7969ZM187.656 94.3594H185.383V99H183.945V87.625H187.281C187.812 87.6354 188.312 87.7109 188.781 87.8516C189.25 87.9922 189.661 88.2031 190.016 88.4844C190.365 88.7656 190.638 89.1198 190.836 89.5469C191.039 89.9688 191.141 90.4661 191.141 91.0391C191.141 91.4089 191.086 91.7474 190.977 92.0547C190.872 92.362 190.727 92.6406 190.539 92.8906C190.352 93.1406 190.128 93.362 189.867 93.5547C189.607 93.7474 189.32 93.9115 189.008 94.0469L191.422 98.9062L191.414 99H189.891L187.656 94.3594ZM185.383 93.1719H187.32C187.643 93.1667 187.948 93.1172 188.234 93.0234C188.521 92.9245 188.773 92.7839 188.992 92.6016C189.206 92.4193 189.375 92.1979 189.5 91.9375C189.625 91.6719 189.688 91.3672 189.688 91.0234C189.688 90.6589 189.628 90.3411 189.508 90.0703C189.388 89.7943 189.221 89.5625 189.008 89.375C188.794 89.1927 188.539 89.0547 188.242 88.9609C187.951 88.8672 187.63 88.8177 187.281 88.8125H185.383V93.1719ZM196.852 93.3359L199.445 87.625H201.086L197.547 94.7578L197.523 99H196.18L196.156 94.7578L192.617 87.625H194.266L196.852 93.3359ZM215.445 93.7188L214.18 95.1562V99H212.703V87.625H214.18V93.1797L215.281 91.8047L218.617 87.625H220.375L216.398 92.6016L220.641 99H218.883L215.445 93.7188ZM228.586 93.7422H223.836V97.7734H229.375V99H222.391V87.625H229.305V88.8594H223.836V92.5156H228.586V93.7422ZM235.289 93.3359L237.883 87.625H239.523L235.984 94.7578L235.961 99H234.617L234.594 94.7578L231.055 87.625H232.703L235.289 93.3359ZM119.508 123L116.031 114.547H117.516L119.938 120.922L120.07 121.445L120.211 120.922L122.578 114.547H124.055L120.609 123H119.508ZM131.789 123C131.732 122.891 131.685 122.755 131.648 122.594C131.617 122.427 131.594 122.255 131.578 122.078C131.432 122.224 131.268 122.362 131.086 122.492C130.909 122.622 130.714 122.737 130.5 122.836C130.281 122.935 130.049 123.013 129.805 123.07C129.56 123.128 129.299 123.156 129.023 123.156C128.576 123.156 128.169 123.091 127.805 122.961C127.445 122.831 127.141 122.654 126.891 122.43C126.635 122.211 126.438 121.951 126.297 121.648C126.161 121.341 126.094 121.01 126.094 120.656C126.094 120.193 126.185 119.786 126.367 119.438C126.555 119.089 126.818 118.797 127.156 118.562C127.495 118.333 127.901 118.161 128.375 118.047C128.854 117.932 129.388 117.875 129.977 117.875H131.555V117.211C131.555 116.956 131.508 116.727 131.414 116.523C131.32 116.32 131.188 116.146 131.016 116C130.844 115.859 130.633 115.75 130.383 115.672C130.138 115.594 129.862 115.555 129.555 115.555C129.268 115.555 129.01 115.591 128.781 115.664C128.557 115.737 128.367 115.833 128.211 115.953C128.055 116.073 127.932 116.216 127.844 116.383C127.76 116.544 127.719 116.714 127.719 116.891H126.266C126.271 116.583 126.349 116.281 126.5 115.984C126.656 115.688 126.88 115.419 127.172 115.18C127.458 114.945 127.807 114.755 128.219 114.609C128.635 114.464 129.107 114.391 129.633 114.391C130.112 114.391 130.557 114.451 130.969 114.57C131.38 114.685 131.737 114.859 132.039 115.094C132.336 115.333 132.57 115.63 132.742 115.984C132.914 116.339 133 116.753 133 117.227V121.156C133 121.438 133.026 121.737 133.078 122.055C133.13 122.367 133.203 122.641 133.297 122.875V123H131.789ZM129.234 121.898C129.516 121.898 129.779 121.862 130.023 121.789C130.268 121.716 130.492 121.62 130.695 121.5C130.893 121.38 131.065 121.245 131.211 121.094C131.357 120.938 131.471 120.776 131.555 120.609V118.898H130.211C129.711 118.898 129.273 118.943 128.898 119.031C128.529 119.115 128.234 119.245 128.016 119.422C127.859 119.547 127.74 119.695 127.656 119.867C127.578 120.039 127.539 120.234 127.539 120.453C127.539 120.661 127.573 120.854 127.641 121.031C127.714 121.208 127.82 121.359 127.961 121.484C128.102 121.615 128.279 121.716 128.492 121.789C128.706 121.862 128.953 121.898 129.234 121.898ZM141.383 114.391C141.648 114.391 141.924 114.409 142.211 114.445C142.503 114.482 142.721 114.531 142.867 114.594L142.672 116.008C142.391 115.945 142.122 115.901 141.867 115.875C141.617 115.844 141.354 115.828 141.078 115.828C140.724 115.828 140.404 115.872 140.117 115.961C139.831 116.044 139.581 116.169 139.367 116.336C139.174 116.482 139.005 116.661 138.859 116.875C138.719 117.083 138.602 117.318 138.508 117.578V123H137.055V114.547H138.43L138.492 115.68L138.5 115.891C138.844 115.427 139.255 115.062 139.734 114.797C140.219 114.526 140.768 114.391 141.383 114.391ZM149.055 121.984C149.315 121.984 149.568 121.943 149.812 121.859C150.062 121.776 150.284 121.659 150.477 121.508C150.669 121.362 150.823 121.19 150.938 120.992C151.057 120.789 151.12 120.57 151.125 120.336H152.492C152.487 120.711 152.388 121.07 152.195 121.414C152.008 121.753 151.755 122.049 151.438 122.305C151.12 122.565 150.755 122.773 150.344 122.93C149.932 123.081 149.503 123.156 149.055 123.156C148.414 123.156 147.854 123.042 147.375 122.812C146.896 122.583 146.497 122.273 146.18 121.883C145.857 121.497 145.615 121.052 145.453 120.547C145.292 120.036 145.211 119.5 145.211 118.938V118.609C145.211 118.052 145.292 117.518 145.453 117.008C145.615 116.497 145.857 116.047 146.18 115.656C146.497 115.271 146.896 114.964 147.375 114.734C147.854 114.505 148.414 114.391 149.055 114.391C149.555 114.391 150.013 114.471 150.43 114.633C150.852 114.789 151.216 115.003 151.523 115.273C151.826 115.549 152.062 115.875 152.234 116.25C152.406 116.625 152.492 117.026 152.492 117.453H151.125C151.12 117.198 151.062 116.958 150.953 116.734C150.849 116.505 150.706 116.305 150.523 116.133C150.341 115.961 150.122 115.826 149.867 115.727C149.617 115.628 149.346 115.578 149.055 115.578C148.607 115.578 148.229 115.669 147.922 115.852C147.62 116.029 147.375 116.26 147.188 116.547C147 116.839 146.865 117.164 146.781 117.523C146.703 117.883 146.664 118.245 146.664 118.609V118.938C146.664 119.307 146.703 119.674 146.781 120.039C146.865 120.398 147 120.721 147.188 121.008C147.37 121.299 147.612 121.536 147.914 121.719C148.221 121.896 148.602 121.984 149.055 121.984ZM156.508 115.805C156.622 115.633 156.75 115.477 156.891 115.336C157.031 115.19 157.18 115.062 157.336 114.953C157.586 114.771 157.859 114.633 158.156 114.539C158.458 114.445 158.779 114.396 159.117 114.391C159.56 114.391 159.961 114.456 160.32 114.586C160.685 114.711 160.995 114.909 161.25 115.18C161.505 115.451 161.701 115.794 161.836 116.211C161.977 116.622 162.047 117.112 162.047 117.68V123H160.602V117.664C160.602 117.331 160.562 117.039 160.484 116.789C160.406 116.534 160.292 116.323 160.141 116.156C159.979 115.974 159.776 115.839 159.531 115.75C159.286 115.656 159.005 115.612 158.688 115.617C158.427 115.617 158.18 115.654 157.945 115.727C157.711 115.799 157.495 115.904 157.297 116.039C157.141 116.143 156.995 116.266 156.859 116.406C156.729 116.542 156.612 116.693 156.508 116.859V123H155.062V111H156.508V115.805ZM170.227 123C170.169 122.891 170.122 122.755 170.086 122.594C170.055 122.427 170.031 122.255 170.016 122.078C169.87 122.224 169.706 122.362 169.523 122.492C169.346 122.622 169.151 122.737 168.938 122.836C168.719 122.935 168.487 123.013 168.242 123.07C167.997 123.128 167.737 123.156 167.461 123.156C167.013 123.156 166.607 123.091 166.242 122.961C165.883 122.831 165.578 122.654 165.328 122.43C165.073 122.211 164.875 121.951 164.734 121.648C164.599 121.341 164.531 121.01 164.531 120.656C164.531 120.193 164.622 119.786 164.805 119.438C164.992 119.089 165.255 118.797 165.594 118.562C165.932 118.333 166.339 118.161 166.812 118.047C167.292 117.932 167.826 117.875 168.414 117.875H169.992V117.211C169.992 116.956 169.945 116.727 169.852 116.523C169.758 116.32 169.625 116.146 169.453 116C169.281 115.859 169.07 115.75 168.82 115.672C168.576 115.594 168.299 115.555 167.992 115.555C167.706 115.555 167.448 115.591 167.219 115.664C166.995 115.737 166.805 115.833 166.648 115.953C166.492 116.073 166.37 116.216 166.281 116.383C166.198 116.544 166.156 116.714 166.156 116.891H164.703C164.708 116.583 164.786 116.281 164.938 115.984C165.094 115.688 165.318 115.419 165.609 115.18C165.896 114.945 166.245 114.755 166.656 114.609C167.073 114.464 167.544 114.391 168.07 114.391C168.549 114.391 168.995 114.451 169.406 114.57C169.818 114.685 170.174 114.859 170.477 115.094C170.773 115.333 171.008 115.63 171.18 115.984C171.352 116.339 171.438 116.753 171.438 117.227V121.156C171.438 121.438 171.464 121.737 171.516 122.055C171.568 122.367 171.641 122.641 171.734 122.875V123H170.227ZM167.672 121.898C167.953 121.898 168.216 121.862 168.461 121.789C168.706 121.716 168.93 121.62 169.133 121.5C169.331 121.38 169.503 121.245 169.648 121.094C169.794 120.938 169.909 120.776 169.992 120.609V118.898H168.648C168.148 118.898 167.711 118.943 167.336 119.031C166.966 119.115 166.672 119.245 166.453 119.422C166.297 119.547 166.177 119.695 166.094 119.867C166.016 120.039 165.977 120.234 165.977 120.453C165.977 120.661 166.01 120.854 166.078 121.031C166.151 121.208 166.258 121.359 166.398 121.484C166.539 121.615 166.716 121.716 166.93 121.789C167.143 121.862 167.391 121.898 167.672 121.898ZM179.82 114.391C180.086 114.391 180.362 114.409 180.648 114.445C180.94 114.482 181.159 114.531 181.305 114.594L181.109 116.008C180.828 115.945 180.56 115.901 180.305 115.875C180.055 115.844 179.792 115.828 179.516 115.828C179.161 115.828 178.841 115.872 178.555 115.961C178.268 116.044 178.018 116.169 177.805 116.336C177.612 116.482 177.443 116.661 177.297 116.875C177.156 117.083 177.039 117.318 176.945 117.578V123H175.492V114.547H176.867L176.93 115.68L176.938 115.891C177.281 115.427 177.693 115.062 178.172 114.797C178.656 114.526 179.206 114.391 179.82 114.391Z" fill="#BF8CE1"/>
<path d="M179.852 75L179.766 73.8359C179.484 74.2526 179.133 74.5781 178.711 74.8125C178.289 75.0417 177.802 75.1562 177.25 75.1562C176.807 75.1562 176.406 75.0885 176.047 74.9531C175.688 74.8125 175.38 74.5964 175.125 74.3047C174.87 74.013 174.672 73.6432 174.531 73.1953C174.396 72.7422 174.328 72.2005 174.328 71.5703V66.5469H175.773V71.5859C175.773 72.0443 175.81 72.4245 175.883 72.7266C175.956 73.0286 176.065 73.2682 176.211 73.4453C176.357 73.6276 176.534 73.7552 176.742 73.8281C176.956 73.901 177.201 73.9375 177.477 73.9375C177.799 73.9375 178.089 73.901 178.344 73.8281C178.599 73.75 178.82 73.6432 179.008 73.5078C179.164 73.3984 179.299 73.2682 179.414 73.1172C179.534 72.9609 179.633 72.7917 179.711 72.6094V66.5469H181.164V75H179.852ZM189.508 72.7578C189.508 72.5859 189.474 72.4323 189.406 72.2969C189.339 72.1562 189.224 72.0286 189.062 71.9141C188.901 71.7995 188.688 71.6953 188.422 71.6016C188.156 71.5026 187.826 71.4141 187.43 71.3359C186.945 71.237 186.503 71.1172 186.102 70.9766C185.706 70.8359 185.367 70.6667 185.086 70.4688C184.799 70.276 184.578 70.0495 184.422 69.7891C184.266 69.5234 184.188 69.2161 184.188 68.8672C184.188 68.5234 184.268 68.2031 184.43 67.9062C184.591 67.6042 184.818 67.3411 185.109 67.1172C185.401 66.8932 185.747 66.7161 186.148 66.5859C186.555 66.4557 187 66.3906 187.484 66.3906C188.005 66.3906 188.474 66.4583 188.891 66.5938C189.307 66.7292 189.661 66.9167 189.953 67.1562C190.245 67.3958 190.469 67.6771 190.625 68C190.786 68.3177 190.867 68.6615 190.867 69.0312H189.422C189.422 68.849 189.375 68.6719 189.281 68.5C189.188 68.3229 189.057 68.1667 188.891 68.0312C188.724 67.8958 188.521 67.7865 188.281 67.7031C188.047 67.6198 187.781 67.5781 187.484 67.5781C187.177 67.5781 186.906 67.612 186.672 67.6797C186.443 67.7474 186.253 67.8385 186.102 67.9531C185.945 68.0677 185.828 68.2005 185.75 68.3516C185.672 68.5026 185.633 68.6589 185.633 68.8203C185.633 68.987 185.664 69.1354 185.727 69.2656C185.789 69.3958 185.898 69.513 186.055 69.6172C186.206 69.7214 186.409 69.8151 186.664 69.8984C186.924 69.9818 187.253 70.0625 187.648 70.1406C188.169 70.25 188.635 70.3776 189.047 70.5234C189.458 70.6641 189.805 70.8333 190.086 71.0312C190.367 71.2344 190.581 71.4688 190.727 71.7344C190.878 72 190.953 72.3073 190.953 72.6562C190.953 73.0312 190.867 73.3724 190.695 73.6797C190.529 73.987 190.294 74.25 189.992 74.4688C189.69 74.6875 189.328 74.8568 188.906 74.9766C188.484 75.0964 188.023 75.1562 187.523 75.1562C186.951 75.1562 186.44 75.0807 185.992 74.9297C185.544 74.7734 185.167 74.5677 184.859 74.3125C184.547 74.0625 184.307 73.7708 184.141 73.4375C183.979 73.1042 183.898 72.7578 183.898 72.3984H185.344C185.365 72.6953 185.443 72.9453 185.578 73.1484C185.719 73.3516 185.893 73.5156 186.102 73.6406C186.305 73.7656 186.531 73.8542 186.781 73.9062C187.031 73.9583 187.279 73.9844 187.523 73.9844C187.909 73.9844 188.245 73.9401 188.531 73.8516C188.818 73.7578 189.042 73.6302 189.203 73.4688C189.302 73.3698 189.378 73.2604 189.43 73.1406C189.482 73.0208 189.508 72.8932 189.508 72.7578ZM197.234 75.1562C196.641 75.1562 196.094 75.0547 195.594 74.8516C195.099 74.6484 194.674 74.3646 194.32 74C193.966 73.6354 193.69 73.2031 193.492 72.7031C193.294 72.2031 193.195 71.6589 193.195 71.0703V70.7422C193.195 70.0599 193.305 69.4505 193.523 68.9141C193.742 68.3724 194.034 67.9141 194.398 67.5391C194.758 67.1693 195.167 66.8854 195.625 66.6875C196.089 66.4896 196.562 66.3906 197.047 66.3906C197.656 66.3906 198.188 66.4974 198.641 66.7109C199.099 66.9193 199.479 67.2083 199.781 67.5781C200.083 67.9531 200.307 68.3932 200.453 68.8984C200.604 69.4036 200.68 69.9505 200.68 70.5391V71.1875H194.641V71.2422C194.677 71.6536 194.758 72.0156 194.883 72.3281C195.013 72.6406 195.19 72.9167 195.414 73.1562C195.643 73.4115 195.919 73.612 196.242 73.7578C196.565 73.9036 196.922 73.9766 197.312 73.9766C197.828 73.9766 198.286 73.8724 198.688 73.6641C199.089 73.4557 199.422 73.1797 199.688 72.8359L200.57 73.5234C200.289 73.9505 199.867 74.3307 199.305 74.6641C198.747 74.9922 198.057 75.1562 197.234 75.1562ZM197.047 67.5781C196.755 67.5781 196.479 67.6328 196.219 67.7422C195.958 67.8464 195.724 68 195.516 68.2031C195.307 68.4115 195.13 68.6667 194.984 68.9688C194.844 69.2656 194.745 69.6094 194.688 70H199.234V69.9297C199.234 69.6693 199.185 69.3906 199.086 69.0938C198.987 68.7917 198.849 68.5312 198.672 68.3125C198.495 68.0938 198.271 67.9167 198 67.7812C197.734 67.6458 197.417 67.5781 197.047 67.5781ZM208.648 66.3906C208.914 66.3906 209.19 66.4089 209.477 66.4453C209.768 66.4818 209.987 66.5312 210.133 66.5938L209.938 68.0078C209.656 67.9453 209.388 67.901 209.133 67.875C208.883 67.8438 208.62 67.8281 208.344 67.8281C207.99 67.8281 207.669 67.8724 207.383 67.9609C207.096 68.0443 206.846 68.1693 206.633 68.3359C206.44 68.4818 206.271 68.6615 206.125 68.875C205.984 69.0833 205.867 69.3177 205.773 69.5781V75H204.32V66.5469H205.695L205.758 67.6797L205.766 67.8906C206.109 67.4271 206.521 67.0625 207 66.7969C207.484 66.526 208.034 66.3906 208.648 66.3906ZM218.336 72.7578C218.336 72.5859 218.302 72.4323 218.234 72.2969C218.167 72.1562 218.052 72.0286 217.891 71.9141C217.729 71.7995 217.516 71.6953 217.25 71.6016C216.984 71.5026 216.654 71.4141 216.258 71.3359C215.773 71.237 215.331 71.1172 214.93 70.9766C214.534 70.8359 214.195 70.6667 213.914 70.4688C213.628 70.276 213.406 70.0495 213.25 69.7891C213.094 69.5234 213.016 69.2161 213.016 68.8672C213.016 68.5234 213.096 68.2031 213.258 67.9062C213.419 67.6042 213.646 67.3411 213.938 67.1172C214.229 66.8932 214.576 66.7161 214.977 66.5859C215.383 66.4557 215.828 66.3906 216.312 66.3906C216.833 66.3906 217.302 66.4583 217.719 66.5938C218.135 66.7292 218.49 66.9167 218.781 67.1562C219.073 67.3958 219.297 67.6771 219.453 68C219.615 68.3177 219.695 68.6615 219.695 69.0312H218.25C218.25 68.849 218.203 68.6719 218.109 68.5C218.016 68.3229 217.885 68.1667 217.719 68.0312C217.552 67.8958 217.349 67.7865 217.109 67.7031C216.875 67.6198 216.609 67.5781 216.312 67.5781C216.005 67.5781 215.734 67.612 215.5 67.6797C215.271 67.7474 215.081 67.8385 214.93 67.9531C214.773 68.0677 214.656 68.2005 214.578 68.3516C214.5 68.5026 214.461 68.6589 214.461 68.8203C214.461 68.987 214.492 69.1354 214.555 69.2656C214.617 69.3958 214.727 69.513 214.883 69.6172C215.034 69.7214 215.237 69.8151 215.492 69.8984C215.753 69.9818 216.081 70.0625 216.477 70.1406C216.997 70.25 217.464 70.3776 217.875 70.5234C218.286 70.6641 218.633 70.8333 218.914 71.0312C219.195 71.2344 219.409 71.4688 219.555 71.7344C219.706 72 219.781 72.3073 219.781 72.6562C219.781 73.0312 219.695 73.3724 219.523 73.6797C219.357 73.987 219.122 74.25 218.82 74.4688C218.518 74.6875 218.156 74.8568 217.734 74.9766C217.312 75.0964 216.852 75.1562 216.352 75.1562C215.779 75.1562 215.268 75.0807 214.82 74.9297C214.372 74.7734 213.995 74.5677 213.688 74.3125C213.375 74.0625 213.135 73.7708 212.969 73.4375C212.807 73.1042 212.727 72.7578 212.727 72.3984H214.172C214.193 72.6953 214.271 72.9453 214.406 73.1484C214.547 73.3516 214.721 73.5156 214.93 73.6406C215.133 73.7656 215.359 73.8542 215.609 73.9062C215.859 73.9583 216.107 73.9844 216.352 73.9844C216.737 73.9844 217.073 73.9401 217.359 73.8516C217.646 73.7578 217.87 73.6302 218.031 73.4688C218.13 73.3698 218.206 73.2604 218.258 73.1406C218.31 73.0208 218.336 72.8932 218.336 72.7578ZM233.367 70.3828C233.367 69.638 233.424 68.9375 233.539 68.2812C233.659 67.625 233.818 67.0156 234.016 66.4531C234.214 65.8958 234.44 65.3854 234.695 64.9219C234.956 64.4583 235.229 64.0469 235.516 63.6875C235.797 63.3281 236.081 63.0208 236.367 62.7656C236.654 62.5104 236.927 62.3099 237.188 62.1641L237.492 63.1172C237.326 63.2422 237.156 63.3932 236.984 63.5703C236.818 63.7474 236.654 63.9453 236.492 64.1641C236.253 64.5026 236.023 64.901 235.805 65.3594C235.586 65.8125 235.404 66.3099 235.258 66.8516C235.117 67.3411 235.008 67.8802 234.93 68.4688C234.852 69.0573 234.812 69.6901 234.812 70.3672V70.4766C234.812 71.1276 234.849 71.737 234.922 72.3047C234.995 72.8724 235.094 73.3958 235.219 73.875C235.354 74.3594 235.51 74.8073 235.688 75.2188C235.865 75.6354 236.049 76.0078 236.242 76.3359C236.44 76.6484 236.643 76.9245 236.852 77.1641C237.065 77.4089 237.279 77.6172 237.492 77.7891L237.188 78.6719C236.927 78.526 236.651 78.3255 236.359 78.0703C236.073 77.8203 235.789 77.513 235.508 77.1484C235.221 76.7891 234.948 76.3776 234.688 75.9141C234.432 75.4557 234.208 74.9453 234.016 74.3828C233.818 73.8255 233.659 73.2188 233.539 72.5625C233.424 71.9062 233.367 71.2057 233.367 70.4609V70.3828ZM68.8047 90.5469H73.125V97.75H75.8828V99H68.8047V97.75H71.6797V91.8047H68.8047V90.5469ZM71.4922 88.3281C71.4922 88.2031 71.5104 88.0859 71.5469 87.9766C71.5885 87.8672 71.651 87.7734 71.7344 87.6953C71.8021 87.6276 71.888 87.5755 71.9922 87.5391C72.1016 87.4974 72.224 87.4766 72.3594 87.4766C72.4948 87.4766 72.6146 87.4974 72.7188 87.5391C72.8229 87.5755 72.9089 87.6276 72.9766 87.6953C73.0599 87.7682 73.1224 87.8594 73.1641 87.9688C73.2057 88.0781 73.2266 88.1979 73.2266 88.3281C73.2266 88.5625 73.1536 88.7578 73.0078 88.9141C72.862 89.0703 72.6458 89.1484 72.3594 89.1484C72.0677 89.1484 71.849 89.0703 71.7031 88.9141C71.5625 88.7578 71.4922 88.5625 71.4922 88.3281ZM77.9141 94.7031C77.9141 94.0729 77.9922 93.4948 78.1484 92.9688C78.3099 92.4375 78.5391 91.9818 78.8359 91.6016C79.1276 91.2214 79.4818 90.9245 79.8984 90.7109C80.3151 90.4974 80.7812 90.3906 81.2969 90.3906C81.8021 90.3906 82.2422 90.4766 82.6172 90.6484C82.9974 90.8151 83.3255 91.0599 83.6016 91.3828V87H85.0469V99H83.7188L83.6562 98.1094C83.375 98.4531 83.0391 98.7135 82.6484 98.8906C82.2578 99.0677 81.8021 99.1562 81.2812 99.1562C80.7708 99.1562 80.3073 99.0469 79.8906 98.8281C79.4792 98.6094 79.1276 98.3073 78.8359 97.9219C78.5443 97.5365 78.3177 97.0833 78.1562 96.5625C77.9948 96.0365 77.9141 95.4714 77.9141 94.8672V94.7031ZM79.3594 94.8672C79.3594 95.2786 79.4036 95.6693 79.4922 96.0391C79.5807 96.4089 79.7188 96.7344 79.9062 97.0156C80.0885 97.2969 80.3229 97.5208 80.6094 97.6875C80.8958 97.849 81.2396 97.9297 81.6406 97.9297C82.125 97.9297 82.526 97.8203 82.8438 97.6016C83.1615 97.3828 83.4141 97.0885 83.6016 96.7188V92.7969C83.4141 92.4531 83.1615 92.1719 82.8438 91.9531C82.526 91.7292 82.1302 91.6172 81.6562 91.6172C81.25 91.6172 80.901 91.7005 80.6094 91.8672C80.3229 92.0339 80.0885 92.2578 79.9062 92.5391C79.7188 92.8255 79.5807 93.1562 79.4922 93.5312C79.4036 93.901 79.3594 94.2917 79.3594 94.7031V94.8672ZM245.211 98.6641C245.211 99.1849 245.089 99.7161 244.844 100.258C244.599 100.799 244.268 101.255 243.852 101.625L242.953 101.133C243.203 100.768 243.38 100.38 243.484 99.9688C243.589 99.5573 243.641 99.1302 243.641 98.6875V97.2891H245.211V98.6641ZM68.5781 123V114.547H69.875L69.9766 115.797C70.1016 115.62 70.237 115.458 70.3828 115.312C70.5339 115.161 70.6927 115.031 70.8594 114.922C71.1094 114.755 71.3802 114.628 71.6719 114.539C71.9688 114.445 72.2812 114.396 72.6094 114.391C73.0521 114.391 73.4531 114.453 73.8125 114.578C74.1771 114.703 74.487 114.898 74.7422 115.164C74.9974 115.43 75.1927 115.768 75.3281 116.18C75.4688 116.586 75.5391 117.07 75.5391 117.633V123H74.0938V117.664C74.0938 117.289 74.0521 116.971 73.9688 116.711C73.8854 116.451 73.763 116.24 73.6016 116.078C73.4349 115.917 73.2318 115.799 72.9922 115.727C72.7578 115.654 72.487 115.617 72.1797 115.617C71.9141 115.617 71.6667 115.656 71.4375 115.734C71.2083 115.807 70.9974 115.909 70.8047 116.039C70.6484 116.154 70.5026 116.286 70.3672 116.438C70.237 116.589 70.1224 116.755 70.0234 116.938V123H68.5781ZM83.7422 123C83.6849 122.891 83.638 122.755 83.6016 122.594C83.5703 122.427 83.5469 122.255 83.5312 122.078C83.3854 122.224 83.2214 122.362 83.0391 122.492C82.862 122.622 82.6667 122.737 82.4531 122.836C82.2344 122.935 82.0026 123.013 81.7578 123.07C81.513 123.128 81.2526 123.156 80.9766 123.156C80.5286 123.156 80.1224 123.091 79.7578 122.961C79.3984 122.831 79.0938 122.654 78.8438 122.43C78.5885 122.211 78.3906 121.951 78.25 121.648C78.1146 121.341 78.0469 121.01 78.0469 120.656C78.0469 120.193 78.138 119.786 78.3203 119.438C78.5078 119.089 78.7708 118.797 79.1094 118.562C79.4479 118.333 79.8542 118.161 80.3281 118.047C80.8073 117.932 81.3411 117.875 81.9297 117.875H83.5078V117.211C83.5078 116.956 83.4609 116.727 83.3672 116.523C83.2734 116.32 83.1406 116.146 82.9688 116C82.7969 115.859 82.5859 115.75 82.3359 115.672C82.0911 115.594 81.8151 115.555 81.5078 115.555C81.2214 115.555 80.9635 115.591 80.7344 115.664C80.5104 115.737 80.3203 115.833 80.1641 115.953C80.0078 116.073 79.8854 116.216 79.7969 116.383C79.7135 116.544 79.6719 116.714 79.6719 116.891H78.2188C78.224 116.583 78.3021 116.281 78.4531 115.984C78.6094 115.688 78.8333 115.419 79.125 115.18C79.4115 114.945 79.7604 114.755 80.1719 114.609C80.5885 114.464 81.0599 114.391 81.5859 114.391C82.0651 114.391 82.5104 114.451 82.9219 114.57C83.3333 114.685 83.6901 114.859 83.9922 115.094C84.2891 115.333 84.5234 115.63 84.6953 115.984C84.8672 116.339 84.9531 116.753 84.9531 117.227V121.156C84.9531 121.438 84.9792 121.737 85.0312 122.055C85.0833 122.367 85.1562 122.641 85.25 122.875V123H83.7422ZM81.1875 121.898C81.4688 121.898 81.7318 121.862 81.9766 121.789C82.2214 121.716 82.4453 121.62 82.6484 121.5C82.8464 121.38 83.0182 121.245 83.1641 121.094C83.3099 120.938 83.4245 120.776 83.5078 120.609V118.898H82.1641C81.6641 118.898 81.2266 118.943 80.8516 119.031C80.4818 119.115 80.1875 119.245 79.9688 119.422C79.8125 119.547 79.6927 119.695 79.6094 119.867C79.5312 120.039 79.4922 120.234 79.4922 120.453C79.4922 120.661 79.526 120.854 79.5938 121.031C79.6667 121.208 79.7734 121.359 79.9141 121.484C80.0547 121.615 80.2318 121.716 80.4453 121.789C80.6589 121.862 80.9062 121.898 81.1875 121.898ZM88.4609 114.547L88.5 115.344C88.6719 115.047 88.8958 114.815 89.1719 114.648C89.4531 114.482 89.7917 114.396 90.1875 114.391C90.4115 114.391 90.612 114.417 90.7891 114.469C90.9714 114.516 91.1302 114.586 91.2656 114.68C91.3646 114.753 91.4531 114.841 91.5312 114.945C91.6146 115.049 91.6849 115.167 91.7422 115.297C91.8151 115.177 91.901 115.065 92 114.961C92.099 114.857 92.2057 114.766 92.3203 114.688C92.4661 114.599 92.6276 114.529 92.8047 114.477C92.987 114.424 93.1849 114.396 93.3984 114.391C93.6901 114.391 93.9531 114.435 94.1875 114.523C94.4219 114.607 94.6198 114.732 94.7812 114.898C94.9583 115.086 95.0938 115.331 95.1875 115.633C95.2812 115.93 95.3281 116.281 95.3281 116.688V123H93.9531V116.672C93.9531 116.495 93.9323 116.339 93.8906 116.203C93.849 116.068 93.7891 115.956 93.7109 115.867C93.6276 115.784 93.5234 115.721 93.3984 115.68C93.2786 115.638 93.138 115.617 92.9766 115.617C92.8047 115.617 92.6562 115.641 92.5312 115.688C92.4062 115.734 92.3021 115.797 92.2188 115.875C92.1354 115.958 92.0703 116.055 92.0234 116.164C91.9766 116.268 91.9453 116.385 91.9297 116.516C91.9297 116.542 91.9297 116.568 91.9297 116.594C91.9297 116.615 91.9297 116.641 91.9297 116.672V123H90.5547V116.664C90.5547 116.487 90.5339 116.331 90.4922 116.195C90.4557 116.06 90.3958 115.948 90.3125 115.859C90.2344 115.776 90.1354 115.716 90.0156 115.68C89.901 115.638 89.7656 115.617 89.6094 115.617C89.4375 115.617 89.2865 115.638 89.1562 115.68C89.0312 115.716 88.9245 115.771 88.8359 115.844C88.7682 115.901 88.7083 115.966 88.6562 116.039C88.6094 116.112 88.5703 116.19 88.5391 116.273V123H87.1641V114.547H88.4609ZM101.141 123.156C100.547 123.156 100 123.055 99.5 122.852C99.0052 122.648 98.5807 122.365 98.2266 122C97.8724 121.635 97.5964 121.203 97.3984 120.703C97.2005 120.203 97.1016 119.659 97.1016 119.07V118.742C97.1016 118.06 97.2109 117.451 97.4297 116.914C97.6484 116.372 97.9401 115.914 98.3047 115.539C98.6641 115.169 99.0729 114.885 99.5312 114.688C99.9948 114.49 100.469 114.391 100.953 114.391C101.562 114.391 102.094 114.497 102.547 114.711C103.005 114.919 103.385 115.208 103.688 115.578C103.99 115.953 104.214 116.393 104.359 116.898C104.51 117.404 104.586 117.951 104.586 118.539V119.188H98.5469V119.242C98.5833 119.654 98.6641 120.016 98.7891 120.328C98.9193 120.641 99.0964 120.917 99.3203 121.156C99.5495 121.411 99.8255 121.612 100.148 121.758C100.471 121.904 100.828 121.977 101.219 121.977C101.734 121.977 102.193 121.872 102.594 121.664C102.995 121.456 103.328 121.18 103.594 120.836L104.477 121.523C104.195 121.951 103.773 122.331 103.211 122.664C102.654 122.992 101.964 123.156 101.141 123.156ZM100.953 115.578C100.661 115.578 100.385 115.633 100.125 115.742C99.8646 115.846 99.6302 116 99.4219 116.203C99.2135 116.411 99.0365 116.667 98.8906 116.969C98.75 117.266 98.651 117.609 98.5938 118H103.141V117.93C103.141 117.669 103.091 117.391 102.992 117.094C102.893 116.792 102.755 116.531 102.578 116.312C102.401 116.094 102.177 115.917 101.906 115.781C101.641 115.646 101.323 115.578 100.953 115.578ZM185.32 118.383C185.32 117.638 185.378 116.938 185.492 116.281C185.612 115.625 185.771 115.016 185.969 114.453C186.167 113.896 186.393 113.385 186.648 112.922C186.909 112.458 187.182 112.047 187.469 111.688C187.75 111.328 188.034 111.021 188.32 110.766C188.607 110.51 188.88 110.31 189.141 110.164L189.445 111.117C189.279 111.242 189.109 111.393 188.938 111.57C188.771 111.747 188.607 111.945 188.445 112.164C188.206 112.503 187.977 112.901 187.758 113.359C187.539 113.812 187.357 114.31 187.211 114.852C187.07 115.341 186.961 115.88 186.883 116.469C186.805 117.057 186.766 117.69 186.766 118.367V118.477C186.766 119.128 186.802 119.737 186.875 120.305C186.948 120.872 187.047 121.396 187.172 121.875C187.307 122.359 187.464 122.807 187.641 123.219C187.818 123.635 188.003 124.008 188.195 124.336C188.393 124.648 188.596 124.924 188.805 125.164C189.018 125.409 189.232 125.617 189.445 125.789L189.141 126.672C188.88 126.526 188.604 126.326 188.312 126.07C188.026 125.82 187.742 125.513 187.461 125.148C187.174 124.789 186.901 124.378 186.641 123.914C186.385 123.456 186.161 122.945 185.969 122.383C185.771 121.826 185.612 121.219 185.492 120.562C185.378 119.906 185.32 119.206 185.32 118.461V118.383ZM227.602 118.461C227.602 119.206 227.542 119.906 227.422 120.562C227.307 121.219 227.151 121.826 226.953 122.383C226.755 122.945 226.526 123.456 226.266 123.914C226.01 124.378 225.742 124.789 225.461 125.148C225.174 125.513 224.885 125.82 224.594 126.07C224.307 126.326 224.034 126.526 223.773 126.672L223.469 125.789C223.688 125.628 223.909 125.419 224.133 125.164C224.357 124.909 224.57 124.615 224.773 124.281C224.966 123.943 225.151 123.56 225.328 123.133C225.51 122.711 225.659 122.247 225.773 121.742C225.893 121.273 225.984 120.768 226.047 120.227C226.115 119.68 226.148 119.096 226.148 118.477V118.367C226.148 117.664 226.104 117.026 226.016 116.453C225.932 115.88 225.839 115.393 225.734 114.992C225.583 114.419 225.401 113.906 225.188 113.453C224.974 112.995 224.755 112.596 224.531 112.258C224.359 111.992 224.182 111.76 224 111.562C223.818 111.359 223.641 111.188 223.469 111.047L223.773 110.164C224.034 110.31 224.31 110.51 224.602 110.766C224.893 111.021 225.18 111.328 225.461 111.688C225.753 112.057 226.026 112.469 226.281 112.922C226.536 113.375 226.76 113.885 226.953 114.453C227.141 115 227.294 115.594 227.414 116.234C227.539 116.87 227.602 117.586 227.602 118.383V118.461ZM54.6328 142.461C54.6328 143.206 54.5729 143.906 54.4531 144.562C54.3385 145.219 54.1823 145.826 53.9844 146.383C53.7865 146.945 53.5573 147.456 53.2969 147.914C53.0417 148.378 52.7734 148.789 52.4922 149.148C52.2057 149.513 51.9167 149.82 51.625 150.07C51.3385 150.326 51.0651 150.526 50.8047 150.672L50.5 149.789C50.7188 149.628 50.9401 149.419 51.1641 149.164C51.388 148.909 51.6016 148.615 51.8047 148.281C51.9974 147.943 52.1823 147.56 52.3594 147.133C52.5417 146.711 52.6901 146.247 52.8047 145.742C52.9245 145.273 53.0156 144.768 53.0781 144.227C53.1458 143.68 53.1797 143.096 53.1797 142.477V142.367C53.1797 141.664 53.1354 141.026 53.0469 140.453C52.9635 139.88 52.8698 139.393 52.7656 138.992C52.6146 138.419 52.4323 137.906 52.2188 137.453C52.0052 136.995 51.7865 136.596 51.5625 136.258C51.3906 135.992 51.2135 135.76 51.0312 135.562C50.849 135.359 50.6719 135.188 50.5 135.047L50.8047 134.164C51.0651 134.31 51.3411 134.51 51.6328 134.766C51.9245 135.021 52.2109 135.328 52.4922 135.688C52.7839 136.057 53.0573 136.469 53.3125 136.922C53.5677 137.375 53.7917 137.885 53.9844 138.453C54.1719 139 54.3255 139.594 54.4453 140.234C54.5703 140.87 54.6328 141.586 54.6328 142.383V142.461ZM61.8047 139.219C61.8047 138.911 61.8984 138.648 62.0859 138.43C62.2734 138.211 62.5573 138.102 62.9375 138.102C63.3125 138.102 63.5964 138.211 63.7891 138.43C63.987 138.643 64.0859 138.906 64.0859 139.219C64.0859 139.526 63.987 139.784 63.7891 139.992C63.5911 140.201 63.3073 140.305 62.9375 140.305C62.5625 140.305 62.2786 140.201 62.0859 139.992C61.8984 139.779 61.8047 139.521 61.8047 139.219ZM63.6641 146.664C63.6641 147.185 63.5417 147.716 63.2969 148.258C63.0521 148.799 62.7214 149.255 62.3047 149.625L61.4062 149.133C61.6562 148.768 61.8333 148.38 61.9375 147.969C62.0417 147.557 62.0938 147.13 62.0938 146.688V145.289H63.6641V146.664Z" fill="white"/>
<path d="M198.188 123H196.742V113.469L193.766 114.602V113.281L198.07 111.625H198.188V123ZM210.25 118.648C210.25 119.372 210.167 120.016 210 120.578C209.833 121.135 209.594 121.604 209.281 121.984C208.969 122.37 208.586 122.661 208.133 122.859C207.68 123.057 207.161 123.156 206.578 123.156C206 123.156 205.482 123.06 205.023 122.867C204.565 122.669 204.177 122.375 203.859 121.984C203.542 121.604 203.299 121.135 203.133 120.578C202.966 120.016 202.883 119.372 202.883 118.648V115.984C202.883 115.26 202.966 114.62 203.133 114.062C203.299 113.5 203.542 113.026 203.859 112.641C204.172 112.255 204.555 111.964 205.008 111.766C205.466 111.562 205.984 111.461 206.562 111.461C207.146 111.461 207.664 111.562 208.117 111.766C208.576 111.964 208.964 112.255 209.281 112.641C209.594 113.026 209.833 113.5 210 114.062C210.167 114.62 210.25 115.26 210.25 115.984V118.648ZM204.336 118.359L208.766 114.961C208.724 114.586 208.648 114.255 208.539 113.969C208.435 113.677 208.292 113.435 208.109 113.242C207.932 113.044 207.714 112.896 207.453 112.797C207.198 112.698 206.901 112.648 206.562 112.648C206.219 112.648 205.914 112.703 205.648 112.812C205.388 112.917 205.167 113.07 204.984 113.273C204.766 113.529 204.602 113.859 204.492 114.266C204.388 114.667 204.336 115.133 204.336 115.664V117.57C204.336 117.701 204.336 117.831 204.336 117.961C204.336 118.091 204.336 118.224 204.336 118.359ZM208.797 118.953V117.344C208.797 117.266 208.797 117.117 208.797 116.898C208.797 116.674 208.797 116.49 208.797 116.344L204.375 119.727C204.422 120.107 204.505 120.443 204.625 120.734C204.745 121.021 204.901 121.258 205.094 121.445C205.271 121.622 205.484 121.758 205.734 121.852C205.984 121.94 206.266 121.984 206.578 121.984C206.906 121.984 207.198 121.935 207.453 121.836C207.708 121.737 207.924 121.594 208.102 121.406C208.341 121.151 208.516 120.818 208.625 120.406C208.74 119.995 208.797 119.51 208.797 118.953ZM219.859 118.648C219.859 119.372 219.776 120.016 219.609 120.578C219.443 121.135 219.203 121.604 218.891 121.984C218.578 122.37 218.195 122.661 217.742 122.859C217.289 123.057 216.771 123.156 216.188 123.156C215.609 123.156 215.091 123.06 214.633 122.867C214.174 122.669 213.786 122.375 213.469 121.984C213.151 121.604 212.909 121.135 212.742 120.578C212.576 120.016 212.492 119.372 212.492 118.648V115.984C212.492 115.26 212.576 114.62 212.742 114.062C212.909 113.5 213.151 113.026 213.469 112.641C213.781 112.255 214.164 111.964 214.617 111.766C215.076 111.562 215.594 111.461 216.172 111.461C216.755 111.461 217.273 111.562 217.727 111.766C218.185 111.964 218.573 112.255 218.891 112.641C219.203 113.026 219.443 113.5 219.609 114.062C219.776 114.62 219.859 115.26 219.859 115.984V118.648ZM213.945 118.359L218.375 114.961C218.333 114.586 218.258 114.255 218.148 113.969C218.044 113.677 217.901 113.435 217.719 113.242C217.542 113.044 217.323 112.896 217.062 112.797C216.807 112.698 216.51 112.648 216.172 112.648C215.828 112.648 215.523 112.703 215.258 112.812C214.997 112.917 214.776 113.07 214.594 113.273C214.375 113.529 214.211 113.859 214.102 114.266C213.997 114.667 213.945 115.133 213.945 115.664V117.57C213.945 117.701 213.945 117.831 213.945 117.961C213.945 118.091 213.945 118.224 213.945 118.359ZM218.406 118.953V117.344C218.406 117.266 218.406 117.117 218.406 116.898C218.406 116.674 218.406 116.49 218.406 116.344L213.984 119.727C214.031 120.107 214.115 120.443 214.234 120.734C214.354 121.021 214.51 121.258 214.703 121.445C214.88 121.622 215.094 121.758 215.344 121.852C215.594 121.94 215.875 121.984 216.188 121.984C216.516 121.984 216.807 121.935 217.062 121.836C217.318 121.737 217.534 121.594 217.711 121.406C217.951 121.151 218.125 120.818 218.234 120.406C218.349 119.995 218.406 119.51 218.406 118.953Z" fill="#EF876A"/>
</svg>
