<svg width="24" height="20" viewBox="0 0 24 20" fill="none" xmlns="http://www.w3.org/2000/svg">
<path d="M22 11.29L18.67 1.29C18.6408 1.21823 18.5924 1.15594 18.53 1.11C18.4709 1.04995 18.3935 1.01126 18.31 0.999998C18.2279 0.998528 18.1474 1.02303 18.08 1.07C18.0176 1.11594 17.9692 1.17823 17.94 1.25L15.68 7.92H8.32L6.1 1.26C6.08212 1.19263 6.04775 1.13077 6 1.08C5.92617 1.02216 5.83357 0.993667 5.74 0.999998C5.65787 0.998528 5.57738 1.02303 5.51 1.07C5.44763 1.11594 5.39917 1.17823 5.37 1.25L2 11.29C1.95121 11.4391 1.95107 11.5999 1.9996 11.749C2.04813 11.8982 2.14282 12.0281 2.27 12.12L12 19L21.69 12.12C21.8281 12.0373 21.934 11.9101 21.9904 11.7593C22.0467 11.6085 22.0501 11.443 22 11.29Z" stroke="#263066" stroke-width="2" stroke-linecap="round" stroke-linejoin="round"/>
</svg>
