<svg width="24" height="24" viewBox="0 0 24 24" fill="none" xmlns="http://www.w3.org/2000/svg">
<path d="M10.2037 14.3494C10.2039 14.3494 10.2041 14.3495 10.2042 14.3497L10.2074 14.3543C10.2096 14.3575 10.2101 14.3616 10.2086 14.3652L9.44049 16.2206C9.32139 16.5082 8.96974 16.6191 8.72861 16.4221C8.16163 15.9589 7.69936 15.3805 7.3726 14.7254C7.23345 14.4464 7.41977 14.1275 7.72716 14.0754L9.71187 13.739C9.7138 13.7386 9.71576 13.7394 9.71699 13.7409C9.71823 13.7425 9.72022 13.7432 9.72218 13.7429C9.79946 13.7292 9.87899 13.7365 9.95253 13.764C10.0271 13.7919 10.0927 13.8394 10.1424 13.9016C10.192 13.9638 10.2239 14.0383 10.2346 14.1171C10.2452 14.1958 10.2344 14.2758 10.2033 14.3488C10.2032 14.3491 10.2034 14.3494 10.2037 14.3494ZM9.37 12.225C9.37062 12.2222 9.37273 12.22 9.37548 12.2192C9.45046 12.1978 9.51845 12.1569 9.57245 12.1005C9.62752 12.0431 9.66598 11.9718 9.68373 11.8942C9.70148 11.8166 9.69786 11.7357 9.67325 11.66C9.64923 11.5861 9.60608 11.5199 9.54822 11.4682C9.54562 11.4658 9.54438 11.4623 9.54501 11.4589C9.54563 11.4555 9.54444 11.452 9.54187 11.4497L8.03109 10.0984C7.79873 9.8906 7.43329 9.94369 7.30205 10.2265C6.99148 10.8956 6.82846 11.624 6.82419 12.3617C6.82239 12.6719 7.12753 12.8758 7.42556 12.7899L9.36461 12.2307C9.36732 12.2299 9.36938 12.2277 9.37 12.225ZM10.514 10.242C10.5152 10.2411 10.5168 10.241 10.518 10.2419C10.582 10.288 10.6571 10.3161 10.7356 10.3232C10.8149 10.3304 10.8947 10.316 10.9665 10.2814C11.0382 10.2468 11.0992 10.1933 11.143 10.1268C11.1858 10.0618 11.2105 9.98667 11.2147 9.90907C11.2149 9.9056 11.2169 9.90248 11.22 9.90092C11.2231 9.89939 11.2251 9.89633 11.2253 9.89291L11.341 7.87276C11.3587 7.56259 11.0914 7.31012 10.789 7.38158C10.0705 7.5514 9.39682 7.874 8.81407 8.32728C8.56834 8.51841 8.59816 8.88583 8.85207 9.06595L10.51 10.242C10.5112 10.2429 10.5128 10.2428 10.514 10.242ZM11.2222 12.7566C11.2562 12.9044 11.3555 13.0288 11.4921 13.0948L11.7821 13.2347C11.9192 13.3009 12.0789 13.301 12.2161 13.2351L12.5044 13.0965C12.6413 13.0307 12.7409 12.9063 12.775 12.7583L12.8465 12.4487C12.8809 12.2995 12.8451 12.1428 12.7492 12.0233L12.5511 11.7765C12.4562 11.6582 12.3128 11.5894 12.1612 11.5894H11.8368C11.6852 11.5894 11.5418 11.6582 11.4469 11.7765L11.2487 12.0235C11.1529 12.1428 11.117 12.2994 11.1513 12.4486L11.2222 12.7566ZM12.775 9.89494C12.7756 9.89525 12.776 9.89587 12.7761 9.89657C12.7796 9.97584 12.8046 10.0527 12.8483 10.119C12.8921 10.1855 12.9533 10.2389 13.0252 10.2734C13.0971 10.3079 13.177 10.3223 13.2564 10.3149C13.3344 10.3076 13.409 10.2797 13.4725 10.234C13.4747 10.2324 13.4775 10.232 13.48 10.233C13.4825 10.2339 13.4853 10.2335 13.4875 10.232L15.1296 9.06769C15.384 8.88735 15.4135 8.5192 15.1671 8.32814C14.5899 7.88062 13.9246 7.55994 13.215 7.38723C12.9119 7.31346 12.6422 7.56612 12.6599 7.87756L12.7739 9.89333C12.774 9.89402 12.7744 9.89463 12.775 9.89494ZM23.652 15.8654L17.879 23.0464C17.7286 23.2324 17.5384 23.3824 17.3225 23.4852C17.1065 23.5879 16.8702 23.641 16.631 23.6404L7.37 23.6434C7.13082 23.6436 6.89463 23.5902 6.67883 23.487C6.46303 23.3839 6.27309 23.2337 6.123 23.0474L0.347003 15.8674C0.198386 15.6815 0.093603 15.4645 0.0404509 15.2325C-0.0127012 15.0005 -0.0128544 14.7595 0.0400027 14.5274L2.1 5.57244C2.208 5.10244 2.525 4.70844 2.963 4.49944L11.305 0.512442C11.5212 0.409104 11.7578 0.355469 11.9975 0.355469C12.2372 0.355469 12.4738 0.409104 12.69 0.512442L21.035 4.49744C21.473 4.70644 21.79 5.10144 21.898 5.57044L23.96 14.5254C24.068 14.9954 23.955 15.4884 23.652 15.8654ZM20.363 13.8084C20.321 13.7984 20.26 13.7824 20.218 13.7744C20.044 13.7414 19.903 13.7494 19.739 13.7364C19.389 13.6994 19.101 13.6694 18.844 13.5884C18.7653 13.5584 18.7034 13.4807 18.6622 13.4221C18.6397 13.3902 18.6076 13.3665 18.5701 13.3554C18.4879 13.3313 18.4359 13.2506 18.4457 13.1655C18.5291 12.4361 18.4874 11.6975 18.322 10.9814C18.1575 10.2632 17.8716 9.57879 17.4769 8.95756C17.4258 8.87704 17.4515 8.76037 17.5224 8.69661C17.5568 8.66569 17.5642 8.63399 17.5683 8.5879C17.5742 8.52021 17.5884 8.45046 17.657 8.37744C17.854 8.19244 18.101 8.03944 18.4 7.85544C18.542 7.77144 18.673 7.71844 18.815 7.61344C18.847 7.58944 18.891 7.55144 18.925 7.52444C19.165 7.33344 19.22 7.00444 19.048 6.78844C18.876 6.57244 18.542 6.55244 18.303 6.74344C18.269 6.77044 18.223 6.80544 18.192 6.83144C18.058 6.94744 17.975 7.06144 17.862 7.18144C17.616 7.43144 17.412 7.63944 17.189 7.79044C17.1185 7.83114 17.0242 7.83223 16.9534 7.82824C16.9097 7.82579 16.8665 7.83727 16.8309 7.86261C16.7535 7.91762 16.6476 7.90718 16.5803 7.8401C15.5356 6.79776 14.1688 6.13896 12.7023 5.97108C12.615 5.96108 12.5465 5.89033 12.5418 5.80254C12.5394 5.75752 12.5192 5.7158 12.4864 5.6848C12.4367 5.63773 12.3899 5.58269 12.375 5.48244C12.353 5.21444 12.39 4.92544 12.432 4.57744C12.455 4.41444 12.493 4.27944 12.5 4.10244C12.501 4.06244 12.499 4.00344 12.499 3.96044C12.499 3.65444 12.275 3.40544 11.999 3.40544C11.724 3.40544 11.5 3.65444 11.5 3.96044L11.501 3.97444C11.501 4.01544 11.499 4.06644 11.501 4.10244C11.507 4.27944 11.545 4.41444 11.568 4.57744C11.6075 4.90441 11.6416 5.1793 11.6274 5.43445C11.6255 5.46706 11.6202 5.49953 11.6084 5.53001C11.5854 5.58976 11.5521 5.64495 11.51 5.69306C11.4813 5.72591 11.4606 5.76594 11.4581 5.80952C11.4535 5.89143 11.3891 5.9571 11.3074 5.96549C9.82216 6.11811 8.43629 6.7835 7.38843 7.84694C7.32767 7.90861 7.23123 7.9192 7.16092 7.86869C7.12428 7.84237 7.07918 7.83167 7.0345 7.8379C6.9662 7.84742 6.89408 7.84979 6.807 7.79844C6.584 7.64844 6.38 7.44044 6.134 7.19044C6.021 7.07044 5.939 6.95644 5.805 6.84144C5.775 6.81544 5.728 6.77944 5.694 6.75344C5.59514 6.6733 5.47315 6.62703 5.346 6.62144C5.2705 6.61743 5.19511 6.63128 5.12596 6.66186C5.05681 6.69244 4.99584 6.73889 4.948 6.79744C4.776 7.01344 4.831 7.34344 5.071 7.53444L5.078 7.53944L5.182 7.62244C5.324 7.72744 5.454 7.78144 5.596 7.86444C5.895 8.04944 6.142 8.20244 6.339 8.38644C6.3955 8.4474 6.41774 8.54262 6.42953 8.61295C6.4362 8.65266 6.45539 8.68909 6.48541 8.71592C6.55058 8.77416 6.56274 8.87134 6.51597 8.94518C5.72073 10.2007 5.38258 11.6922 5.55853 13.1678C5.56918 13.2571 5.51463 13.342 5.42817 13.367C5.39104 13.3777 5.35853 13.4001 5.3351 13.4309C5.2844 13.4974 5.22148 13.5741 5.156 13.6004C4.899 13.6814 4.61 13.7104 4.261 13.7474C4.097 13.7614 3.956 13.7534 3.781 13.7864C3.7447 13.7933 3.69299 13.806 3.65043 13.8159C3.64881 13.8163 3.64725 13.8168 3.64576 13.8176C3.64459 13.8181 3.64337 13.8186 3.64211 13.819L3.637 13.8204C3.342 13.8914 3.153 14.1624 3.214 14.4284C3.275 14.6954 3.563 14.8574 3.859 14.7934C3.86366 14.7928 3.86827 14.7918 3.87278 14.7904L3.876 14.7894L4.005 14.7604C4.175 14.7144 4.299 14.6474 4.453 14.5884C4.783 14.4704 5.057 14.3714 5.323 14.3324C5.4064 14.3257 5.49312 14.3673 5.55592 14.4021C5.5918 14.4221 5.63303 14.4297 5.67347 14.4228C5.76219 14.4077 5.8483 14.4601 5.87807 14.545C6.36691 15.9397 7.31666 17.1263 8.57032 17.9089C8.64871 17.9578 8.68181 18.0559 8.64654 18.1413C8.62823 18.1857 8.62869 18.2351 8.64314 18.2809C8.66556 18.3519 8.68053 18.4309 8.662 18.4924C8.565 18.7444 8.399 19.0094 8.21 19.3054C8.119 19.4414 8.025 19.5474 7.942 19.7044C7.922 19.7414 7.897 19.7994 7.878 19.8384C7.75 20.1134 7.844 20.4294 8.091 20.5484C8.33874 20.6683 8.64634 20.5417 8.78057 20.2673C8.78085 20.2667 8.781 20.2661 8.781 20.2655C8.781 20.2648 8.78116 20.2641 8.78147 20.2635C8.8014 20.2247 8.82713 20.1742 8.843 20.1374C8.913 19.9754 8.937 19.8364 8.987 19.6794C9.119 19.3474 9.192 18.9994 9.374 18.7824C9.40918 18.7402 9.45922 18.7168 9.51539 18.6986C9.56197 18.6836 9.60235 18.6532 9.62598 18.6104C9.66954 18.5313 9.76468 18.4969 9.84963 18.5273C11.2456 19.0264 12.7713 19.0297 14.1694 18.5363C14.251 18.5075 14.3421 18.5407 14.3839 18.6164C14.4052 18.655 14.4406 18.6832 14.4826 18.6966C14.5488 18.7176 14.616 18.7467 14.673 18.8314C14.809 19.0634 14.902 19.3384 15.015 19.6714C15.065 19.8274 15.089 19.9664 15.16 20.1284C15.176 20.1654 15.203 20.2184 15.222 20.2574C15.355 20.5334 15.664 20.6594 15.912 20.5394C16.159 20.4214 16.253 20.1044 16.125 19.8294C16.105 19.7904 16.08 19.7334 16.06 19.6954C15.977 19.5394 15.883 19.4344 15.792 19.2974C15.602 19.0014 15.446 18.7564 15.349 18.5044C15.3218 18.416 15.3348 18.3507 15.3557 18.2916C15.3737 18.2408 15.377 18.1972 15.3571 18.1471C15.3293 18.0768 15.3524 17.98 15.4166 17.9401C16.691 17.1495 17.6526 15.9425 18.1386 14.524C18.1656 14.4452 18.2582 14.3982 18.3402 14.4134C18.3851 14.4217 18.4179 14.4093 18.4559 14.3839C18.5127 14.346 18.5766 14.3131 18.677 14.3204C18.943 14.3594 19.217 14.4584 19.547 14.5764C19.701 14.6364 19.824 14.7044 19.995 14.7494C20.031 14.7594 20.083 14.7684 20.125 14.7774L20.1273 14.7782C20.1318 14.7797 20.1363 14.7808 20.141 14.7814C20.438 14.8454 20.725 14.6834 20.786 14.4164C20.846 14.1504 20.658 13.8794 20.363 13.8084ZM16.4 9.70033C16.4 9.7004 16.4 9.70047 16.3999 9.70052L14.4518 11.4448C14.4507 11.4458 14.45 11.4473 14.45 11.4489C14.45 11.4505 14.4493 11.452 14.4481 11.4531C14.3888 11.5051 14.3446 11.5722 14.3201 11.6472C14.2953 11.723 14.2916 11.8041 14.3094 11.8818C14.3271 11.9596 14.3657 12.0311 14.421 12.0886C14.475 12.1448 14.543 12.1857 14.6179 12.207C14.6211 12.2079 14.6236 12.2103 14.6245 12.2135C14.6254 12.2166 14.6279 12.219 14.631 12.2199L16.5745 12.78C16.8749 12.8666 17.1815 12.6588 17.1759 12.3462C17.1694 11.9852 17.1253 11.6253 17.044 11.2724C16.917 10.7167 16.6996 10.1855 16.4005 9.7002C16.4003 9.69998 16.4 9.70008 16.4 9.70033ZM12.3921 15.0254C12.3889 15.0254 12.3861 15.0237 12.3846 15.021C12.346 14.9501 12.2885 14.8913 12.2185 14.8511C12.147 14.8101 12.0654 14.7901 11.983 14.7934C11.906 14.7963 11.8312 14.8194 11.7659 14.8602C11.7009 14.901 11.6477 14.9579 11.6115 15.0256C11.6112 15.0261 11.6106 15.0264 11.61 15.0264C11.6094 15.0264 11.6088 15.0268 11.6085 15.0273L10.63 16.796C10.4794 17.0683 10.6118 17.4123 10.916 17.4782C11.6325 17.6333 12.3739 17.634 13.0907 17.4804C13.3954 17.4151 13.5283 17.0707 13.3775 16.798L12.3994 15.0298C12.3979 15.0271 12.3951 15.0254 12.3921 15.0254ZM14.277 13.7299C14.2758 13.7315 14.2738 13.7322 14.2718 13.7319C14.1813 13.7159 14.088 13.7287 14.005 13.7684C13.9022 13.8175 13.8225 13.9046 13.7826 14.0113C13.743 14.1172 13.7457 14.2342 13.79 14.3381C13.7906 14.3396 13.7904 14.3412 13.7895 14.3425C13.7886 14.3437 13.7884 14.3453 13.789 14.3467L14.5697 16.2314C14.6888 16.5188 15.04 16.6297 15.2811 16.4331C15.8546 15.9656 16.3207 15.3797 16.6474 14.7159C16.7847 14.437 16.5982 14.1199 16.2917 14.0681L14.2821 13.728C14.2802 13.7276 14.2782 13.7284 14.277 13.7299Z" fill="#263066"/>
</svg>
