<svg width="40" height="40" viewBox="0 0 40 40" fill="none" xmlns="http://www.w3.org/2000/svg">
<path d="M39.125 6.7174C38.51 6.73907 38.6883 7.01574 37.3583 7.34407C36.0167 7.67407 34.3917 7.4724 32.9483 8.07907C29.17 9.6624 28.5583 15.7857 24.0567 18.1541C21.1067 19.8207 18.0967 20.2024 15.4067 21.0457C13.2483 21.9124 11.905 22.4857 10.3217 23.8507C9.09333 24.9091 8.79333 25.9374 7.51 27.2674C6.20667 29.0374 1.27 27.4641 0 29.6841C0.67 30.1174 1.05667 30.2374 2.23333 30.0841C1.99 30.5441 0.443333 31.1507 0.723333 31.8307C0.723333 31.8307 4.465 32.5124 7.61833 30.6091C9.08833 30.0107 10.4683 28.7441 12.7517 28.4407C15.7133 28.0474 19.0483 29.0624 22.6267 29.3474C21.8867 30.8091 21.1233 31.6724 20.3083 32.8791C20.055 33.1507 20.525 33.3907 21.3917 33.2274C22.9533 32.8407 24.0833 32.4224 25.2067 31.6457C26.67 30.6357 27.3 29.7124 28.535 28.2474C29.6083 29.9674 33.3917 30.3474 34.1683 28.8591C32.7233 28.2474 32.415 25.0641 32.91 23.6907C33.4933 22.3807 33.915 20.5307 34.3867 18.8107C34.8133 17.2607 35.075 14.8957 35.5833 13.6857C36.1917 12.1807 37.3717 11.7107 38.2583 10.9124C39.145 10.1141 40.025 9.44907 40 7.6224C39.99 7.02907 39.6833 6.70074 39.125 6.7174ZM38.17 7.45907C38.32 7.97073 38.555 8.20574 39.5717 8.29907C39.4233 9.58907 38.5617 10.2924 37.6 10.9691C36.7517 11.5624 35.8233 12.1357 35.2267 13.0657C34.615 14.0157 33.6417 16.7824 32.6933 19.9974C31.8733 22.7774 30.9183 24.6757 28.9 26.3424C28.65 25.7424 29.1833 25.3957 28.95 24.8474C28.6583 25.6741 28.02 26.8774 27.635 27.6141C26.3683 30.0374 24.27 31.9974 21.1333 32.5507C22.6217 30.5341 24.1117 28.3124 24.2933 24.8391C23.6267 24.9841 23.5733 26.7791 22.4967 27.4391C21.805 27.5141 20.8383 27.3557 19.875 27.2391C16.9983 26.9007 14.1 26.7691 11.3967 27.6391C9.555 28.2274 7.47 30.0507 5.91 30.7274C4.07667 31.5241 3.44833 31.5857 1.12833 31.5157C0.838333 31.1257 2.79833 30.6224 2.68833 29.7707C1.795 29.6741 1.275 29.8891 0.498333 29.5374C0.589195 29.3768 0.716502 29.2398 0.87 29.1374C2.29333 28.1541 6.33333 28.9041 7.415 27.8424C8.08333 27.1891 8.52 26.5024 8.97333 25.8357C9.415 25.1891 9.87 24.5607 10.5617 23.9941C10.8183 23.7857 11.2183 23.4257 11.5133 23.2224C12.695 22.4157 14.03 21.8374 15.4683 21.3341C17.425 20.6457 19.4033 20.4141 21.49 19.6174C22.78 19.1241 24.0033 18.6574 25.145 17.8041C25.415 17.6024 25.8233 17.2607 26.0617 17.0291C29.7617 13.3757 29.9967 8.40074 35.0867 7.87907C35.7033 7.81574 36.2067 7.83573 36.6667 7.8224C37.195 7.80573 37.6617 7.74407 38.17 7.45907ZM37.92 7.7874C37.8917 7.7874 37.8383 7.8124 37.765 7.88074C37.3233 8.33407 36.4483 9.35407 36.1317 10.3041C36.0483 10.5624 36.2117 10.4874 36.2683 10.3207C36.5833 9.3474 37.5817 8.2774 37.8867 7.95407C37.9617 7.8674 37.9717 7.78907 37.92 7.7874ZM38.0533 8.00907C38.025 8.0124 37.9767 8.04574 37.9133 8.12407C37.54 8.63407 36.8183 9.4074 36.6367 10.3907C36.5917 10.6574 36.7433 10.5624 36.7733 10.3891C36.95 9.38074 37.7867 8.53907 38.045 8.1774C38.1067 8.08074 38.1033 8.0024 38.0533 8.00907ZM38.2167 8.20907C38.1883 8.21574 38.1433 8.2524 38.0883 8.33573C37.7567 8.8774 37.3217 9.50074 37.2233 10.4941C37.2017 10.7641 37.345 10.6557 37.3617 10.4807C37.4483 9.46074 37.9933 8.76074 38.22 8.3774C38.2733 8.2774 38.2667 8.1974 38.2167 8.20907ZM38.395 8.36074C38.365 8.36907 38.325 8.41074 38.2767 8.4974C37.995 9.06407 37.73 9.4974 37.72 10.4974C37.7233 10.7691 37.8533 10.6474 37.855 10.4724C37.855 9.44907 38.2217 8.93074 38.4133 8.52907C38.4567 8.42407 38.4433 8.34407 38.395 8.36074ZM34.955 8.85073C34.0783 8.8724 33.56 9.25407 33.3917 9.98407C34.1117 10.6091 35.6217 10.1074 35.3533 8.86407C35.2203 8.8524 35.0885 8.84795 34.955 8.85073Z" fill="#263066"/>
</svg>
