<svg width="480" height="210" viewBox="0 0 480 210" fill="none" xmlns="http://www.w3.org/2000/svg">
<g clip-path="url(#clip0_532_7)">
<path d="M0 8C0 3.58172 3.58172 0 8 0H472C476.418 0 480 3.58172 480 8V210H0V8Z" fill="#404B80"/>
<path d="M0 8C0 3.58172 3.58172 0 8 0H472C476.418 0 480 3.58172 480 8V210H0V8Z" fill="#17204E"/>
<path d="M139.479 108.643C139.479 108.396 139.441 108.18 139.365 107.992C139.295 107.799 139.181 107.623 139.022 107.465C138.858 107.307 138.645 107.163 138.381 107.034C138.123 106.899 137.81 106.768 137.44 106.639C136.849 106.428 136.31 106.205 135.823 105.971C135.337 105.736 134.924 105.464 134.584 105.153C134.238 104.843 133.972 104.482 133.784 104.072C133.597 103.656 133.503 103.164 133.503 102.596C133.503 102.098 133.588 101.644 133.758 101.233C133.928 100.817 134.168 100.457 134.479 100.152C134.789 99.8477 135.164 99.6016 135.604 99.4141C136.043 99.2266 136.532 99.1064 137.071 99.0537V97.1641H138.478V99.0713C139.005 99.1416 139.479 99.2852 139.901 99.502C140.323 99.7188 140.684 100 140.982 100.346C141.275 100.697 141.501 101.11 141.659 101.585C141.823 102.054 141.905 102.581 141.905 103.167H139.462C139.462 102.792 139.415 102.464 139.321 102.183C139.228 101.901 139.096 101.67 138.926 101.488C138.773 101.33 138.589 101.21 138.372 101.128C138.161 101.046 137.927 101.005 137.669 101.005C137.37 101.005 137.109 101.046 136.887 101.128C136.67 101.204 136.491 101.312 136.351 101.453C136.21 101.6 136.104 101.77 136.034 101.963C135.97 102.156 135.938 102.367 135.938 102.596C135.938 102.824 135.97 103.029 136.034 103.211C136.104 103.387 136.222 103.551 136.386 103.703C136.544 103.855 136.755 104.002 137.019 104.143C137.282 104.277 137.61 104.415 138.003 104.556C138.595 104.778 139.131 105.01 139.611 105.25C140.092 105.484 140.505 105.757 140.851 106.067C141.19 106.384 141.451 106.75 141.633 107.166C141.82 107.576 141.914 108.062 141.914 108.625C141.914 109.141 141.829 109.606 141.659 110.022C141.489 110.433 141.246 110.787 140.93 111.086C140.613 111.385 140.232 111.625 139.787 111.807C139.342 111.982 138.844 112.097 138.293 112.149V113.872H136.896V112.149C136.397 112.103 135.914 111.994 135.445 111.824C134.977 111.648 134.563 111.396 134.206 111.068C133.843 110.74 133.553 110.327 133.336 109.829C133.119 109.325 133.011 108.722 133.011 108.019H135.463C135.463 108.44 135.524 108.795 135.647 109.082C135.771 109.363 135.932 109.586 136.131 109.75C136.324 109.92 136.547 110.04 136.799 110.11C137.051 110.181 137.309 110.216 137.572 110.216C137.906 110.216 138.196 110.175 138.442 110.093C138.688 110.005 138.891 109.885 139.049 109.732C139.189 109.598 139.295 109.437 139.365 109.249C139.441 109.062 139.479 108.859 139.479 108.643ZM160.696 112C160.638 111.883 160.588 111.748 160.547 111.596C160.506 111.443 160.471 111.282 160.441 111.112C160.307 111.259 160.151 111.396 159.976 111.525C159.8 111.654 159.606 111.766 159.396 111.859C159.179 111.959 158.941 112.035 158.684 112.088C158.426 112.146 158.147 112.176 157.849 112.176C157.362 112.176 156.914 112.105 156.504 111.965C156.1 111.824 155.751 111.628 155.458 111.376C155.165 111.124 154.937 110.825 154.772 110.479C154.608 110.128 154.526 109.747 154.526 109.337C154.526 108.81 154.629 108.344 154.834 107.939C155.039 107.529 155.347 107.192 155.757 106.929C156.126 106.688 156.58 106.507 157.119 106.384C157.664 106.255 158.288 106.19 158.991 106.19H160.354V105.628C160.354 105.405 160.318 105.206 160.248 105.03C160.178 104.849 160.072 104.693 159.932 104.564C159.785 104.43 159.601 104.327 159.378 104.257C159.161 104.181 158.906 104.143 158.613 104.143C158.355 104.143 158.133 104.175 157.945 104.239C157.758 104.298 157.605 104.383 157.488 104.494C157.383 104.594 157.304 104.714 157.251 104.854C157.204 104.995 157.181 105.15 157.181 105.32H154.737C154.737 104.916 154.825 104.532 155.001 104.169C155.183 103.806 155.446 103.486 155.792 103.211C156.132 102.936 156.548 102.719 157.04 102.561C157.538 102.396 158.106 102.314 158.745 102.314C159.319 102.314 159.853 102.385 160.345 102.525C160.843 102.666 161.273 102.874 161.637 103.149C162 103.425 162.284 103.773 162.489 104.195C162.694 104.611 162.797 105.095 162.797 105.646V109.724C162.797 110.233 162.829 110.655 162.894 110.989C162.958 111.323 163.052 111.61 163.175 111.851V112H160.696ZM158.367 110.286C158.613 110.286 158.842 110.257 159.053 110.198C159.264 110.14 159.454 110.063 159.624 109.97C159.794 109.876 159.94 109.771 160.063 109.653C160.187 109.53 160.283 109.407 160.354 109.284V107.649H159.105C158.725 107.649 158.399 107.688 158.13 107.764C157.86 107.834 157.641 107.934 157.471 108.062C157.301 108.197 157.175 108.358 157.093 108.546C157.011 108.728 156.97 108.927 156.97 109.144C156.97 109.313 156.999 109.472 157.058 109.618C157.122 109.759 157.213 109.879 157.33 109.979C157.447 110.072 157.591 110.148 157.761 110.207C157.937 110.26 158.139 110.286 158.367 110.286ZM170.048 100.161V102.49H173.599V104.292H170.048V108.379C170.048 108.725 170.086 109.015 170.162 109.249C170.244 109.478 170.358 109.659 170.505 109.794C170.651 109.935 170.827 110.034 171.032 110.093C171.243 110.151 171.478 110.181 171.735 110.181C171.923 110.181 172.113 110.172 172.307 110.154C172.506 110.137 172.696 110.113 172.878 110.084C173.054 110.061 173.218 110.034 173.37 110.005C173.528 109.976 173.663 109.946 173.774 109.917L174.012 111.596C173.842 111.695 173.643 111.783 173.414 111.859C173.186 111.93 172.942 111.988 172.685 112.035C172.427 112.082 172.157 112.117 171.876 112.141C171.601 112.17 171.328 112.185 171.059 112.185C170.537 112.185 170.062 112.117 169.635 111.982C169.213 111.842 168.853 111.625 168.554 111.332C168.249 111.045 168.015 110.679 167.851 110.233C167.687 109.782 167.604 109.243 167.604 108.616V104.292H165.434V102.49H167.604V100.161H170.048ZM176.886 98.5H182.203V110.014H184.928V112H176.886V110.014H179.733V100.495H176.886V98.5ZM193.128 112C193.069 111.883 193.02 111.748 192.979 111.596C192.938 111.443 192.902 111.282 192.873 111.112C192.738 111.259 192.583 111.396 192.407 111.525C192.231 111.654 192.038 111.766 191.827 111.859C191.61 111.959 191.373 112.035 191.115 112.088C190.857 112.146 190.579 112.176 190.28 112.176C189.794 112.176 189.346 112.105 188.936 111.965C188.531 111.824 188.183 111.628 187.89 111.376C187.597 111.124 187.368 110.825 187.204 110.479C187.04 110.128 186.958 109.747 186.958 109.337C186.958 108.81 187.061 108.344 187.266 107.939C187.471 107.529 187.778 107.192 188.188 106.929C188.558 106.688 189.012 106.507 189.551 106.384C190.096 106.255 190.72 106.19 191.423 106.19H192.785V105.628C192.785 105.405 192.75 105.206 192.68 105.03C192.609 104.849 192.504 104.693 192.363 104.564C192.217 104.43 192.032 104.327 191.81 104.257C191.593 104.181 191.338 104.143 191.045 104.143C190.787 104.143 190.564 104.175 190.377 104.239C190.189 104.298 190.037 104.383 189.92 104.494C189.814 104.594 189.735 104.714 189.683 104.854C189.636 104.995 189.612 105.15 189.612 105.32H187.169C187.169 104.916 187.257 104.532 187.433 104.169C187.614 103.806 187.878 103.486 188.224 103.211C188.563 102.936 188.979 102.719 189.472 102.561C189.97 102.396 190.538 102.314 191.177 102.314C191.751 102.314 192.284 102.385 192.776 102.525C193.274 102.666 193.705 102.874 194.068 103.149C194.432 103.425 194.716 103.773 194.921 104.195C195.126 104.611 195.229 105.095 195.229 105.646V109.724C195.229 110.233 195.261 110.655 195.325 110.989C195.39 111.323 195.483 111.61 195.606 111.851V112H193.128ZM190.799 110.286C191.045 110.286 191.273 110.257 191.484 110.198C191.695 110.14 191.886 110.063 192.056 109.97C192.226 109.876 192.372 109.771 192.495 109.653C192.618 109.53 192.715 109.407 192.785 109.284V107.649H191.537C191.156 107.649 190.831 107.688 190.562 107.764C190.292 107.834 190.072 107.934 189.902 108.062C189.732 108.197 189.606 108.358 189.524 108.546C189.442 108.728 189.401 108.927 189.401 109.144C189.401 109.313 189.431 109.472 189.489 109.618C189.554 109.759 189.645 109.879 189.762 109.979C189.879 110.072 190.022 110.148 190.192 110.207C190.368 110.26 190.57 110.286 190.799 110.286ZM204.132 109.39C204.132 109.243 204.097 109.114 204.026 109.003C203.962 108.892 203.845 108.786 203.675 108.687C203.499 108.593 203.268 108.505 202.98 108.423C202.693 108.341 202.33 108.259 201.891 108.177C201.334 108.065 200.824 107.928 200.361 107.764C199.904 107.594 199.512 107.389 199.184 107.148C198.855 106.914 198.598 106.642 198.41 106.331C198.229 106.021 198.138 105.663 198.138 105.259C198.138 104.866 198.231 104.491 198.419 104.134C198.606 103.776 198.876 103.463 199.228 103.193C199.579 102.924 200.007 102.71 200.511 102.552C201.015 102.394 201.583 102.314 202.216 102.314C202.878 102.314 203.473 102.394 204 102.552C204.527 102.704 204.976 102.915 205.345 103.185C205.708 103.46 205.986 103.785 206.18 104.16C206.373 104.535 206.47 104.942 206.47 105.382H204.026C204.026 105.224 204 105.077 203.947 104.942C203.895 104.802 203.815 104.676 203.71 104.564C203.563 104.418 203.364 104.301 203.112 104.213C202.866 104.125 202.567 104.081 202.216 104.081C201.917 104.081 201.656 104.11 201.434 104.169C201.211 104.228 201.029 104.31 200.889 104.415C200.76 104.509 200.66 104.62 200.59 104.749C200.525 104.872 200.493 105.004 200.493 105.145C200.493 105.285 200.522 105.417 200.581 105.54C200.64 105.657 200.745 105.763 200.897 105.856C201.044 105.956 201.246 106.047 201.504 106.129C201.762 106.205 202.09 106.272 202.488 106.331C203.062 106.425 203.596 106.545 204.088 106.691C204.58 106.838 205.005 107.025 205.362 107.254C205.72 107.488 205.998 107.772 206.197 108.106C206.402 108.435 206.505 108.827 206.505 109.284C206.505 109.706 206.402 110.096 206.197 110.453C205.998 110.805 205.714 111.109 205.345 111.367C204.97 111.625 204.519 111.827 203.991 111.974C203.464 112.114 202.875 112.185 202.225 112.185C201.51 112.185 200.877 112.091 200.326 111.903C199.781 111.716 199.324 111.47 198.955 111.165C198.586 110.866 198.305 110.526 198.111 110.146C197.924 109.759 197.83 109.372 197.83 108.985H200.159C200.177 109.243 200.247 109.466 200.37 109.653C200.493 109.835 200.651 109.981 200.845 110.093C201.038 110.21 201.258 110.295 201.504 110.348C201.756 110.4 202.014 110.427 202.277 110.427C202.594 110.427 202.869 110.4 203.104 110.348C203.344 110.289 203.54 110.213 203.692 110.119C203.839 110.025 203.947 109.917 204.018 109.794C204.094 109.671 204.132 109.536 204.132 109.39ZM225.753 109.39C225.753 109.243 225.718 109.114 225.647 109.003C225.583 108.892 225.466 108.786 225.296 108.687C225.12 108.593 224.889 108.505 224.602 108.423C224.314 108.341 223.951 108.259 223.512 108.177C222.955 108.065 222.445 107.928 221.982 107.764C221.525 107.594 221.133 107.389 220.805 107.148C220.477 106.914 220.219 106.642 220.031 106.331C219.85 106.021 219.759 105.663 219.759 105.259C219.759 104.866 219.853 104.491 220.04 104.134C220.228 103.776 220.497 103.463 220.849 103.193C221.2 102.924 221.628 102.71 222.132 102.552C222.636 102.394 223.204 102.314 223.837 102.314C224.499 102.314 225.094 102.394 225.621 102.552C226.148 102.704 226.597 102.915 226.966 103.185C227.329 103.46 227.607 103.785 227.801 104.16C227.994 104.535 228.091 104.942 228.091 105.382H225.647C225.647 105.224 225.621 105.077 225.568 104.942C225.516 104.802 225.437 104.676 225.331 104.564C225.185 104.418 224.985 104.301 224.733 104.213C224.487 104.125 224.188 104.081 223.837 104.081C223.538 104.081 223.277 104.11 223.055 104.169C222.832 104.228 222.65 104.31 222.51 104.415C222.381 104.509 222.281 104.62 222.211 104.749C222.146 104.872 222.114 105.004 222.114 105.145C222.114 105.285 222.144 105.417 222.202 105.54C222.261 105.657 222.366 105.763 222.519 105.856C222.665 105.956 222.867 106.047 223.125 106.129C223.383 106.205 223.711 106.272 224.109 106.331C224.684 106.425 225.217 106.545 225.709 106.691C226.201 106.838 226.626 107.025 226.983 107.254C227.341 107.488 227.619 107.772 227.818 108.106C228.023 108.435 228.126 108.827 228.126 109.284C228.126 109.706 228.023 110.096 227.818 110.453C227.619 110.805 227.335 111.109 226.966 111.367C226.591 111.625 226.14 111.827 225.612 111.974C225.085 112.114 224.496 112.185 223.846 112.185C223.131 112.185 222.498 112.091 221.947 111.903C221.402 111.716 220.945 111.47 220.576 111.165C220.207 110.866 219.926 110.526 219.732 110.146C219.545 109.759 219.451 109.372 219.451 108.985H221.78C221.798 109.243 221.868 109.466 221.991 109.653C222.114 109.835 222.272 109.981 222.466 110.093C222.659 110.21 222.879 110.295 223.125 110.348C223.377 110.4 223.635 110.427 223.898 110.427C224.215 110.427 224.49 110.4 224.725 110.348C224.965 110.289 225.161 110.213 225.313 110.119C225.46 110.025 225.568 109.917 225.639 109.794C225.715 109.671 225.753 109.536 225.753 109.39ZM234.639 110.225C234.879 110.225 235.107 110.189 235.324 110.119C235.541 110.049 235.731 109.949 235.896 109.82C236.06 109.691 236.186 109.536 236.273 109.354C236.367 109.173 236.408 108.971 236.396 108.748H238.699C238.711 109.24 238.608 109.697 238.392 110.119C238.181 110.541 237.891 110.904 237.521 111.209C237.152 111.514 236.722 111.754 236.229 111.93C235.743 112.1 235.228 112.185 234.683 112.185C233.944 112.185 233.297 112.062 232.74 111.815C232.184 111.563 231.721 111.221 231.352 110.787C230.977 110.354 230.692 109.847 230.499 109.267C230.312 108.681 230.218 108.054 230.218 107.386V107.122C230.218 106.454 230.312 105.83 230.499 105.25C230.687 104.664 230.968 104.154 231.343 103.721C231.718 103.287 232.181 102.944 232.731 102.692C233.288 102.44 233.933 102.314 234.665 102.314C235.251 102.314 235.793 102.402 236.291 102.578C236.789 102.754 237.22 103 237.583 103.316C237.94 103.639 238.219 104.028 238.418 104.485C238.617 104.937 238.711 105.443 238.699 106.006H236.396C236.408 105.771 236.373 105.549 236.291 105.338C236.209 105.127 236.089 104.945 235.931 104.793C235.772 104.641 235.582 104.521 235.359 104.433C235.137 104.339 234.894 104.292 234.63 104.292C234.243 104.292 233.924 104.371 233.672 104.529C233.42 104.688 233.221 104.898 233.074 105.162C232.922 105.426 232.813 105.728 232.749 106.067C232.69 106.407 232.661 106.759 232.661 107.122V107.386C232.661 107.755 232.69 108.112 232.749 108.458C232.808 108.798 232.913 109.097 233.065 109.354C233.212 109.618 233.411 109.829 233.663 109.987C233.921 110.146 234.246 110.225 234.639 110.225ZM243.683 103.8C243.806 103.618 243.94 103.451 244.087 103.299C244.239 103.141 244.397 103.003 244.562 102.886C244.813 102.704 245.092 102.563 245.396 102.464C245.701 102.364 246.023 102.314 246.363 102.314C246.861 102.314 247.318 102.391 247.734 102.543C248.15 102.689 248.508 102.921 248.807 103.237C249.105 103.554 249.337 103.961 249.501 104.459C249.671 104.951 249.756 105.546 249.756 106.243V112H247.312V106.226C247.312 105.886 247.269 105.593 247.181 105.347C247.099 105.101 246.979 104.901 246.82 104.749C246.662 104.597 246.472 104.485 246.249 104.415C246.026 104.339 245.774 104.301 245.493 104.301C245.276 104.301 245.074 104.321 244.887 104.362C244.699 104.403 244.529 104.465 244.377 104.547C244.236 104.617 244.107 104.702 243.99 104.802C243.879 104.901 243.776 105.013 243.683 105.136V112H241.239V98.5H243.683V103.8ZM256.664 112.176C255.932 112.176 255.267 112.056 254.669 111.815C254.071 111.575 253.559 111.247 253.131 110.831C252.703 110.421 252.372 109.938 252.138 109.381C251.909 108.818 251.795 108.218 251.795 107.579V107.228C251.795 106.501 251.909 105.839 252.138 105.241C252.366 104.638 252.686 104.119 253.096 103.686C253.506 103.252 253.992 102.915 254.555 102.675C255.117 102.435 255.729 102.314 256.392 102.314C257.077 102.314 257.687 102.429 258.22 102.657C258.759 102.88 259.216 103.196 259.591 103.606C259.96 104.017 260.241 104.512 260.435 105.092C260.628 105.666 260.725 106.302 260.725 106.999V108.036H254.273V108.062C254.355 108.443 254.461 108.751 254.59 108.985C254.719 109.214 254.892 109.422 255.108 109.609C255.331 109.803 255.586 109.952 255.873 110.058C256.16 110.163 256.474 110.216 256.813 110.216C257.294 110.216 257.76 110.125 258.211 109.943C258.662 109.762 259.028 109.489 259.31 109.126L260.531 110.444C260.221 110.884 259.729 111.282 259.055 111.64C258.381 111.997 257.584 112.176 256.664 112.176ZM256.374 104.292C256.099 104.292 255.847 104.342 255.618 104.441C255.39 104.535 255.19 104.673 255.021 104.854C254.845 105.036 254.698 105.253 254.581 105.505C254.464 105.757 254.376 106.038 254.317 106.349H258.325V106.155C258.325 105.897 258.278 105.654 258.185 105.426C258.091 105.197 257.962 104.998 257.798 104.828C257.634 104.664 257.432 104.535 257.191 104.441C256.957 104.342 256.685 104.292 256.374 104.292ZM264.381 102.49L264.451 103.642C264.633 103.231 264.882 102.909 265.198 102.675C265.521 102.435 265.91 102.314 266.367 102.314C266.59 102.314 266.789 102.341 266.965 102.394C267.141 102.446 267.293 102.528 267.422 102.64C267.521 102.722 267.606 102.821 267.677 102.938C267.753 103.05 267.817 103.179 267.87 103.325C267.952 103.185 268.043 103.059 268.143 102.947C268.248 102.83 268.362 102.73 268.485 102.648C268.638 102.543 268.811 102.461 269.004 102.402C269.197 102.344 269.408 102.314 269.637 102.314C269.924 102.314 270.19 102.367 270.437 102.473C270.688 102.578 270.908 102.745 271.096 102.974C271.277 103.208 271.418 103.51 271.518 103.879C271.623 104.242 271.676 104.688 271.676 105.215V112H269.452V105.206C269.452 105.024 269.432 104.875 269.391 104.758C269.355 104.641 269.306 104.547 269.241 104.477C269.177 104.412 269.101 104.368 269.013 104.345C268.931 104.315 268.846 104.301 268.758 104.301C268.664 104.301 268.579 104.312 268.503 104.336C268.433 104.359 268.365 104.392 268.301 104.433C268.248 104.474 268.201 104.521 268.16 104.573C268.119 104.62 268.084 104.676 268.055 104.74C268.055 104.752 268.055 104.778 268.055 104.819C268.055 104.86 268.055 104.916 268.055 104.986V112H265.901V105.197C265.901 105.016 265.884 104.866 265.849 104.749C265.813 104.632 265.767 104.541 265.708 104.477C265.644 104.412 265.57 104.368 265.488 104.345C265.406 104.315 265.318 104.301 265.225 104.301C265.119 104.301 265.025 104.318 264.943 104.354C264.861 104.389 264.788 104.438 264.724 104.503C264.677 104.55 264.636 104.605 264.601 104.67C264.565 104.734 264.533 104.805 264.504 104.881V112H262.28V102.49H264.381ZM279.612 112C279.554 111.883 279.504 111.748 279.463 111.596C279.422 111.443 279.387 111.282 279.357 111.112C279.223 111.259 279.067 111.396 278.892 111.525C278.716 111.654 278.522 111.766 278.312 111.859C278.095 111.959 277.857 112.035 277.6 112.088C277.342 112.146 277.063 112.176 276.765 112.176C276.278 112.176 275.83 112.105 275.42 111.965C275.016 111.824 274.667 111.628 274.374 111.376C274.081 111.124 273.853 110.825 273.688 110.479C273.524 110.128 273.442 109.747 273.442 109.337C273.442 108.81 273.545 108.344 273.75 107.939C273.955 107.529 274.263 107.192 274.673 106.929C275.042 106.688 275.496 106.507 276.035 106.384C276.58 106.255 277.204 106.19 277.907 106.19H279.27V105.628C279.27 105.405 279.234 105.206 279.164 105.03C279.094 104.849 278.988 104.693 278.848 104.564C278.701 104.43 278.517 104.327 278.294 104.257C278.077 104.181 277.822 104.143 277.529 104.143C277.271 104.143 277.049 104.175 276.861 104.239C276.674 104.298 276.521 104.383 276.404 104.494C276.299 104.594 276.22 104.714 276.167 104.854C276.12 104.995 276.097 105.15 276.097 105.32H273.653C273.653 104.916 273.741 104.532 273.917 104.169C274.099 103.806 274.362 103.486 274.708 103.211C275.048 102.936 275.464 102.719 275.956 102.561C276.454 102.396 277.022 102.314 277.661 102.314C278.235 102.314 278.769 102.385 279.261 102.525C279.759 102.666 280.189 102.874 280.553 103.149C280.916 103.425 281.2 103.773 281.405 104.195C281.61 104.611 281.713 105.095 281.713 105.646V109.724C281.713 110.233 281.745 110.655 281.81 110.989C281.874 111.323 281.968 111.61 282.091 111.851V112H279.612ZM277.283 110.286C277.529 110.286 277.758 110.257 277.969 110.198C278.18 110.14 278.37 110.063 278.54 109.97C278.71 109.876 278.856 109.771 278.979 109.653C279.103 109.53 279.199 109.407 279.27 109.284V107.649H278.021C277.641 107.649 277.315 107.688 277.046 107.764C276.776 107.834 276.557 107.934 276.387 108.062C276.217 108.197 276.091 108.358 276.009 108.546C275.927 108.728 275.886 108.927 275.886 109.144C275.886 109.313 275.915 109.472 275.974 109.618C276.038 109.759 276.129 109.879 276.246 109.979C276.363 110.072 276.507 110.148 276.677 110.207C276.853 110.26 277.055 110.286 277.283 110.286ZM301.233 112C301.175 111.883 301.125 111.748 301.084 111.596C301.043 111.443 301.008 111.282 300.979 111.112C300.844 111.259 300.688 111.396 300.513 111.525C300.337 111.654 300.144 111.766 299.933 111.859C299.716 111.959 299.479 112.035 299.221 112.088C298.963 112.146 298.685 112.176 298.386 112.176C297.899 112.176 297.451 112.105 297.041 111.965C296.637 111.824 296.288 111.628 295.995 111.376C295.702 111.124 295.474 110.825 295.31 110.479C295.146 110.128 295.063 109.747 295.063 109.337C295.063 108.81 295.166 108.344 295.371 107.939C295.576 107.529 295.884 107.192 296.294 106.929C296.663 106.688 297.117 106.507 297.656 106.384C298.201 106.255 298.825 106.19 299.528 106.19H300.891V105.628C300.891 105.405 300.855 105.206 300.785 105.03C300.715 104.849 300.609 104.693 300.469 104.564C300.322 104.43 300.138 104.327 299.915 104.257C299.698 104.181 299.443 104.143 299.15 104.143C298.893 104.143 298.67 104.175 298.482 104.239C298.295 104.298 298.143 104.383 298.025 104.494C297.92 104.594 297.841 104.714 297.788 104.854C297.741 104.995 297.718 105.15 297.718 105.32H295.274C295.274 104.916 295.362 104.532 295.538 104.169C295.72 103.806 295.983 103.486 296.329 103.211C296.669 102.936 297.085 102.719 297.577 102.561C298.075 102.396 298.644 102.314 299.282 102.314C299.856 102.314 300.39 102.385 300.882 102.525C301.38 102.666 301.811 102.874 302.174 103.149C302.537 103.425 302.821 103.773 303.026 104.195C303.231 104.611 303.334 105.095 303.334 105.646V109.724C303.334 110.233 303.366 110.655 303.431 110.989C303.495 111.323 303.589 111.61 303.712 111.851V112H301.233ZM298.904 110.286C299.15 110.286 299.379 110.257 299.59 110.198C299.801 110.14 299.991 110.063 300.161 109.97C300.331 109.876 300.478 109.771 300.601 109.653C300.724 109.53 300.82 109.407 300.891 109.284V107.649H299.643C299.262 107.649 298.937 107.688 298.667 107.764C298.397 107.834 298.178 107.934 298.008 108.062C297.838 108.197 297.712 108.358 297.63 108.546C297.548 108.728 297.507 108.927 297.507 109.144C297.507 109.313 297.536 109.472 297.595 109.618C297.659 109.759 297.75 109.879 297.867 109.979C297.984 110.072 298.128 110.148 298.298 110.207C298.474 110.26 298.676 110.286 298.904 110.286ZM306.138 115.656V102.49H308.396L308.484 103.422C308.613 103.264 308.754 103.123 308.906 103C309.059 102.871 309.223 102.76 309.398 102.666C309.609 102.555 309.841 102.47 310.093 102.411C310.351 102.347 310.626 102.314 310.919 102.314C311.522 102.314 312.056 102.432 312.519 102.666C312.981 102.895 313.371 103.22 313.688 103.642C314.004 104.069 314.241 104.582 314.399 105.18C314.563 105.771 314.646 106.428 314.646 107.148V107.333C314.646 108.024 314.563 108.666 314.399 109.258C314.241 109.85 314.007 110.359 313.696 110.787C313.38 111.221 312.99 111.561 312.527 111.807C312.064 112.053 311.534 112.176 310.937 112.176C310.62 112.176 310.327 112.141 310.058 112.07C309.794 112.006 309.548 111.909 309.319 111.78C309.185 111.698 309.056 111.607 308.933 111.508C308.81 111.408 308.692 111.297 308.581 111.174V115.656H306.138ZM312.202 107.148C312.202 106.75 312.164 106.378 312.088 106.032C312.018 105.681 311.906 105.376 311.754 105.118C311.596 104.866 311.394 104.667 311.147 104.521C310.907 104.374 310.614 104.301 310.269 104.301C310.069 104.301 309.888 104.321 309.724 104.362C309.56 104.397 309.41 104.45 309.275 104.521C309.123 104.603 308.988 104.705 308.871 104.828C308.76 104.951 308.663 105.095 308.581 105.259V109.231C308.657 109.384 308.748 109.521 308.854 109.645C308.965 109.768 309.091 109.873 309.231 109.961C309.366 110.043 309.521 110.107 309.697 110.154C309.873 110.195 310.069 110.216 310.286 110.216C310.632 110.216 310.925 110.14 311.165 109.987C311.411 109.835 311.61 109.627 311.763 109.363C311.915 109.1 312.026 108.795 312.097 108.449C312.167 108.098 312.202 107.726 312.202 107.333V107.148ZM316.948 115.656V102.49H319.207L319.295 103.422C319.424 103.264 319.564 103.123 319.717 103C319.869 102.871 320.033 102.76 320.209 102.666C320.42 102.555 320.651 102.47 320.903 102.411C321.161 102.347 321.437 102.314 321.729 102.314C322.333 102.314 322.866 102.432 323.329 102.666C323.792 102.895 324.182 103.22 324.498 103.642C324.814 104.069 325.052 104.582 325.21 105.18C325.374 105.771 325.456 106.428 325.456 107.148V107.333C325.456 108.024 325.374 108.666 325.21 109.258C325.052 109.85 324.817 110.359 324.507 110.787C324.19 111.221 323.801 111.561 323.338 111.807C322.875 112.053 322.345 112.176 321.747 112.176C321.431 112.176 321.138 112.141 320.868 112.07C320.604 112.006 320.358 111.909 320.13 111.78C319.995 111.698 319.866 111.607 319.743 111.508C319.62 111.408 319.503 111.297 319.392 111.174V115.656H316.948ZM323.013 107.148C323.013 106.75 322.975 106.378 322.898 106.032C322.828 105.681 322.717 105.376 322.564 105.118C322.406 104.866 322.204 104.667 321.958 104.521C321.718 104.374 321.425 104.301 321.079 104.301C320.88 104.301 320.698 104.321 320.534 104.362C320.37 104.397 320.221 104.45 320.086 104.521C319.934 104.603 319.799 104.705 319.682 104.828C319.57 104.951 319.474 105.095 319.392 105.259V109.231C319.468 109.384 319.559 109.521 319.664 109.645C319.775 109.768 319.901 109.873 320.042 109.961C320.177 110.043 320.332 110.107 320.508 110.154C320.684 110.195 320.88 110.216 321.097 110.216C321.442 110.216 321.735 110.14 321.976 109.987C322.222 109.835 322.421 109.627 322.573 109.363C322.726 109.1 322.837 108.795 322.907 108.449C322.978 108.098 323.013 107.726 323.013 107.333V107.148ZM328.233 98.5H333.551V110.014H336.275V112H328.233V110.014H331.081V100.495H328.233V98.5ZM340.037 115.841C339.803 115.841 339.598 115.826 339.422 115.797C339.252 115.768 339.062 115.724 338.851 115.665L339.149 113.802C339.249 113.802 339.375 113.805 339.527 113.811C339.686 113.822 339.812 113.828 339.905 113.828C340.099 113.828 340.269 113.767 340.415 113.644C340.567 113.526 340.696 113.397 340.802 113.257C340.907 113.116 340.983 113.011 341.03 112.94C341.083 112.87 341.145 112.771 341.215 112.642L341.777 111.596L337.752 102.49H340.424L342.604 108.062L342.867 109.029L343.228 108.08L345.398 102.49H348.097L343.271 113.424C343.166 113.664 343.028 113.925 342.858 114.206C342.694 114.487 342.486 114.748 342.234 114.988C341.982 115.229 341.675 115.431 341.312 115.595C340.954 115.759 340.529 115.841 340.037 115.841Z" fill="white"/>
<rect y="33" width="480" height="1" fill="white" fill-opacity="0.2"/>
<circle cx="19" cy="17" r="5" fill="#FF5656"/>
<circle cx="19" cy="17" r="4.5" stroke="black" stroke-opacity="0.1"/>
<circle cx="35" cy="17" r="5" fill="#FFBD3D"/>
<circle cx="35" cy="17" r="4.5" stroke="black" stroke-opacity="0.1"/>
<circle cx="51" cy="17" r="5" fill="#5DFF6D"/>
<circle cx="51" cy="17" r="4.5" stroke="black" stroke-opacity="0.1"/>
</g>
<path d="M8 0.5H472C476.142 0.5 479.5 3.85786 479.5 8V209.5H0.5V8C0.5 3.85786 3.85786 0.5 8 0.5Z" stroke="#E1E4F5"/>
<defs>
<clipPath id="clip0_532_7">
<path d="M0 8C0 3.58172 3.58172 0 8 0H472C476.418 0 480 3.58172 480 8V210H0V8Z" fill="white"/>
</clipPath>
</defs>
</svg>
