<svg width="40" height="40" viewBox="0 0 40 40" fill="none" xmlns="http://www.w3.org/2000/svg">
<path fill-rule="evenodd" clip-rule="evenodd" d="M9.10321 6.73346C8.64821 6.72503 8.32625 6.7828 7.98616 6.85744V6.91922H8.04836C8.26574 7.36515 8.64905 7.65232 8.91725 8.03648C9.12346 8.47103 9.33029 8.90495 9.53713 9.33887C9.55822 9.31821 9.57909 9.29776 9.59933 9.27709C9.98412 9.00658 10.1595 8.5735 10.1579 7.91229C10.0035 7.74994 9.98054 7.54711 9.84729 7.35377C9.6706 7.0959 9.32692 6.95021 9.10321 6.73346ZM39.1311 38.5615C39.424 38.7764 39.6203 39.1095 40 39.2445V39.1823C39.8001 38.9288 39.7493 38.579 39.5659 38.3134C39.2977 38.0452 39.0274 37.7759 38.7592 37.5067C37.9702 36.4598 36.9697 35.541 35.9054 34.7773C35.0576 34.1678 33.1575 33.3455 32.8032 32.3581C32.783 32.337 32.7619 32.3161 32.7408 32.295C33.3424 32.2276 34.0472 32.01 34.6024 31.8609C35.5351 31.6108 36.369 31.6758 37.3318 31.4268C37.7667 31.3022 38.2006 31.1778 38.6348 31.0548V30.8058C38.1479 30.3061 37.8009 29.6449 37.2704 29.1927C35.8805 28.0102 34.3647 26.8278 32.803 25.8428C31.9377 25.2958 30.8668 24.941 29.949 24.4775C29.6403 24.3219 29.0985 24.2408 28.8942 23.9812C28.4128 23.3664 28.1499 22.5873 27.778 21.8715C26.9995 20.3717 26.2339 18.7339 25.5438 17.1559C25.0739 16.0802 24.7662 15.0192 24.1795 14.0538C21.3624 9.42216 18.3294 6.62635 13.6324 3.87841C12.6321 3.29416 11.429 3.0635 10.1579 2.76199C9.47578 2.72087 8.79243 2.67891 8.11035 2.6378C7.69393 2.46385 7.26085 1.95445 6.86973 1.70713C5.31328 0.724172 1.32135 -1.41443 0.169296 1.39719C-0.558541 3.17145 1.25641 4.90291 1.90602 5.80237C2.36208 6.43301 2.94507 7.14039 3.27146 7.84946C3.48546 8.31564 3.52194 8.78351 3.70643 9.27667C4.15722 10.492 4.54896 11.814 5.13216 12.9374C5.42756 13.5054 5.75289 14.1044 6.12566 14.6123C6.35443 14.9242 6.74534 15.0614 6.80669 15.543C6.42443 16.0792 6.4025 16.9112 6.18765 17.5903C5.21776 20.648 5.58358 24.4478 6.99434 26.711C7.42658 27.4053 8.44622 28.8958 9.84729 28.3238C11.0729 27.8245 10.7997 26.2769 11.1503 24.9117C11.2292 24.6015 11.1811 24.374 11.3363 24.1672V24.2289C11.709 24.9734 12.0814 25.7179 12.4533 26.4622C13.2803 27.7933 14.7471 29.1853 15.9903 30.1233C16.634 30.61 17.1415 31.4516 17.9754 31.7365V31.6735H17.9132C17.7508 31.4228 17.4982 31.3176 17.2933 31.1158C16.8075 30.6395 16.2675 30.0478 15.8656 29.5024C14.7347 27.9676 13.7359 26.2876 12.8259 24.5393C12.3909 23.7042 12.0131 22.783 11.6464 21.9335C11.5054 21.6056 11.5071 21.1103 11.2123 20.9406C10.8108 21.563 10.2198 22.0669 9.90927 22.8019C9.41295 23.9772 9.34906 25.4103 9.16499 26.8966C9.0562 26.9358 9.10448 26.909 9.04038 26.9583C8.17592 26.7504 7.87251 25.8607 7.55161 25.0974C6.73964 23.1678 6.58889 20.0601 7.30344 17.8384C7.48835 17.2639 8.32499 15.4534 7.98553 14.9225C7.82402 14.3924 7.29185 14.0865 6.99392 13.6814C6.62368 13.1809 6.25554 12.5224 5.99958 11.9441C5.33584 10.4395 5.02547 8.7504 4.32568 7.22916C3.99086 6.50237 3.42516 5.7661 2.96046 5.11944C2.446 4.40341 1.86976 3.8763 1.47147 3.00973C1.32957 2.70211 1.13665 2.20978 1.34707 1.89331C1.41349 1.67972 1.50837 1.59074 1.71985 1.52095C2.08018 1.24348 3.08148 1.6133 3.45658 1.76912C4.45092 2.18216 5.28207 2.57581 6.12482 3.13392C6.52901 3.40211 6.93826 3.92121 7.42679 4.0648H7.98531C8.85948 4.26531 9.83801 4.12742 10.6533 4.37516C12.0957 4.81351 13.3882 5.49538 14.562 6.23671C18.1377 8.49423 21.0617 11.7088 23.0618 15.543C23.3835 16.1603 23.5231 16.7494 23.8061 17.4045C24.3777 18.7251 25.0985 20.0835 25.6674 21.3752C26.2348 22.663 26.788 23.9633 27.5903 25.0356C28.012 25.599 29.6418 25.9014 30.3829 26.2147C30.902 26.4338 31.7524 26.6627 32.2434 26.9583C33.1834 27.5253 34.0928 28.1996 34.9737 28.8203C35.4139 29.1309 36.7677 29.8111 36.8344 30.3706C34.6528 30.3129 32.986 30.5155 31.5611 31.116C31.1561 31.2861 30.5107 31.2912 30.4441 31.7979C30.6667 32.0311 30.702 32.3802 30.8791 32.6667C31.2183 33.2175 31.7927 33.9548 32.3056 34.3423C32.8659 34.7651 33.4429 35.2173 34.0426 35.5832C35.1105 36.2347 36.303 36.6064 37.3307 37.2585C37.9388 37.6435 38.5403 38.1274 39.1311 38.5615Z" fill="#263066"/>
</svg>
