<svg width="40" height="40" viewBox="0 0 40 40" fill="none" xmlns="http://www.w3.org/2000/svg">
<path d="M39.2657 24.538C39.2428 24.4682 39.2113 24.4015 39.1719 24.3395C38.9402 23.9008 38.3772 23.7698 37.4929 23.9527C34.7374 24.5212 33.6704 24.1713 33.2835 23.9208C35.5202 20.5072 37.3585 16.3842 38.352 12.538C38.8044 10.7868 39.6824 6.66517 38.5557 4.652C38.4837 4.51421 38.3995 4.38313 38.3042 4.26034C36.1552 1.51434 33.0012 0.0413357 29.1832 0.000835672C26.692 -0.0254977 24.5657 0.577669 23.9897 0.799836C23.7044 0.746588 23.4177 0.701237 23.1299 0.663836C22.4083 0.533186 21.6773 0.461947 20.9442 0.450836C18.9739 0.420169 17.2712 0.891169 15.8612 1.85184C14.4324 1.31667 7.87985 -0.889831 3.82468 1.98317C1.55985 3.58767 0.514351 6.4555 0.717018 10.5072C0.785184 11.8705 1.56185 16.0638 2.78752 20.0798C3.55385 22.5907 4.35202 24.583 5.17652 26.0498C6.09818 27.7068 7.05302 28.7053 8.03368 29.0323C8.77935 29.2808 9.92152 29.2725 11.1305 27.8192C12.4659 26.2133 13.781 24.7762 14.3715 24.141C15.0967 24.5335 15.8822 24.7452 16.6882 24.7697C16.6883 24.772 16.6885 24.7742 16.6889 24.7765C16.5485 24.9437 16.4112 25.1134 16.2769 25.2855C15.712 26.0025 15.5945 26.1517 13.7765 26.526C13.2595 26.6327 11.8859 26.9158 11.8659 27.8785C11.8617 28.0825 11.9207 28.2633 12.019 28.4232C12.3972 29.1283 13.555 29.4393 13.7107 29.4783C15.9349 30.0342 17.8847 29.6317 19.3297 28.3472C19.3014 32.0655 19.4589 35.7095 19.9054 36.8262C20.274 37.7477 21.175 40.0003 24.0207 40C24.4382 40 24.8979 39.9515 25.4034 39.8432C28.3732 39.2063 29.6629 37.8938 30.1617 35C30.4122 33.5488 30.831 30.2078 31.0597 28.1647C31.0879 28.0475 31.1192 27.9635 31.1547 27.9377C31.1559 27.9368 31.2709 27.8592 31.8667 27.9888C31.891 27.9941 31.9157 27.9979 31.9405 28.0002L32.3637 28.0373L32.3885 28.039C33.7999 28.103 35.5742 27.8013 36.6072 27.321C37.6802 26.823 39.6167 25.6005 39.2657 24.538ZM3.95168 19.7942C2.71252 15.7345 1.98852 11.6523 1.93118 10.5077C1.75018 6.88867 2.62635 4.3695 4.53502 3.01984C7.59618 0.855503 12.6014 2.1185 14.715 2.80317C14.7097 2.8085 14.704 2.81334 14.6987 2.81884C11.3257 6.2255 11.4057 12.0455 11.414 12.4013C11.4137 12.5385 11.425 12.7328 11.441 13.0002C11.499 13.979 11.607 15.8008 11.3185 17.8642C11.0504 19.7815 11.6414 21.6582 12.9399 23.0128C13.0742 23.153 13.2145 23.2847 13.3595 23.4085C12.7815 24.0275 11.5255 25.3962 10.1887 27.0045C9.24252 28.142 8.58918 27.924 8.37435 27.8523C7.72118 27.6345 7.01935 26.8738 6.31085 25.6485C5.51152 24.2502 4.70502 22.2623 3.95168 19.7942ZM13.9637 28.2727C13.6785 28.2013 13.4185 28.084 13.2434 27.9773C13.3915 27.9117 13.639 27.827 14.0489 27.7425C16.1877 27.3023 16.518 26.9915 17.2394 26.0755C17.4047 25.8655 17.592 25.6277 17.8515 25.3378C17.9073 25.2752 17.9492 25.2015 17.9744 25.1215C18.259 24.8693 18.4284 24.9383 18.7025 25.052C18.9625 25.1597 19.2155 25.4853 19.3184 25.844C19.3669 26.0133 19.4215 26.3348 19.243 26.5847C17.7359 28.6943 15.5404 28.667 13.9637 28.2727ZM17.4537 21.626L17.3662 21.861C17.1445 22.4553 16.9384 23.0078 16.8105 23.5327C15.6982 23.5292 14.6159 23.054 13.793 22.1953C12.7465 21.1035 12.2712 19.5847 12.4889 18.028C12.7935 15.8482 12.681 13.95 12.6205 12.9303C12.6122 12.7875 12.6047 12.6625 12.6002 12.5638C13.093 12.127 15.3767 10.9035 17.005 11.2765C17.7482 11.4468 18.201 11.9527 18.3892 12.8232C19.3635 17.3295 18.5182 19.2077 17.8389 20.717C17.6989 21.028 17.5667 21.3218 17.4537 21.626ZM29.7265 29.2468C29.6984 29.5415 29.6669 29.8735 29.6235 30.24L29.3802 30.9705C29.3609 31.0284 29.3506 31.089 29.3499 31.15C29.34 31.9412 29.2599 32.2315 29.1582 32.5988C29.0525 32.9808 28.9327 33.414 28.8592 34.3613C28.6759 36.7185 27.3955 38.0725 24.8305 38.6222C22.3047 39.164 21.8567 37.7942 21.4619 36.586C21.4214 36.4593 21.3787 36.3334 21.3337 36.2083C20.9747 35.232 21.0152 33.8552 21.0714 31.9498C21.0989 31.0145 21.0299 28.781 20.521 27.5395C20.5284 27.0508 20.5387 26.5547 20.5527 26.0532C20.5544 25.9896 20.5458 25.9263 20.5272 25.8655C20.5111 25.7484 20.4866 25.6325 20.454 25.5188C20.2497 24.805 19.7519 24.2078 19.1545 23.9603C18.9172 23.862 18.4815 23.6817 17.9582 23.8155C18.0699 23.3555 18.2634 22.8363 18.4732 22.274L18.5614 22.0373C18.6605 21.7707 18.7847 21.4945 18.9164 21.202C19.6272 19.6227 20.6007 17.4598 19.544 12.5733C19.1484 10.7432 17.8267 9.8495 15.8234 10.057C14.6222 10.1813 13.5235 10.666 12.9754 10.9438C12.8655 10.9995 12.7567 11.0574 12.649 11.1173C12.802 9.27334 13.38 5.82717 15.5419 3.64684C15.7024 3.48502 15.8712 3.33149 16.0474 3.18684C16.1348 3.16978 16.2173 3.13308 16.2885 3.0795C17.5425 2.1285 19.1127 1.66184 20.9585 1.692C21.6404 1.70317 22.2947 1.7485 22.9155 1.827C26.1472 2.41767 28.322 4.23834 29.642 5.79817C30.9992 7.402 31.734 9.01734 32.0274 9.88867C29.822 9.66434 28.3217 10.1 27.5612 11.187C25.9069 13.5518 28.4662 18.1418 29.6964 20.3477C29.9219 20.752 30.1167 21.1013 30.1779 21.2498C30.5784 22.2207 31.097 22.8687 31.4757 23.3418C31.5917 23.4868 31.7044 23.6275 31.7899 23.7502C31.1219 23.9427 29.9219 24.3877 30.0312 26.6118C30.0107 26.8723 29.9607 27.3567 29.8922 27.9698C29.8154 28.316 29.7752 28.737 29.7265 29.2468ZM31.2107 26.545C31.1432 25.159 31.6592 25.0142 32.2052 24.8608C32.2807 24.8401 32.3558 24.8176 32.4302 24.7932C32.5006 24.8556 32.5754 24.9129 32.6539 24.9648C33.6044 25.5923 35.291 25.667 37.6652 25.1888C37.3292 25.4837 36.8004 25.8545 36.0764 26.1907C35.3934 26.5078 34.2502 26.7457 33.1642 26.7967C31.9647 26.8527 31.3544 26.6622 31.2107 26.545ZM32.1599 11.093C32.15 11.6777 32.0695 12.2083 31.9842 12.7625C31.8925 13.3585 31.7975 13.9748 31.7735 14.7228C31.7499 15.4508 31.8409 16.2077 31.9289 16.9397C32.1065 18.418 32.2889 19.9402 31.583 21.442C31.4659 21.2343 31.3614 21.0197 31.2704 20.7993C31.1825 20.5867 30.9922 20.245 30.7285 19.7723C29.7025 17.9322 27.2995 13.623 28.5297 11.8647C29.1622 10.9602 30.7644 10.9212 32.1599 11.093ZM32.5405 22.7825C32.4935 22.7226 32.4461 22.6629 32.3984 22.6035L32.3392 22.5295C33.5495 20.5303 33.3129 18.5525 33.1022 16.7987C33.0157 16.079 32.934 15.3993 32.9547 14.761C32.9762 14.0842 33.0657 13.5038 33.1522 12.9425C33.2587 12.2508 33.3669 11.5353 33.337 10.6917C33.3594 10.6032 33.3684 10.4987 33.3567 10.3747C33.2805 9.5655 32.3569 7.14467 30.4744 4.953C29.4617 3.77417 27.9917 2.45767 25.9929 1.55384C26.868 1.37617 28.0475 1.21467 29.3669 1.244C32.786 1.32 35.4912 2.59984 37.4072 5.048C37.4479 5.10115 37.485 5.15694 37.5184 5.215C38.7235 7.47434 37.058 15.6735 32.5405 22.7825ZM17.8462 12.5888C17.8045 12.8878 17.3314 13.293 16.811 13.293C16.7659 13.293 16.7209 13.2899 16.6762 13.2837C16.364 13.2403 16.0487 13.0437 15.833 12.7577C15.7567 12.6568 15.6325 12.461 15.6572 12.2837C15.6664 12.2168 15.7007 12.1195 15.8114 12.0357C16.0084 11.8867 16.3977 11.8313 16.8274 11.8912C17.3545 11.9647 17.8984 12.2142 17.8462 12.5888ZM31.0637 11.9032C31.0822 12.0352 30.982 12.2382 30.8085 12.4202C30.6947 12.5397 30.4552 12.747 30.1287 12.7922C30.0873 12.7979 30.0455 12.8008 30.0037 12.8008C29.5145 12.8008 29.1014 12.4102 29.0692 12.1813C29.0292 11.8872 29.5094 11.6637 30.0044 11.5947C30.4994 11.5257 31.0229 11.6093 31.0637 11.9032Z" fill="#263066"/>
</svg>
