<svg width="26" height="34" viewBox="0 0 26 34" fill="none" xmlns="http://www.w3.org/2000/svg">
<path fill-rule="evenodd" clip-rule="evenodd" d="M20.4059 14.0697C19.6834 14.0697 19.0936 13.5486 19.0936 12.9075C19.0936 12.2653 19.6834 11.7442 20.4059 11.7442C21.1298 11.7442 21.7196 12.2653 21.7196 12.9075C21.7196 13.5486 21.1298 14.0697 20.4059 14.0697ZM17.0765 21.1446C16.354 21.1446 15.7642 20.6235 15.7642 19.9812C15.7642 19.3401 16.354 18.819 17.0765 18.819C17.8018 18.819 18.3902 19.3401 18.3902 19.9812C18.3902 20.6235 17.8018 21.1446 17.0765 21.1446ZM9.08769 19.9654C8.36516 19.9654 7.77674 19.4443 7.77674 18.802C7.77674 18.161 8.36516 17.6399 9.08769 17.6399C9.81295 17.6399 10.4014 18.161 10.4014 18.802C10.4014 19.4443 9.81295 19.9654 9.08769 19.9654ZM5.76105 26.4501C5.03716 26.4501 4.44737 25.929 4.44737 25.2879C4.44737 24.6469 5.03716 24.1245 5.76105 24.1245C6.48358 24.1245 7.07337 24.6469 7.07337 25.2879C7.07337 25.929 6.48358 26.4501 5.76105 26.4501ZM20.4059 10.5323C18.928 10.5323 17.7252 11.5975 17.7252 12.9075C17.7252 13.7098 18.1795 14.4175 18.8705 14.8477L17.6212 17.6556C17.4446 17.6241 17.2626 17.6071 17.0765 17.6071C15.9011 17.6071 14.9117 18.2858 14.5518 19.2201L11.7534 18.6566C11.6658 17.4157 10.5122 16.428 9.08769 16.428C7.60979 16.428 6.40832 17.4932 6.40832 18.802C6.40832 19.414 6.6779 19.9678 7.10758 20.3884L5.88695 22.9248C5.84316 22.9224 5.80347 22.9127 5.76105 22.9127C4.28179 22.9127 3.07895 23.9779 3.07895 25.2879C3.07895 26.5967 4.28179 27.662 5.76105 27.662C7.23895 27.662 8.44179 26.5967 8.44179 25.2879C8.44179 24.4469 7.94368 23.7125 7.19926 23.2896L8.27621 21.0537C8.53347 21.1264 8.80305 21.1773 9.08769 21.1773C10.1427 21.1773 11.0473 20.6307 11.4852 19.8455L14.4478 20.4417C14.6914 21.5312 15.7765 22.3564 17.0765 22.3564C18.5558 22.3564 19.7586 21.2912 19.7586 19.9812C19.7586 19.2735 19.4015 18.6445 18.8432 18.2094L20.1555 15.2586C20.2403 15.2658 20.3211 15.2816 20.4059 15.2816C21.8852 15.2816 23.088 14.2164 23.088 12.9075C23.088 11.5975 21.8852 10.5323 20.4059 10.5323ZM13 32.7881C6.34263 32.7881 1.36842 31.0152 1.36842 29.4301V6.78764C3.64411 8.41275 8.4199 9.27559 13 9.27559C17.5801 9.27559 22.3559 8.41275 24.6316 6.78764V29.4301C24.6316 31.0152 19.6574 32.7881 13 32.7881ZM13 1.21186C19.8544 1.21186 24.6316 3.01632 24.6316 4.6378C24.6316 6.25806 19.8544 8.06373 13 8.06373C6.14558 8.06373 1.36842 6.25806 1.36842 4.6378C1.36842 3.01632 6.14558 1.21186 13 1.21186ZM26 4.6378C26 1.62511 19.3016 0 13 0C6.69705 0 0 1.62511 0 4.6378C0 4.64264 0.00273664 4.64749 0.00273664 4.65234H0V29.4301C0 32.3979 6.69705 34 13 34C19.3016 34 26 32.3979 26 29.4301V4.65234H25.9973C25.9973 4.64749 26 4.64264 26 4.6378Z" fill="#E1E4F5"/>
</svg>
