<svg width="40" height="40" viewBox="0 0 40 40" fill="none" xmlns="http://www.w3.org/2000/svg">
<path d="M7.87333 4.17526C7.87333 4.17526 7.74 4.38693 7.86666 4.70026C7.94333 4.8936 8.17667 5.12693 8.43333 5.3736C8.43333 5.3736 11.125 8.00027 11.455 8.38027C12.9467 10.1019 13.595 11.7969 13.655 14.1353C13.6917 15.6353 13.4033 16.9553 12.7 18.4903C11.44 21.2386 8.78333 24.2703 4.68333 27.6403L5.28333 27.4403C5.67167 27.1519 6.19667 26.8419 7.43667 26.1636C10.2917 24.6036 13.4967 23.1669 17.435 21.6869C23.1 19.5586 32.4183 17.0603 37.7217 16.2486L38.2733 16.1636L38.19 16.0303C37.7033 15.2769 37.3733 14.8119 36.9733 14.3186C35.8117 12.8803 34.4033 11.7069 32.6783 10.7419C30.3083 9.4136 27.2333 8.38193 23.345 7.6086C22.1313 7.38036 20.9139 7.172 19.6933 6.9836C17.51 6.64876 15.3299 6.29319 13.1533 5.91693C12.445 5.79193 11.3867 5.61526 10.685 5.4636C10.1439 5.34863 9.60926 5.2051 9.08333 5.0336C8.63667 4.8586 8.00833 4.6886 7.87333 4.17526ZM9.43333 5.69026C9.43833 5.68693 9.53833 5.7186 9.66167 5.76026C9.88833 5.83693 10.1883 5.92693 10.5383 6.02526C10.7817 6.09193 11.05 6.16526 11.3367 6.23693C11.7 6.33026 12.0017 6.41026 12.005 6.41526C12.045 6.46026 12.6567 8.41193 12.865 9.16026C12.945 9.44693 13.005 9.68527 13 9.69027C12.9419 9.61799 12.8916 9.53978 12.85 9.45693C12.1433 8.2136 11.0217 6.9486 9.72667 5.93026C9.62599 5.85387 9.52815 5.77382 9.43333 5.69026ZM12.4167 6.5136C12.4467 6.51193 12.5817 6.5336 12.7417 6.57026C13.7733 6.79693 15.6167 7.1536 16.8 7.3536C16.9983 7.38693 17.16 7.42027 17.16 7.43193C17.1117 7.47527 17.0565 7.5102 16.9967 7.53526C16.7983 7.63526 15.9933 8.11693 15.725 8.29693C15.0533 8.74693 14.4483 9.2286 14.0083 9.66527C13.9016 9.7747 13.7921 9.8814 13.68 9.98527C13.675 9.98527 13.6433 9.88193 13.6117 9.75693C13.3286 8.74179 12.9664 7.75041 12.5283 6.79193C12.4843 6.70229 12.4448 6.61051 12.41 6.51693C12.41 6.51526 12.41 6.5136 12.4167 6.5136ZM17.6617 7.51026C17.695 7.52193 17.7617 7.72693 17.8767 8.1836C18.1423 9.26043 18.2285 10.3737 18.1317 11.4786L18.1117 11.5419L17.8 11.4419C17.1533 11.2353 16.1 10.9253 15.1967 10.6753C14.8815 10.5946 14.5701 10.5001 14.2633 10.3919C14.2633 10.3553 15.0117 9.60693 15.3333 9.32193C15.9483 8.7786 17.6033 7.49193 17.6617 7.51026ZM18.0783 7.57026C18.0967 7.5536 20.585 7.9836 21.715 8.20026C22.5583 8.36193 23.7767 8.61693 23.85 8.6486C23.8867 8.66193 23.76 8.73193 23.355 8.91527C21.755 9.63527 20.5683 10.2819 19.3883 11.0703C19.0783 11.2769 18.82 11.4469 18.815 11.4469C18.8083 11.4469 18.805 11.2736 18.805 11.0636C18.805 9.9136 18.5733 8.75193 18.1533 7.77027C18.1222 7.70608 18.0971 7.63912 18.0783 7.57026ZM24.5117 8.8436C24.53 8.86193 24.4483 9.3536 24.3783 9.6436C24.1583 10.5436 23.575 11.8836 22.855 13.1419C22.7794 13.2839 22.6948 13.4208 22.6017 13.5519C22.4749 13.4982 22.3528 13.4341 22.2367 13.3603C21.5333 12.9486 20.7367 12.5603 19.8617 12.1986C19.7051 12.137 19.5505 12.0703 19.3983 11.9986C19.3583 11.9619 21.3033 10.6736 22.335 10.0553C23.16 9.56027 24.4883 8.82027 24.5117 8.8436ZM24.9717 8.91527C25.0267 8.91527 26.13 9.21527 26.7 9.38693C28.1217 9.81193 29.7617 10.4103 30.825 10.8936L31.2667 11.0936L30.955 11.1653C28.3533 11.7653 26.1217 12.4536 23.975 13.3253C23.7967 13.3986 23.6417 13.4586 23.63 13.4586C23.6602 13.3516 23.7022 13.2482 23.755 13.1503C24.4017 11.7786 24.8183 10.3386 24.9267 9.11693C24.9367 9.00526 24.9567 8.91527 24.9717 8.91527ZM14.005 11.4353C14.0217 11.4186 14.8617 11.6153 15.32 11.7436C16.0083 11.9369 17.4733 12.4269 17.4733 12.4653C17.4733 12.4719 17.3117 12.6136 17.115 12.7786C16.3233 13.4403 15.5583 14.1336 14.6433 15.0169C14.4786 15.182 14.3073 15.3405 14.13 15.4919C14.1183 15.4919 14.1133 15.4536 14.12 15.4086C14.2583 14.3903 14.2283 13.0836 14.0367 11.7536C14.0177 11.649 14.0066 11.5432 14.0033 11.4369L14.005 11.4353ZM31.6883 11.4519C31.7 11.4653 31.2983 12.0936 31.0483 12.4519C30.6817 12.9753 30.1533 13.6619 28.9467 15.1803L27.3567 17.1836C27.2114 17.372 27.062 17.557 26.9083 17.7386C26.9033 17.7386 26.825 17.6286 26.7367 17.4953C26.0554 16.4786 25.2301 15.5663 24.2867 14.7869C24.1389 14.6631 23.9888 14.542 23.8367 14.4236C23.7917 14.3934 23.7503 14.3582 23.7133 14.3186C23.7133 14.3019 24.7417 13.8619 25.5267 13.5419C27.0475 12.9307 28.592 12.3802 30.1567 11.8919C30.8933 11.6669 31.6767 11.4419 31.6883 11.4519ZM32.1517 11.5736C32.2731 11.6147 32.389 11.6707 32.4967 11.7403C33.9662 12.5822 35.3255 13.6033 36.5433 14.7803C36.8667 15.0969 37.655 15.9186 37.6433 15.9253L37.0383 15.9736C34.4883 16.1653 31.2283 16.7069 28.0883 17.4619C27.875 17.5119 27.6917 17.5553 27.6783 17.5553C27.6667 17.5553 27.9 17.3219 28.1967 17.0353C30.0417 15.2636 30.8817 14.1453 31.8717 12.1453C32.0183 11.8486 32.1433 11.5903 32.1483 11.5753H32.1517V11.5736ZM18.6717 12.9569C18.7567 12.9736 19.5433 13.3403 20.1367 13.6369C20.6783 13.9086 21.5 14.3469 21.5417 14.3853C21.5467 14.3903 21.2583 14.5403 20.8983 14.7203C19.76 15.2903 18.785 15.8269 17.7683 16.4486C17.4767 16.6269 17.235 16.7719 17.2267 16.7719C17.2017 16.7719 17.21 16.7503 17.3733 16.4536C17.9362 15.4038 18.3501 14.2808 18.6033 13.1169C18.6267 13.0136 18.6533 12.9503 18.6717 12.9553V12.9569ZM17.88 13.0969C17.8967 13.1136 17.6933 13.8636 17.5633 14.2636C17.2112 15.316 16.7445 16.3265 16.1717 17.2769L16.0217 17.5219L15.6833 17.1936C15.3541 16.8581 14.9739 16.5768 14.5567 16.3603C14.4534 16.3136 14.3551 16.2567 14.2633 16.1903C14.2633 16.1403 15.2967 15.2019 16.0933 14.5269C16.665 14.0436 17.8667 13.0819 17.88 13.0969ZM22.6933 15.0769L22.9883 15.2686C23.6667 15.7086 24.4683 16.3003 25.08 16.8086C25.4233 17.0953 26.0883 17.6919 26.225 17.8353L26.2983 17.9136L25.8083 18.0503C23.3029 18.7336 20.8284 19.5255 18.3917 20.4236C18.1133 20.5253 17.875 20.6103 17.8583 20.6103C17.8233 20.6103 17.7883 20.6419 18.4133 20.0669C20.0133 18.5953 21.425 16.9736 22.48 15.3969L22.6933 15.0769ZM21.4283 15.3936C21.4433 15.4086 20.6083 16.5769 20.1133 17.2369C19.52 18.0253 18.4633 19.3453 17.7367 20.2036C17.5511 20.4299 17.3588 20.6505 17.16 20.8653C17.1433 20.8703 17.135 20.7819 17.1333 20.6436C17.1333 19.9103 16.9467 19.1269 16.62 18.4636C16.4817 18.1836 16.4583 18.1169 16.4867 18.0903C16.6 17.9869 18.365 16.9803 19.4767 16.3853C20.2417 15.9753 21.415 15.3786 21.4283 15.3936ZM13.7783 17.2686C14.2627 17.5006 14.7171 17.7905 15.1317 18.1319C15.145 18.1403 14.9867 18.2703 14.7817 18.4186C14.2067 18.8336 13.3317 19.4919 12.8267 19.8953C12.2933 20.3203 12.275 20.3336 12.335 20.2403C12.735 19.6286 12.935 19.2836 13.145 18.8403C13.3333 18.4469 13.5183 17.9803 13.6517 17.5736C13.6792 17.4662 13.7208 17.3634 13.7783 17.2686ZM15.8167 18.8686C15.845 18.8636 15.8833 18.9153 16.0483 19.1603C16.3933 19.6769 16.6583 20.3636 16.7267 20.9236L16.74 21.0453L15.9117 21.3653C14.4283 21.9419 13.06 22.5103 12.135 22.9319C11.8767 23.0519 11.4217 23.2686 11.1233 23.4186C10.825 23.5686 10.5817 23.6853 10.5817 23.6786C10.5817 23.6719 10.7683 23.5303 10.9983 23.3653C12.81 22.0486 14.3733 20.6086 15.5517 19.1669C15.6767 19.0136 15.7917 18.8803 15.8067 18.8703C15.8097 18.8685 15.8131 18.8674 15.8167 18.8669V18.8686ZM14.8767 19.1019C14.9017 19.1253 14.2083 19.9086 13.7417 20.3853C12.575 21.5769 11.415 22.5103 9.98167 23.4203C9.80167 23.5353 9.63833 23.6369 9.615 23.6503C9.57667 23.6736 9.62833 23.6136 10.2583 22.9269C10.655 22.4953 10.9583 22.1369 11.305 21.6886C11.5317 21.3936 11.575 21.3519 11.9083 21.1119C12.8033 20.4653 14.8533 19.0769 14.8767 19.1003V19.1019ZM16.5417 0.000264344C16.4083 -0.0164023 14.2567 0.758598 12.875 1.3186C11.0033 2.08026 9.54833 2.8086 8.65167 3.4386C8.31833 3.67193 7.89833 4.0936 7.83833 4.25526C7.81469 4.321 7.80284 4.3904 7.80333 4.46026L8.61667 5.22693L10.5467 5.8436L15.145 6.66693L20.4 7.57026L20.4533 7.12026L20.4067 7.11193L19.715 7.00193L19.5733 6.75526C18.859 5.49509 18.2044 4.20199 17.6117 2.88026C17.2658 2.08592 16.9707 1.27039 16.7283 0.438598C16.615 0.0335977 16.6033 0.00859768 16.5417 0.000264344ZM16.44 0.310264H16.4483C16.4533 0.315264 16.4767 0.485264 16.5017 0.685264C16.605 1.53193 16.795 2.35193 17.0917 3.23526C17.315 3.90193 17.3183 3.8636 17.0517 3.7886C16.435 3.61693 13.665 3.14193 11.6617 2.8636C11.4627 2.83823 11.2644 2.80877 11.0667 2.77526C11.0417 2.75026 12.5117 1.98026 13.1633 1.67526C13.9983 1.2886 16.275 0.341931 16.44 0.310264ZM10.6033 3.0236L10.8383 3.1036C12.125 3.54026 15.3483 4.15693 17.13 4.3036C17.33 4.32026 17.5 4.3386 17.505 4.3436C17.51 4.3486 17.3383 4.44026 17.125 4.54693C16.2667 4.97693 15.32 5.50193 14.665 5.91193C14.4733 6.03193 14.2983 6.1286 14.2733 6.12693C14.1786 6.1136 14.0842 6.0986 13.99 6.08193L13.75 6.0436L13.1417 5.45193C12.0733 4.4186 11.24 3.6186 10.9167 3.3186L10.6033 3.0236ZM10.365 3.2136L11.2167 4.27693C11.6867 4.86026 12.1567 5.44193 12.26 5.56693C12.365 5.69193 12.445 5.79693 12.44 5.80026C12.4167 5.8186 11.2067 5.5836 10.565 5.43526C10.1134 5.33928 9.66678 5.22136 9.22667 5.08193L8.89333 4.97526L8.895 4.8936C8.9 4.48526 9.415 3.88193 10.2883 3.26693L10.365 3.2136ZM17.6183 4.66193C17.6433 4.6636 17.6717 4.71526 17.7467 4.88026C17.9533 5.3336 18.5967 6.56027 18.7517 6.79693C18.8017 6.87527 18.885 6.88027 18.03 6.74193C15.98 6.41193 15.315 6.30026 15.315 6.28693C15.3567 6.2507 15.4033 6.22042 15.4533 6.19693C16.1073 5.82999 16.725 5.40197 17.2983 4.9186L17.59 4.6736C17.6 4.66526 17.61 4.66026 17.6183 4.66193ZM24.8 18.6753L16.7867 21.2886L9.82 24.3653L7.87 24.8819C7.37333 25.3519 6.84833 25.8286 6.29 26.3153C5.67333 26.8503 5.09667 27.3353 4.65667 27.6853C4.08097 28.1615 3.54938 28.6886 3.06833 29.2603C2.515 29.9503 2.08167 30.6836 1.895 31.2486C1.56167 32.2653 1.72333 33.2953 2.37 34.2453C3.195 35.4586 4.83667 36.6919 6.745 37.5319C7.72 37.9586 9.36167 38.5119 10.595 38.8219C12.65 39.3419 16.6183 39.9053 18.805 39.9886C19.2483 40.0053 19.8383 40.0053 19.8667 39.9853C19.9133 39.9536 20.255 39.3103 20.65 38.5019C21.9933 35.7586 22.965 33.1853 23.4883 30.9886C23.805 29.6569 24.0517 27.8836 24.2117 25.7803C24.2567 25.1903 24.2733 23.2253 24.2383 22.5569C24.1968 21.6037 24.0949 20.654 23.9333 19.7136C23.9122 19.6321 23.9054 19.5475 23.9133 19.4636C23.9367 19.4469 24.0117 19.4219 24.9967 19.1353L24.8 18.6753ZM22.9667 19.7503C23.0417 19.7503 23.2333 21.6069 23.285 22.7836C23.295 23.0353 23.2933 23.1953 23.2783 23.1953C23.2317 23.1953 22.2533 22.6203 21.5583 22.1853C20.9025 21.7721 20.2567 21.3431 19.6217 20.8986C19.5633 20.8519 19.57 20.8503 20.065 20.6803C20.9067 20.3903 22.905 19.7503 22.9683 19.7503H22.9667ZM18.8867 21.0886C18.9367 21.0886 19.0783 21.1669 19.4117 21.3753C20.6617 22.1586 22.355 23.1003 23.0783 23.4169C23.305 23.5169 23.33 23.4769 22.8117 23.8286C21.7083 24.5786 20.335 25.3153 18.65 26.0653C18.468 26.1485 18.2841 26.2274 18.0983 26.3019C18.1106 26.1886 18.1347 26.0769 18.17 25.9686C18.5783 24.4603 18.8083 22.9353 18.815 21.7119C18.8183 21.1086 18.8183 21.1053 18.8767 21.0903H18.8867V21.0886ZM18.0467 21.4103C18.0817 21.4469 18.0567 22.8003 18.0133 23.1703C17.8864 24.212 17.653 25.2379 17.3167 26.2319C17.2933 26.2603 16.465 25.4519 16.19 25.1319C15.7546 24.6381 15.3802 24.0936 15.075 23.5103C14.9383 23.2403 14.7183 22.7036 14.7383 22.6886C14.8317 22.6219 18.0233 21.3886 18.0467 21.4103ZM14.0883 22.9703C14.095 22.9703 14.1017 22.9719 14.105 22.9769C14.142 23.0471 14.1732 23.1201 14.1983 23.1953C14.3917 23.7203 14.825 24.4986 15.2017 24.9953C15.6952 25.6488 16.2642 26.2418 16.8967 26.7619C16.935 26.7953 16.9467 26.7886 15.96 27.1619C14.6969 27.6382 13.422 28.0828 12.1367 28.4953C11.5917 28.6719 11.13 28.8203 11.1117 28.8286C11.0567 28.8469 11.0733 28.8136 11.2333 28.5653C11.945 27.4553 13.0217 25.2819 13.625 23.7453C13.7283 23.4786 13.8283 23.2119 13.8467 23.1519C13.8717 23.0653 13.8983 23.0353 13.98 22.9986C14.0135 22.981 14.0505 22.9713 14.0883 22.9703ZM12.875 23.4703C12.8917 23.4853 12.585 24.1336 12.2817 24.7219C11.6967 25.8653 11.05 26.9903 10.1933 28.3636L9.89 28.8436C9.86 28.8886 9.84667 28.8736 9.75333 28.6869C9.53544 28.2422 9.37847 27.7702 9.28667 27.2836C9.20096 26.684 9.21221 26.0746 9.32 25.4786C9.39833 25.1003 9.395 25.1086 9.57333 25.0186C10.3433 24.6236 12.85 23.4486 12.875 23.4703ZM23.3217 23.8953V24.1519C23.3045 25.8224 23.1624 27.4893 22.8967 29.1386C21.7976 28.8214 20.7368 28.3843 19.7333 27.8353C19.1433 27.5119 18.2917 26.9903 18.3167 26.9653C18.3217 26.9586 18.5733 26.8269 18.8733 26.6703C20.0633 26.0536 21.1983 25.3869 22.1867 24.7269C22.5567 24.4803 23.1117 24.0786 23.235 23.9703L23.3217 23.8953ZM8.30167 25.6836C8.32667 25.6836 8.32 25.7303 8.28167 25.9519C8.24863 26.1674 8.22582 26.3843 8.21333 26.6019C8.16333 27.4886 8.30833 28.1419 8.74667 29.0353C8.87 29.2853 8.96667 29.4919 8.96167 29.4953C8.91667 29.5336 4.91167 30.7053 3.65167 31.0503L2.92667 31.2503C2.88167 31.2636 2.87833 31.2536 2.89333 31.1503C3.03167 30.2619 3.71 29.0969 4.65667 28.1169C5.28667 27.4669 5.79 27.0803 6.64833 26.5919C7.19383 26.279 7.74503 25.9762 8.30167 25.6836ZM17.75 27.3753C17.7533 27.3719 17.9017 27.4503 18.0783 27.5536C19.3733 28.3019 21.1783 29.0036 22.7167 29.3553L22.8567 29.3886L22.665 29.4936C21.8617 29.9403 19.2133 31.0419 16.5083 32.0553C16.2229 32.1619 15.9379 32.2697 15.6533 32.3786C15.6101 32.3998 15.5641 32.415 15.5167 32.4236C15.5167 32.4169 15.6283 32.2036 15.765 31.9469C16.525 30.5269 17.2817 28.8019 17.6717 27.6053C17.71 27.4836 17.745 27.3803 17.75 27.3753ZM16.7867 27.6919C16.7578 27.788 16.7227 27.8821 16.6817 27.9736C16.0668 29.4257 15.365 30.8393 14.58 32.2069C14.4467 32.4513 14.3067 32.692 14.16 32.9286C14.1517 32.9286 13.97 32.8186 13.7533 32.6869C12.47 31.9003 11.3333 30.9336 10.5867 29.9919L10.48 29.8586L11.0333 29.7069C12.8471 29.2217 14.6239 28.6074 16.35 27.8686C16.5867 27.7686 16.7833 27.6869 16.7867 27.6919ZM22.77 29.7803C22.7717 29.7803 22.7733 29.7819 22.7733 29.7853C22.7733 29.9186 22.4683 31.1653 22.2133 32.0686C22 32.8236 21.82 33.4153 21.4883 34.4636C21.4037 34.7464 21.3104 35.0266 21.2083 35.3036C19.4975 35.0112 17.8218 34.5414 16.2083 33.9019C15.8466 33.7604 15.4913 33.603 15.1433 33.4303C15.1333 33.4186 15.4983 33.2469 15.9533 33.0469C18.7117 31.8453 21.5683 30.4753 22.545 29.8869C22.6132 29.8386 22.6894 29.8025 22.77 29.7803ZM8.95833 30.2519C8.97333 30.2669 8.20167 31.3703 7.125 32.8786L6.14667 34.2503C5.985 34.4819 5.73833 34.8469 5.59833 35.0636L5.34333 35.4569L5.07333 35.2286C4.755 34.9619 4.19833 34.3936 3.945 34.0786C3.425 33.4303 3.07333 32.7486 2.93333 32.1219C2.87 31.8319 2.86667 31.6853 2.92833 31.6669C4.00134 31.4081 5.0758 31.1553 6.15167 30.9086L8.31833 30.4003C8.66667 30.3169 8.955 30.2503 8.95833 30.2519ZM9.73333 30.5486L9.92833 30.7669C10.7428 31.6916 11.7033 32.4764 12.7717 33.0903C12.9633 33.2003 13.1083 33.2969 13.0967 33.3036C10.6981 34.1732 8.29244 35.0232 5.88 35.8536C5.83868 35.829 5.79863 35.8023 5.76 35.7736L5.64833 35.6936L5.82333 35.4403C6.39 34.6186 7.10333 33.7153 8.665 31.8369L9.73333 30.5486ZM14.5667 34.0036C14.5717 33.9986 14.8417 34.0936 15.17 34.2169C15.9583 34.5119 16.5767 34.7036 17.415 34.9136C18.4433 35.1719 19.9317 35.4303 20.8117 35.5036C20.945 35.5136 21.015 35.5303 20.995 35.5436C20.9533 35.5703 20.0617 35.8669 19.4067 36.0736C16.8382 36.8549 14.2626 37.6121 11.68 38.3453C11.6217 38.3569 11.4183 38.3036 11.4183 38.2786C11.4183 38.2636 11.5633 38.0803 11.74 37.8686C12.6213 36.8133 13.4426 35.7093 14.2 34.5619C14.3216 34.3754 14.4438 34.1893 14.5667 34.0036ZM13.4967 34.0336C13.505 34.0419 13.075 34.7303 12.32 35.9203C12 36.4219 11.6383 36.9953 11.515 37.1903C11.39 37.3869 11.2083 37.6869 11.1117 37.8569L10.9333 38.1653L10.8433 38.1419C10.6267 38.0836 9.095 37.5419 8.69167 37.3819C8.19 37.1819 7.66667 36.9419 7.28167 36.7336C6.8 36.4736 6.19 36.0869 6.23667 36.0719L8.07833 35.5686C10.7317 34.8453 12.2 34.4303 13.1617 34.1286C13.3433 34.0736 13.495 34.0303 13.4967 34.0336ZM21.035 35.8019H21.045C21.07 35.8653 20.0867 38.5853 19.7283 39.4486C19.6467 39.6419 19.6183 39.6903 19.575 39.6869C18.7775 39.5862 17.9813 39.4751 17.1867 39.3536C15.6767 39.1236 13.1483 38.6819 12.51 38.5369L12.3617 38.5036L13.2667 38.3003C15.2067 37.8636 16.1383 37.6286 17.0833 37.3386C18.3014 36.9637 19.4921 36.5048 20.6467 35.9653C20.835 35.8786 20.9967 35.8103 21.035 35.8019Z" fill="#263066"/>
</svg>
