<svg width="40" height="40" viewBox="0 0 40 40" fill="none" xmlns="http://www.w3.org/2000/svg">
<path d="M36.13 0.868913C34.41 -0.664421 32.33 -0.0477541 30.275 1.77558C29.9582 2.0593 29.654 2.35681 29.3633 2.66725C25.8483 6.39558 22.5867 13.3006 21.5733 18.5739C21.9683 19.3739 22.2767 20.3956 22.48 21.1756C22.5819 21.5635 22.673 21.9542 22.7533 22.3472C22.7533 22.3472 22.7217 22.2289 22.5933 21.8539L22.51 21.6106C22.4928 21.5657 22.4745 21.5212 22.455 21.4772C22.225 20.9439 21.5917 19.8189 21.3117 19.3289C21.0733 20.0339 20.8617 20.6922 20.685 21.2889C21.4917 22.7622 21.9817 25.2889 21.9817 25.2889C21.9817 25.2889 21.94 25.1239 21.7367 24.5522C21.5583 24.0472 20.6633 22.4789 20.45 22.1122C20.0883 23.4522 19.9433 24.3556 20.0733 24.5756C20.3267 25.0022 20.5667 25.7389 20.7767 26.5522C21.2533 28.3856 21.585 30.6189 21.585 30.6189L21.6133 30.9922C21.5507 32.5194 21.5819 34.0489 21.7067 35.5722C21.865 37.4822 22.1617 39.1222 22.54 40.0006L22.7983 39.8606C22.2417 38.1306 22.015 35.8622 22.115 33.2489C22.265 29.2522 23.185 24.4322 24.8833 19.4089C27.755 11.8256 31.7383 5.74058 35.3833 2.83391C32.0617 5.83391 27.5633 15.5506 26.2167 19.1472C24.71 23.1739 23.6417 26.9539 22.9983 30.5756C24.1083 27.1806 27.7 25.7222 27.7 25.7222C27.7 25.7222 29.4617 23.5489 31.52 20.4456C30.2867 20.7272 28.2617 21.2089 27.5833 21.4939C26.5833 21.9122 26.3133 22.0556 26.3133 22.0556C26.3133 22.0556 29.555 20.0822 32.335 19.1889C36.1583 13.1672 40.325 4.61225 36.13 0.868913ZM5.175 1.77391C4.36454 1.77699 3.58817 2.10042 3.01524 2.67366C2.44231 3.24691 2.1193 4.02345 2.11667 4.83391V32.5139C2.11931 33.3241 2.44242 34.1003 3.01545 34.673C3.58847 35.2457 4.36485 35.5684 5.175 35.5706H20.8717C20.754 34.0697 20.7251 32.5632 20.785 31.0589C20.775 30.9556 20.7667 30.8239 20.7583 30.7256C20.555 29.3933 20.292 28.0709 19.97 26.7622C19.7683 25.9789 19.5117 25.2656 19.355 25.0006C19.1617 24.6722 19.1917 24.4839 19.1933 24.2806C19.1933 24.0806 19.2183 23.8722 19.255 23.6372C19.3537 23.0501 19.4839 22.4687 19.645 21.8956L20.0067 21.8489C19.9783 21.7906 19.9833 21.7406 19.955 21.6872L19.8867 21.0522C20.0862 20.3849 20.2985 19.7215 20.5233 19.0622L20.8567 19.0306C20.8433 19.0039 20.84 18.9672 20.8267 18.9422L20.755 18.4156C21.805 12.9489 25.0667 6.01058 28.755 2.09725C28.865 1.98225 28.9767 1.88391 29.085 1.77391H5.175Z" fill="#263066"/>
</svg>
