<svg width="20" height="20" viewBox="0 0 20 20" fill="none" xmlns="http://www.w3.org/2000/svg">
<path d="M2.69991 0.865741C2.03325 0.480942 1.20001 0.962074 1.20001 1.73182V5.7353C1.20001 6.09249 1.39052 6.42255 1.69981 6.60121L5.16731 8.60423C5.83398 8.98934 6.66751 8.50823 6.66751 7.73832V3.73326C6.66751 3.37595 6.47687 3.04579 6.16741 2.86718L2.69991 0.865741ZM18.7998 5.2555C18.7999 4.48549 17.9662 4.00428 17.2995 4.38952L13.8322 6.39293C13.523 6.57161 13.3325 6.90164 13.3325 7.25879V11.2614C13.3325 12.0312 14.1658 12.5123 14.8325 12.1274L18.2992 10.1261C18.6086 9.94752 18.7992 9.61744 18.7993 9.26021L18.7998 5.2555ZM8.76668 4.39103C8.10001 4.00613 7.26668 4.48725 7.26668 5.25705V9.26007C7.26668 9.61738 7.45732 9.94754 7.76678 10.1262L11.2343 12.1276C11.9009 12.5124 12.7342 12.0313 12.7342 11.2615V7.25902C12.7342 6.90175 12.5436 6.57162 12.2342 6.39299L8.76668 4.39103ZM8.76664 11.3951C8.09997 11.0102 7.26668 11.4913 7.26668 12.2611V16.2645C7.26668 16.6217 7.45717 16.9517 7.76642 17.1304L11.2331 19.1332C11.8998 19.5184 12.7333 19.0373 12.7333 18.2674V14.2624C12.7333 13.9051 12.5427 13.575 12.2333 13.3963L8.76664 11.3951Z" fill="#263066"/>
</svg>
