<?xml version="1.0" encoding="UTF-8"?>
<svg xmlns="http://www.w3.org/2000/svg" xmlns:xlink="http://www.w3.org/1999/xlink" width="24px" height="24px" viewBox="0 0 24 24" version="1.1">
<g id="surface1">
<path style=" stroke:none;fill-rule:nonzero;fill:rgb(0%,0%,0%);fill-opacity:1;" d="M 11.417969 5.363281 L 11.398438 5.363281 L 11.164062 5.40625 C 10.652344 5.46875 10.15625 5.613281 9.667969 5.835938 C 9.179688 6.0625 8.75 6.359375 8.378906 6.730469 C 7.746094 7.304688 7.304688 8.007812 7.054688 8.84375 C 6.917969 9.308594 6.855469 9.796875 6.871094 10.304688 C 6.886719 10.816406 6.980469 11.304688 7.148438 11.769531 C 7.410156 12.464844 7.8125 13.066406 8.355469 13.578125 L 8.65625 13.855469 L 6.730469 16.992188 C 6.328125 16.976562 5.980469 17.027344 5.6875 17.152344 C 5.222656 17.355469 4.875 17.664062 4.640625 18.082031 C 4.535156 18.3125 4.464844 18.554688 4.433594 18.800781 C 4.402344 19.046875 4.417969 19.296875 4.480469 19.542969 C 4.601562 20.007812 4.859375 20.378906 5.246094 20.65625 C 5.476562 20.8125 5.734375 20.925781 6.011719 20.996094 C 6.289062 21.0625 6.570312 21.078125 6.847656 21.039062 C 7.125 21 7.394531 20.90625 7.648438 20.75 C 7.902344 20.597656 8.117188 20.402344 8.285156 20.171875 C 8.472656 19.90625 8.585938 19.605469 8.621094 19.265625 C 8.660156 18.925781 8.617188 18.605469 8.496094 18.3125 C 8.480469 18.234375 8.425781 18.128906 8.332031 17.988281 L 8.261719 17.847656 L 11 13.394531 C 11.09375 13.253906 11.15625 13.144531 11.1875 13.066406 L 10.957031 13 C 10.816406 12.96875 10.714844 12.9375 10.652344 12.90625 C 10.296875 12.75 9.976562 12.539062 9.691406 12.265625 C 9.402344 11.996094 9.183594 11.691406 9.027344 11.351562 C 8.765625 10.792969 8.695312 10.210938 8.820312 9.609375 C 8.882812 9.253906 9.011719 8.921875 9.214844 8.609375 C 9.414062 8.300781 9.65625 8.039062 9.933594 7.820312 C 10.507812 7.402344 11.140625 7.195312 11.835938 7.195312 C 12.253906 7.179688 12.660156 7.253906 13.054688 7.414062 C 13.449219 7.578125 13.796875 7.8125 14.089844 8.125 C 14.351562 8.371094 14.558594 8.667969 14.703125 9.015625 C 14.851562 9.367188 14.933594 9.71875 14.949219 10.074219 C 14.949219 10.335938 14.902344 10.660156 14.808594 11.046875 L 16.433594 11.488281 L 16.617188 11.511719 C 16.835938 10.847656 16.890625 10.183594 16.78125 9.515625 C 16.71875 9.003906 16.570312 8.515625 16.328125 8.042969 C 16.089844 7.570312 15.785156 7.15625 15.410156 6.800781 C 14.761719 6.152344 13.964844 5.71875 13.019531 5.5 C 12.929688 5.46875 12.789062 5.4375 12.601562 5.40625 L 12.277344 5.363281 Z M 11.835938 8.238281 C 11.574219 8.238281 11.3125 8.292969 11.046875 8.402344 C 10.785156 8.511719 10.550781 8.667969 10.339844 8.878906 C 10.132812 9.085938 9.980469 9.332031 9.886719 9.609375 C 9.765625 9.917969 9.734375 10.257812 9.796875 10.628906 C 9.839844 10.910156 9.949219 11.171875 10.121094 11.417969 C 10.289062 11.667969 10.507812 11.859375 10.769531 12 C 11.140625 12.230469 11.574219 12.332031 12.070312 12.300781 C 12.117188 12.363281 12.15625 12.425781 12.1875 12.488281 L 14.785156 16.921875 C 14.832031 17.011719 14.878906 17.082031 14.925781 17.128906 C 15.34375 16.726562 15.796875 16.453125 16.28125 16.304688 C 16.769531 16.160156 17.273438 16.132812 17.792969 16.222656 C 18.308594 16.316406 18.761719 16.519531 19.148438 16.828125 C 19.644531 17.214844 19.980469 17.691406 20.160156 18.253906 C 20.335938 18.820312 20.339844 19.390625 20.171875 19.960938 C 20.046875 20.394531 19.824219 20.78125 19.507812 21.121094 C 19.191406 21.460938 18.816406 21.71875 18.382812 21.886719 C 17.902344 22.089844 17.390625 22.15625 16.839844 22.085938 C 16.289062 22.015625 15.800781 21.824219 15.367188 21.515625 C 15.304688 21.46875 15.203125 21.394531 15.0625 21.285156 L 14.949219 21.144531 C 14.886719 21.191406 14.800781 21.269531 14.691406 21.378906 L 13.601562 22.445312 C 13.957031 22.800781 14.359375 23.097656 14.808594 23.339844 C 15.257812 23.578125 15.730469 23.746094 16.222656 23.835938 L 16.734375 23.929688 L 17.640625 23.929688 L 18.289062 23.8125 C 19.28125 23.613281 20.132812 23.148438 20.84375 22.421875 C 21.183594 22.082031 21.464844 21.691406 21.691406 21.25 C 21.914062 20.808594 22.066406 20.347656 22.144531 19.867188 C 22.21875 19.3125 22.203125 18.757812 22.097656 18.207031 C 21.988281 17.660156 21.796875 17.160156 21.515625 16.710938 C 21.238281 16.261719 20.898438 15.867188 20.496094 15.527344 C 20.09375 15.1875 19.652344 14.917969 19.171875 14.714844 C 18.644531 14.5 18.101562 14.375 17.535156 14.34375 C 16.972656 14.3125 16.417969 14.367188 15.875 14.507812 L 15.480469 14.621094 L 13.601562 11.441406 C 13.800781 11.148438 13.925781 10.863281 13.972656 10.585938 C 14.050781 10.089844 13.949219 9.625 13.671875 9.191406 C 13.421875 8.804688 13.082031 8.535156 12.648438 8.378906 C 12.386719 8.285156 12.117188 8.238281 11.835938 8.238281 Z M 5.292969 14.367188 C 4.394531 14.570312 3.621094 14.980469 2.972656 15.597656 C 2.242188 16.277344 1.773438 17.089844 1.554688 18.035156 L 1.460938 18.59375 L 1.460938 19.449219 L 1.507812 19.707031 C 1.539062 19.90625 1.570312 20.0625 1.601562 20.171875 C 1.710938 20.648438 1.898438 21.105469 2.171875 21.539062 C 2.441406 21.972656 2.769531 22.351562 3.15625 22.675781 C 3.929688 23.3125 4.820312 23.691406 5.824219 23.8125 C 6.414062 23.875 7 23.839844 7.589844 23.710938 C 8.179688 23.578125 8.71875 23.359375 9.214844 23.046875 C 10.035156 22.523438 10.636719 21.816406 11.023438 20.9375 C 11.132812 20.671875 11.242188 20.324219 11.351562 19.890625 C 11.441406 19.875 11.582031 19.875 11.769531 19.890625 L 14.667969 19.9375 C 14.886719 19.9375 15.039062 19.945312 15.132812 19.960938 C 15.304688 20.269531 15.496094 20.511719 15.714844 20.679688 C 15.929688 20.851562 16.175781 20.976562 16.445312 21.050781 C 16.714844 21.128906 16.992188 21.160156 17.269531 21.144531 C 17.703125 21.097656 18.089844 20.945312 18.429688 20.679688 C 18.847656 20.355469 19.09375 19.9375 19.171875 19.425781 C 19.203125 19.164062 19.191406 18.910156 19.136719 18.660156 C 19.082031 18.414062 18.980469 18.183594 18.824219 17.964844 C 18.578125 17.625 18.257812 17.378906 17.871094 17.222656 C 17.609375 17.113281 17.335938 17.0625 17.046875 17.070312 C 16.761719 17.078125 16.488281 17.136719 16.222656 17.246094 C 15.792969 17.429688 15.457031 17.71875 15.226562 18.105469 L 15.15625 18.242188 C 14.941406 18.242188 14.613281 18.234375 14.183594 18.21875 L 11.558594 18.199219 C 11.328125 18.183594 10.996094 18.175781 10.5625 18.175781 L 9.398438 18.152344 L 9.46875 18.546875 C 9.59375 19.210938 9.492188 19.835938 9.167969 20.425781 C 8.953125 20.84375 8.640625 21.191406 8.238281 21.46875 C 7.835938 21.75 7.398438 21.917969 6.917969 21.980469 C 6.375 22.074219 5.832031 22.015625 5.292969 21.804688 C 4.75 21.597656 4.308594 21.269531 3.96875 20.820312 C 3.535156 20.277344 3.328125 19.667969 3.34375 18.988281 C 3.359375 18.414062 3.535156 17.878906 3.875 17.386719 C 4.078125 17.089844 4.324219 16.84375 4.617188 16.640625 C 4.914062 16.441406 5.230469 16.292969 5.570312 16.199219 L 5.78125 16.132812 Z M 5.292969 14.367188 "/>
</g>
</svg>
